<ttFont>
    <TTGlyph name="A" xMin="0" yMin="0" xMax="1444" yMax="1462">
      <contour>
        <pt x="414" y="489" on="1"/>
        <pt x="336" y="274" on="1"/>
        <pt x="327" y="250" on="0"/>
        <pt x="317" y="203" on="0"/>
        <pt x="317" y="186" on="1"/>
        <pt x="317" y="134" on="0"/>
        <pt x="384" y="86" on="0"/>
        <pt x="453" y="86" on="1"/>
        <pt x="500" y="86" on="1"/>
        <pt x="500" y="0" on="1"/>
        <pt x="0" y="0" on="1"/>
        <pt x="0" y="86" on="1"/>
        <pt x="39" y="86" on="1"/>
        <pt x="69" y="86" on="0"/>
        <pt x="111" y="99" on="0"/>
        <pt x="145" y="135" on="0"/>
        <pt x="176" y="197" on="0"/>
        <pt x="195" y="246" on="1"/>
        <pt x="649" y="1462" on="1"/>
        <pt x="809" y="1462" on="1"/>
        <pt x="1272" y="195" on="1"/>
        <pt x="1284" y="163" on="0"/>
        <pt x="1309" y="121" on="0"/>
        <pt x="1343" y="96" on="0"/>
        <pt x="1387" y="86" on="0"/>
        <pt x="1417" y="86" on="1"/>
        <pt x="1444" y="86" on="1"/>
        <pt x="1444" y="0" on="1"/>
        <pt x="881" y="0" on="1"/>
        <pt x="881" y="86" on="1"/>
        <pt x="928" y="86" on="1"/>
        <pt x="1051" y="86" on="0"/>
        <pt x="1051" y="184" on="1"/>
        <pt x="1051" y="201" on="0"/>
        <pt x="1042" y="237" on="0"/>
        <pt x="1034" y="260" on="1"/>
        <pt x="952" y="489" on="1"/>
      </contour>
      <contour>
        <pt x="788" y="950" on="1"/>
        <pt x="756" y="1041" on="0"/>
        <pt x="703" y="1200" on="0"/>
        <pt x="686" y="1274" on="1"/>
        <pt x="679" y="1237" on="0"/>
        <pt x="660" y="1168" on="0"/>
        <pt x="638" y="1096" on="0"/>
        <pt x="610" y="1017" on="0"/>
        <pt x="592" y="969" on="1"/>
        <pt x="453" y="592" on="1"/>
        <pt x="915" y="592" on="1"/>
      </contour>
    </TTGlyph>
    <TTGlyph name="AE" xMin="0" yMin="0" xMax="1862" yMax="1462">
      <contour>
        <pt x="1151" y="102" on="1"/>
        <pt x="1546" y="102" on="1"/>
        <pt x="1594" y="102" on="0"/>
        <pt x="1663" y="129" on="0"/>
        <pt x="1709" y="175" on="0"/>
        <pt x="1735" y="236" on="0"/>
        <pt x="1741" y="270" on="1"/>
        <pt x="1755" y="358" on="1"/>
        <pt x="1862" y="358" on="1"/>
        <pt x="1847" y="0" on="1"/>
        <pt x="750" y="0" on="1"/>
        <pt x="750" y="86" on="1"/>
        <pt x="776" y="86" on="1"/>
        <pt x="810" y="86" on="0"/>
        <pt x="870" y="95" on="0"/>
        <pt x="915" y="123" on="0"/>
        <pt x="943" y="178" on="0"/>
        <pt x="944" y="223" on="1"/>
        <pt x="944" y="489" on="1"/>
        <pt x="473" y="489" on="1"/>
        <pt x="360" y="274" on="1"/>
        <pt x="343" y="242" on="0"/>
        <pt x="328" y="184" on="0"/>
        <pt x="328" y="166" on="1"/>
        <pt x="328" y="124" on="0"/>
        <pt x="391" y="86" on="0"/>
        <pt x="451" y="86" on="1"/>
        <pt x="498" y="86" on="1"/>
        <pt x="498" y="0" on="1"/>
        <pt x="0" y="0" on="1"/>
        <pt x="0" y="86" on="1"/>
        <pt x="33" y="86" on="1"/>
        <pt x="87" y="86" on="0"/>
        <pt x="172" y="162" on="0"/>
        <pt x="215" y="246" on="1"/>
        <pt x="807" y="1366" on="1"/>
        <pt x="647" y="1376" on="1"/>
        <pt x="647" y="1462" on="1"/>
        <pt x="1782" y="1462" on="1"/>
        <pt x="1792" y="1104" on="1"/>
        <pt x="1686" y="1104" on="1"/>
        <pt x="1675" y="1192" on="1"/>
        <pt x="1671" y="1226" on="0"/>
        <pt x="1649" y="1286" on="0"/>
        <pt x="1606" y="1331" on="0"/>
        <pt x="1541" y="1359" on="0"/>
        <pt x="1495" y="1360" on="1"/>
        <pt x="1151" y="1360" on="1"/>
        <pt x="1151" y="815" on="1"/>
        <pt x="1645" y="815" on="1"/>
        <pt x="1645" y="715" on="1"/>
        <pt x="1151" y="715" on="1"/>
      </contour>
      <contour>
        <pt x="890" y="1304" on="0"/>
        <pt x="808" y="1138" on="0"/>
        <pt x="705" y="937" on="0"/>
        <pt x="587" y="709" on="0"/>
        <pt x="526" y="592" on="1"/>
        <pt x="944" y="592" on="1"/>
        <pt x="944" y="1360" on="1"/>
        <pt x="915" y="1360" on="1"/>
      </contour>
    </TTGlyph>
    <TTGlyph name="Aacute" xMin="0" yMin="0" xMax="1444" yMax="1907">
      <component glyphName="A" x="0" y="0" flags="0x1204"/>
      <component glyphName="acute" x="246" y="338" flags="0x1004"/>
    </TTGlyph>
    <TTGlyph name="Acircumflex" xMin="0" yMin="0" xMax="1444" yMax="1907">
      <component glyphName="A" x="0" y="0" flags="0x1204"/>
      <component glyphName="circumflex" x="133" y="338" flags="0x1004"/>
    </TTGlyph>
    <TTGlyph name="Adieresis" xMin="0" yMin="0" xMax="1444" yMax="1862">
      <component glyphName="A" x="0" y="0" flags="0x1204"/>
      <component glyphName="dieresis" x="133" y="338" flags="0x1004"/>
    </TTGlyph>
    <TTGlyph name="Agrave" xMin="0" yMin="0" xMax="1444" yMax="1907">
      <component glyphName="A" x="0" y="0" flags="0x1204"/>
      <component glyphName="grave" x="14" y="338" flags="0x1004"/>
    </TTGlyph>
    <TTGlyph name="Aring" xMin="0" yMin="0" xMax="1444" yMax="1808">
      <component glyphName="A" x="0" y="0" flags="0x1204"/>
      <component glyphName="ring" x="385" y="141" flags="0x1004"/>
    </TTGlyph>
    <TTGlyph name="Atilde" xMin="0" yMin="0" xMax="1444" yMax="1841">
      <component glyphName="A" x="0" y="0" flags="0x1204"/>
      <component glyphName="tilde" x="133" y="338" flags="0x1004"/>
    </TTGlyph>
    <TTGlyph name="B" xMin="78" yMin="0" xMax="1214" yMax="1462">
      <contour>
        <pt x="1153" y="1096" on="1"/>
        <pt x="1153" y="1027" on="0"/>
        <pt x="1114" y="923" on="0"/>
        <pt x="1046" y="845" on="0"/>
        <pt x="953" y="792" on="0"/>
        <pt x="899" y="774" on="1"/>
        <pt x="899" y="766" on="1"/>
        <pt x="969" y="754" on="0"/>
        <pt x="1085" y="696" on="0"/>
        <pt x="1168" y="603" on="0"/>
        <pt x="1214" y="476" on="0"/>
        <pt x="1214" y="395" on="1"/>
        <pt x="1214" y="197" on="0"/>
        <pt x="954" y="0" on="0"/>
        <pt x="688" y="0" on="1"/>
        <pt x="78" y="0" on="1"/>
        <pt x="78" y="86" on="1"/>
        <pt x="104" y="86" on="1"/>
        <pt x="139" y="86" on="0"/>
        <pt x="200" y="96" on="0"/>
        <pt x="246" y="127" on="0"/>
        <pt x="272" y="185" on="0"/>
        <pt x="272" y="233" on="1"/>
        <pt x="272" y="1237" on="1"/>
        <pt x="272" y="1282" on="0"/>
        <pt x="245" y="1337" on="0"/>
        <pt x="199" y="1367" on="0"/>
        <pt x="138" y="1376" on="0"/>
        <pt x="104" y="1376" on="1"/>
        <pt x="78" y="1376" on="1"/>
        <pt x="78" y="1462" on="1"/>
        <pt x="627" y="1462" on="1"/>
        <pt x="893" y="1462" on="0"/>
        <pt x="1153" y="1285" on="0"/>
      </contour>
      <contour>
        <pt x="479" y="102" on="1"/>
        <pt x="678" y="102" on="1"/>
        <pt x="765" y="102" on="0"/>
        <pt x="885" y="134" on="0"/>
        <pt x="961" y="205" on="0"/>
        <pt x="995" y="319" on="0"/>
        <pt x="995" y="401" on="1"/>
        <pt x="995" y="481" on="0"/>
        <pt x="965" y="599" on="0"/>
        <pt x="892" y="677" on="0"/>
        <pt x="772" y="715" on="0"/>
        <pt x="682" y="715" on="1"/>
        <pt x="479" y="715" on="1"/>
      </contour>
      <contour>
        <pt x="479" y="817" on="1"/>
        <pt x="621" y="817" on="1"/>
        <pt x="711" y="817" on="0"/>
        <pt x="831" y="849" on="0"/>
        <pt x="903" y="916" on="0"/>
        <pt x="934" y="1022" on="0"/>
        <pt x="934" y="1096" on="1"/>
        <pt x="934" y="1171" on="0"/>
        <pt x="900" y="1272" on="0"/>
        <pt x="824" y="1334" on="0"/>
        <pt x="703" y="1360" on="0"/>
        <pt x="616" y="1360" on="1"/>
        <pt x="479" y="1360" on="1"/>
      </contour>
    </TTGlyph>
    <TTGlyph name="C" xMin="117" yMin="-20" xMax="1188" yMax="1483">
      <contour>
        <pt x="774" y="1483" on="1"/>
        <pt x="879" y="1483" on="0"/>
        <pt x="1034" y="1448" on="0"/>
        <pt x="1137" y="1386" on="0"/>
        <pt x="1188" y="1302" on="0"/>
        <pt x="1188" y="1253" on="1"/>
        <pt x="1188" y="1220" on="0"/>
        <pt x="1161" y="1167" on="0"/>
        <pt x="1113" y="1130" on="0"/>
        <pt x="1048" y="1110" on="0"/>
        <pt x="1010" y="1110" on="1"/>
        <pt x="1010" y="1158" on="0"/>
        <pt x="985" y="1252" on="0"/>
        <pt x="928" y="1327" on="0"/>
        <pt x="837" y="1374" on="0"/>
        <pt x="770" y="1374" on="1"/>
        <pt x="654" y="1374" on="0"/>
        <pt x="492" y="1289" on="0"/>
        <pt x="390" y="1126" on="0"/>
        <pt x="344" y="887" on="0"/>
        <pt x="344" y="733" on="1"/>
        <pt x="344" y="596" on="0"/>
        <pt x="392" y="368" on="0"/>
        <pt x="496" y="205" on="0"/>
        <pt x="657" y="115" on="0"/>
        <pt x="770" y="115" on="1"/>
        <pt x="845" y="115" on="0"/>
        <pt x="960" y="144" on="0"/>
        <pt x="1048" y="192" on="0"/>
        <pt x="1115" y="255" on="0"/>
        <pt x="1141" y="289" on="1"/>
        <pt x="1158" y="278" on="0"/>
        <pt x="1180" y="240" on="0"/>
        <pt x="1180" y="209" on="1"/>
        <pt x="1180" y="170" on="0"/>
        <pt x="1127" y="89" on="0"/>
        <pt x="1019" y="23" on="0"/>
        <pt x="853" y="-20" on="0"/>
        <pt x="739" y="-20" on="1"/>
        <pt x="586" y="-20" on="0"/>
        <pt x="354" y="88" on="0"/>
        <pt x="197" y="286" on="0"/>
        <pt x="117" y="564" on="0"/>
        <pt x="117" y="733" on="1"/>
        <pt x="117" y="899" on="0"/>
        <pt x="201" y="1175" on="0"/>
        <pt x="366" y="1373" on="0"/>
        <pt x="612" y="1483" on="0"/>
      </contour>
    </TTGlyph>
    <TTGlyph name="Ccedilla" xMin="117" yMin="-492" xMax="1188" yMax="1483">
      <component glyphName="C" x="0" y="0" flags="0x1204"/>
      <component glyphName="cedilla" x="391" y="0" flags="0x1004"/>
    </TTGlyph>
    <TTGlyph name="D" xMin="78" yMin="0" xMax="1372" yMax="1462">
      <contour>
        <pt x="1372" y="733" on="1"/>
        <pt x="1372" y="565" on="0"/>
        <pt x="1288" y="294" on="0"/>
        <pt x="1122" y="103" on="0"/>
        <pt x="872" y="0" on="0"/>
        <pt x="705" y="0" on="1"/>
        <pt x="78" y="0" on="1"/>
        <pt x="78" y="86" on="1"/>
        <pt x="104" y="86" on="1"/>
        <pt x="139" y="86" on="0"/>
        <pt x="200" y="96" on="0"/>
        <pt x="246" y="127" on="0"/>
        <pt x="272" y="185" on="0"/>
        <pt x="272" y="233" on="1"/>
        <pt x="272" y="1237" on="1"/>
        <pt x="272" y="1282" on="0"/>
        <pt x="245" y="1337" on="0"/>
        <pt x="199" y="1367" on="0"/>
        <pt x="138" y="1376" on="0"/>
        <pt x="104" y="1376" on="1"/>
        <pt x="78" y="1376" on="1"/>
        <pt x="78" y="1462" on="1"/>
        <pt x="705" y="1462" on="1"/>
        <pt x="863" y="1462" on="0"/>
        <pt x="1111" y="1365" on="0"/>
        <pt x="1282" y="1179" on="0"/>
        <pt x="1372" y="907" on="0"/>
      </contour>
      <contour>
        <pt x="657" y="104" on="1"/>
        <pt x="779" y="104" on="0"/>
        <pt x="962" y="187" on="0"/>
        <pt x="1084" y="347" on="0"/>
        <pt x="1145" y="581" on="0"/>
        <pt x="1145" y="733" on="1"/>
        <pt x="1145" y="1038" on="0"/>
        <pt x="902" y="1360" on="0"/>
        <pt x="659" y="1360" on="1"/>
        <pt x="479" y="1360" on="1"/>
        <pt x="479" y="104" on="1"/>
      </contour>
    </TTGlyph>
    <TTGlyph name="E" xMin="78" yMin="0" xMax="1190" yMax="1462">
      <contour>
        <pt x="479" y="102" on="1"/>
        <pt x="874" y="102" on="1"/>
        <pt x="923" y="102" on="0"/>
        <pt x="992" y="129" on="0"/>
        <pt x="1038" y="175" on="0"/>
        <pt x="1064" y="236" on="0"/>
        <pt x="1069" y="270" on="1"/>
        <pt x="1083" y="358" on="1"/>
        <pt x="1190" y="358" on="1"/>
        <pt x="1176" y="0" on="1"/>
        <pt x="78" y="0" on="1"/>
        <pt x="78" y="86" on="1"/>
        <pt x="104" y="86" on="1"/>
        <pt x="138" y="86" on="0"/>
        <pt x="199" y="95" on="0"/>
        <pt x="245" y="123" on="0"/>
        <pt x="272" y="178" on="0"/>
        <pt x="272" y="223" on="1"/>
        <pt x="272" y="1229" on="1"/>
        <pt x="272" y="1277" on="0"/>
        <pt x="246" y="1335" on="0"/>
        <pt x="200" y="1366" on="0"/>
        <pt x="139" y="1376" on="0"/>
        <pt x="104" y="1376" on="1"/>
        <pt x="78" y="1376" on="1"/>
        <pt x="78" y="1462" on="1"/>
        <pt x="1110" y="1462" on="1"/>
        <pt x="1120" y="1104" on="1"/>
        <pt x="1014" y="1104" on="1"/>
        <pt x="1004" y="1192" on="1"/>
        <pt x="1000" y="1226" on="0"/>
        <pt x="977" y="1287" on="0"/>
        <pt x="934" y="1333" on="0"/>
        <pt x="869" y="1360" on="0"/>
        <pt x="823" y="1360" on="1"/>
        <pt x="479" y="1360" on="1"/>
        <pt x="479" y="815" on="1"/>
        <pt x="973" y="815" on="1"/>
        <pt x="973" y="715" on="1"/>
        <pt x="479" y="715" on="1"/>
      </contour>
    </TTGlyph>
    <TTGlyph name="Eacute" xMin="78" yMin="0" xMax="1190" yMax="1907">
      <component glyphName="E" x="0" y="0" flags="0x1204"/>
      <component glyphName="acute" x="154" y="338" flags="0x1004"/>
    </TTGlyph>
    <TTGlyph name="Ecircumflex" xMin="78" yMin="0" xMax="1190" yMax="1907">
      <component glyphName="E" x="0" y="0" flags="0x1204"/>
      <component glyphName="circumflex" x="61" y="338" flags="0x1004"/>
    </TTGlyph>
    <TTGlyph name="Edieresis" xMin="78" yMin="0" xMax="1190" yMax="1862">
      <component glyphName="E" x="0" y="0" flags="0x1204"/>
      <component glyphName="dieresis" x="51" y="338" flags="0x1004"/>
    </TTGlyph>
    <TTGlyph name="Egrave" xMin="78" yMin="0" xMax="1190" yMax="1907">
      <component glyphName="E" x="0" y="0" flags="0x1204"/>
      <component glyphName="grave" x="-48" y="338" flags="0x1004"/>
    </TTGlyph>
    <TTGlyph name="Eth" xMin="78" yMin="0" xMax="1372" yMax="1462">
      <contour>
        <pt x="78" y="815" on="1"/>
        <pt x="272" y="815" on="1"/>
        <pt x="272" y="1237" on="1"/>
        <pt x="272" y="1282" on="0"/>
        <pt x="245" y="1337" on="0"/>
        <pt x="199" y="1367" on="0"/>
        <pt x="138" y="1376" on="0"/>
        <pt x="104" y="1376" on="1"/>
        <pt x="78" y="1376" on="1"/>
        <pt x="78" y="1462" on="1"/>
        <pt x="705" y="1462" on="1"/>
        <pt x="863" y="1462" on="0"/>
        <pt x="1111" y="1365" on="0"/>
        <pt x="1282" y="1179" on="0"/>
        <pt x="1372" y="907" on="0"/>
        <pt x="1372" y="733" on="1"/>
        <pt x="1372" y="565" on="0"/>
        <pt x="1288" y="294" on="0"/>
        <pt x="1122" y="103" on="0"/>
        <pt x="871" y="0" on="0"/>
        <pt x="705" y="0" on="1"/>
        <pt x="78" y="0" on="1"/>
        <pt x="78" y="86" on="1"/>
        <pt x="104" y="86" on="1"/>
        <pt x="139" y="86" on="0"/>
        <pt x="200" y="96" on="0"/>
        <pt x="246" y="127" on="0"/>
        <pt x="272" y="185" on="0"/>
        <pt x="272" y="233" on="1"/>
        <pt x="272" y="715" on="1"/>
        <pt x="78" y="715" on="1"/>
      </contour>
      <contour>
        <pt x="657" y="104" on="1"/>
        <pt x="779" y="104" on="0"/>
        <pt x="962" y="187" on="0"/>
        <pt x="1084" y="347" on="0"/>
        <pt x="1145" y="581" on="0"/>
        <pt x="1145" y="733" on="1"/>
        <pt x="1145" y="885" on="0"/>
        <pt x="1084" y="1119" on="0"/>
        <pt x="963" y="1278" on="0"/>
        <pt x="780" y="1360" on="0"/>
        <pt x="659" y="1360" on="1"/>
        <pt x="479" y="1360" on="1"/>
        <pt x="479" y="815" on="1"/>
        <pt x="827" y="815" on="1"/>
        <pt x="827" y="715" on="1"/>
        <pt x="479" y="715" on="1"/>
        <pt x="479" y="104" on="1"/>
      </contour>
    </TTGlyph>
    <TTGlyph name="F" xMin="78" yMin="0" xMax="1120" yMax="1462">
      <contour>
        <pt x="479" y="1360" on="1"/>
        <pt x="479" y="768" on="1"/>
        <pt x="973" y="768" on="1"/>
        <pt x="973" y="668" on="1"/>
        <pt x="479" y="668" on="1"/>
        <pt x="479" y="233" on="1"/>
        <pt x="479" y="185" on="0"/>
        <pt x="506" y="127" on="0"/>
        <pt x="551" y="96" on="0"/>
        <pt x="613" y="86" on="0"/>
        <pt x="647" y="86" on="1"/>
        <pt x="715" y="86" on="1"/>
        <pt x="715" y="0" on="1"/>
        <pt x="78" y="0" on="1"/>
        <pt x="78" y="86" on="1"/>
        <pt x="104" y="86" on="1"/>
        <pt x="138" y="86" on="0"/>
        <pt x="199" y="95" on="0"/>
        <pt x="245" y="123" on="0"/>
        <pt x="272" y="178" on="0"/>
        <pt x="272" y="223" on="1"/>
        <pt x="272" y="1237" on="1"/>
        <pt x="272" y="1282" on="0"/>
        <pt x="245" y="1337" on="0"/>
        <pt x="199" y="1367" on="0"/>
        <pt x="138" y="1376" on="0"/>
        <pt x="104" y="1376" on="1"/>
        <pt x="78" y="1376" on="1"/>
        <pt x="78" y="1462" on="1"/>
        <pt x="1110" y="1462" on="1"/>
        <pt x="1120" y="1104" on="1"/>
        <pt x="1014" y="1104" on="1"/>
        <pt x="1004" y="1192" on="1"/>
        <pt x="1000" y="1227" on="0"/>
        <pt x="976" y="1288" on="0"/>
        <pt x="931" y="1333" on="0"/>
        <pt x="863" y="1360" on="0"/>
        <pt x="815" y="1360" on="1"/>
      </contour>
    </TTGlyph>
    <TTGlyph name="G" xMin="117" yMin="-20" xMax="1423" yMax="1483">
      <contour>
        <pt x="821" y="-20" on="1"/>
        <pt x="643" y="-20" on="0"/>
        <pt x="378" y="88" on="0"/>
        <pt x="203" y="286" on="0"/>
        <pt x="117" y="564" on="0"/>
        <pt x="117" y="733" on="1"/>
        <pt x="117" y="899" on="0"/>
        <pt x="208" y="1175" on="0"/>
        <pt x="389" y="1373" on="0"/>
        <pt x="657" y="1483" on="0"/>
        <pt x="834" y="1483" on="1"/>
        <pt x="948" y="1483" on="0"/>
        <pt x="1117" y="1448" on="0"/>
        <pt x="1230" y="1386" on="0"/>
        <pt x="1286" y="1302" on="0"/>
        <pt x="1286" y="1253" on="1"/>
        <pt x="1286" y="1220" on="0"/>
        <pt x="1256" y="1167" on="0"/>
        <pt x="1205" y="1130" on="0"/>
        <pt x="1136" y="1110" on="0"/>
        <pt x="1096" y="1110" on="1"/>
        <pt x="1096" y="1158" on="0"/>
        <pt x="1068" y="1252" on="0"/>
        <pt x="1004" y="1327" on="0"/>
        <pt x="900" y="1374" on="0"/>
        <pt x="825" y="1374" on="1"/>
        <pt x="695" y="1374" on="0"/>
        <pt x="512" y="1289" on="0"/>
        <pt x="396" y="1126" on="0"/>
        <pt x="344" y="887" on="0"/>
        <pt x="344" y="733" on="1"/>
        <pt x="344" y="580" on="0"/>
        <pt x="398" y="342" on="0"/>
        <pt x="520" y="180" on="0"/>
        <pt x="714" y="96" on="0"/>
        <pt x="854" y="96" on="1"/>
        <pt x="913" y="96" on="0"/>
        <pt x="1024" y="108" on="0"/>
        <pt x="1067" y="121" on="1"/>
        <pt x="1067" y="451" on="1"/>
        <pt x="1067" y="496" on="0"/>
        <pt x="1040" y="551" on="0"/>
        <pt x="994" y="580" on="0"/>
        <pt x="933" y="590" on="0"/>
        <pt x="899" y="590" on="1"/>
        <pt x="891" y="590" on="1"/>
        <pt x="891" y="676" on="1"/>
        <pt x="1423" y="676" on="1"/>
        <pt x="1423" y="590" on="1"/>
        <pt x="1415" y="590" on="1"/>
        <pt x="1386" y="590" on="0"/>
        <pt x="1334" y="580" on="0"/>
        <pt x="1296" y="549" on="0"/>
        <pt x="1274" y="490" on="0"/>
        <pt x="1274" y="442" on="1"/>
        <pt x="1274" y="74" on="1"/>
        <pt x="1171" y="26" on="0"/>
        <pt x="953" y="-20" on="0"/>
      </contour>
    </TTGlyph>
    <TTGlyph name="H" xMin="78" yMin="0" xMax="1546" yMax="1462">
      <contour>
        <pt x="950" y="0" on="1"/>
        <pt x="950" y="86" on="1"/>
        <pt x="977" y="86" on="1"/>
        <pt x="1012" y="86" on="0"/>
        <pt x="1073" y="96" on="0"/>
        <pt x="1118" y="127" on="0"/>
        <pt x="1145" y="185" on="0"/>
        <pt x="1145" y="233" on="1"/>
        <pt x="1145" y="713" on="1"/>
        <pt x="479" y="713" on="1"/>
        <pt x="479" y="233" on="1"/>
        <pt x="479" y="185" on="0"/>
        <pt x="506" y="127" on="0"/>
        <pt x="551" y="96" on="0"/>
        <pt x="613" y="86" on="0"/>
        <pt x="647" y="86" on="1"/>
        <pt x="674" y="86" on="1"/>
        <pt x="674" y="0" on="1"/>
        <pt x="78" y="0" on="1"/>
        <pt x="78" y="86" on="1"/>
        <pt x="104" y="86" on="1"/>
        <pt x="139" y="86" on="0"/>
        <pt x="200" y="96" on="0"/>
        <pt x="246" y="127" on="0"/>
        <pt x="272" y="185" on="0"/>
        <pt x="272" y="233" on="1"/>
        <pt x="272" y="1237" on="1"/>
        <pt x="272" y="1282" on="0"/>
        <pt x="245" y="1337" on="0"/>
        <pt x="199" y="1367" on="0"/>
        <pt x="138" y="1376" on="0"/>
        <pt x="104" y="1376" on="1"/>
        <pt x="78" y="1376" on="1"/>
        <pt x="78" y="1462" on="1"/>
        <pt x="674" y="1462" on="1"/>
        <pt x="674" y="1376" on="1"/>
        <pt x="647" y="1376" on="1"/>
        <pt x="613" y="1376" on="0"/>
        <pt x="551" y="1366" on="0"/>
        <pt x="506" y="1335" on="0"/>
        <pt x="479" y="1277" on="0"/>
        <pt x="479" y="1229" on="1"/>
        <pt x="479" y="815" on="1"/>
        <pt x="1145" y="815" on="1"/>
        <pt x="1145" y="1229" on="1"/>
        <pt x="1145" y="1277" on="0"/>
        <pt x="1118" y="1335" on="0"/>
        <pt x="1073" y="1366" on="0"/>
        <pt x="1012" y="1376" on="0"/>
        <pt x="977" y="1376" on="1"/>
        <pt x="950" y="1376" on="1"/>
        <pt x="950" y="1462" on="1"/>
        <pt x="1546" y="1462" on="1"/>
        <pt x="1546" y="1376" on="1"/>
        <pt x="1520" y="1376" on="1"/>
        <pt x="1485" y="1376" on="0"/>
        <pt x="1424" y="1366" on="0"/>
        <pt x="1378" y="1335" on="0"/>
        <pt x="1352" y="1277" on="0"/>
        <pt x="1352" y="1229" on="1"/>
        <pt x="1352" y="223" on="1"/>
        <pt x="1352" y="178" on="0"/>
        <pt x="1379" y="123" on="0"/>
        <pt x="1425" y="95" on="0"/>
        <pt x="1486" y="86" on="0"/>
        <pt x="1520" y="86" on="1"/>
        <pt x="1546" y="86" on="1"/>
        <pt x="1546" y="0" on="1"/>
      </contour>
    </TTGlyph>
    <TTGlyph name="I" xMin="78" yMin="0" xMax="674" yMax="1462">
      <contour>
        <pt x="78" y="0" on="1"/>
        <pt x="78" y="86" on="1"/>
        <pt x="104" y="86" on="1"/>
        <pt x="139" y="86" on="0"/>
        <pt x="200" y="96" on="0"/>
        <pt x="246" y="127" on="0"/>
        <pt x="272" y="185" on="0"/>
        <pt x="272" y="233" on="1"/>
        <pt x="272" y="1229" on="1"/>
        <pt x="272" y="1277" on="0"/>
        <pt x="246" y="1335" on="0"/>
        <pt x="200" y="1366" on="0"/>
        <pt x="139" y="1376" on="0"/>
        <pt x="104" y="1376" on="1"/>
        <pt x="78" y="1376" on="1"/>
        <pt x="78" y="1462" on="1"/>
        <pt x="674" y="1462" on="1"/>
        <pt x="674" y="1376" on="1"/>
        <pt x="647" y="1376" on="1"/>
        <pt x="613" y="1376" on="0"/>
        <pt x="551" y="1366" on="0"/>
        <pt x="506" y="1335" on="0"/>
        <pt x="479" y="1277" on="0"/>
        <pt x="479" y="1229" on="1"/>
        <pt x="479" y="233" on="1"/>
        <pt x="479" y="185" on="0"/>
        <pt x="506" y="127" on="0"/>
        <pt x="551" y="96" on="0"/>
        <pt x="613" y="86" on="0"/>
        <pt x="647" y="86" on="1"/>
        <pt x="674" y="86" on="1"/>
        <pt x="674" y="0" on="1"/>
      </contour>
    </TTGlyph>
    <TTGlyph name="Iacute" xMin="78" yMin="0" xMax="674" yMax="1907">
      <component glyphName="I" x="0" y="0" flags="0x1204"/>
      <component glyphName="acute" x="-120" y="338" flags="0x1004"/>
    </TTGlyph>
    <TTGlyph name="Icircumflex" xMin="73" yMin="0" xMax="677" yMax="1907">
      <component glyphName="I" x="0" y="0" flags="0x1204"/>
      <component glyphName="circumflex" x="-216" y="338" flags="0x1004"/>
    </TTGlyph>
    <TTGlyph name="Idieresis" xMin="73" yMin="0" xMax="674" yMax="1862">
      <component glyphName="I" x="0" y="0" flags="0x1204"/>
      <component glyphName="dieresis" x="-218" y="338" flags="0x1004"/>
    </TTGlyph>
    <TTGlyph name="Igrave" xMin="75" yMin="0" xMax="674" yMax="1907">
      <component glyphName="I" x="0" y="0" flags="0x1204"/>
      <component glyphName="grave" x="-318" y="338" flags="0x1004"/>
    </TTGlyph>
    <TTGlyph name="J" xMin="-23" yMin="-492" xMax="674" yMax="1462">
      <contour>
        <pt x="-23" y="-395" on="1"/>
        <pt x="-4" y="-395" on="1"/>
        <pt x="62" y="-395" on="0"/>
        <pt x="165" y="-358" on="0"/>
        <pt x="235" y="-271" on="0"/>
        <pt x="272" y="-126" on="0"/>
        <pt x="272" y="-18" on="1"/>
        <pt x="272" y="1237" on="1"/>
        <pt x="272" y="1282" on="0"/>
        <pt x="245" y="1337" on="0"/>
        <pt x="199" y="1367" on="0"/>
        <pt x="138" y="1376" on="0"/>
        <pt x="104" y="1376" on="1"/>
        <pt x="78" y="1376" on="1"/>
        <pt x="78" y="1462" on="1"/>
        <pt x="674" y="1462" on="1"/>
        <pt x="674" y="1376" on="1"/>
        <pt x="647" y="1376" on="1"/>
        <pt x="613" y="1376" on="0"/>
        <pt x="551" y="1366" on="0"/>
        <pt x="506" y="1335" on="0"/>
        <pt x="479" y="1277" on="0"/>
        <pt x="479" y="1229" on="1"/>
        <pt x="479" y="-16" on="1"/>
        <pt x="479" y="-154" on="0"/>
        <pt x="407" y="-337" on="0"/>
        <pt x="281" y="-446" on="0"/>
        <pt x="110" y="-492" on="0"/>
        <pt x="12" y="-492" on="1"/>
        <pt x="-23" y="-492" on="1"/>
      </contour>
    </TTGlyph>
    <TTGlyph name="K" xMin="78" yMin="0" xMax="1458" yMax="1462">
      <contour>
        <pt x="903" y="1137" on="1"/>
        <pt x="936" y="1175" on="0"/>
        <pt x="980" y="1234" on="0"/>
        <pt x="1005" y="1282" on="0"/>
        <pt x="1016" y="1318" on="0"/>
        <pt x="1016" y="1333" on="1"/>
        <pt x="1016" y="1359" on="0"/>
        <pt x="966" y="1378" on="0"/>
        <pt x="915" y="1378" on="1"/>
        <pt x="915" y="1462" on="1"/>
        <pt x="1368" y="1462" on="1"/>
        <pt x="1368" y="1378" on="1"/>
        <pt x="1333" y="1378" on="0"/>
        <pt x="1268" y="1351" on="0"/>
        <pt x="1203" y="1302" on="0"/>
        <pt x="1134" y="1231" on="0"/>
        <pt x="1094" y="1186" on="1"/>
        <pt x="797" y="852" on="1"/>
        <pt x="1229" y="250" on="1"/>
        <pt x="1288" y="169" on="0"/>
        <pt x="1397" y="86" on="0"/>
        <pt x="1454" y="86" on="1"/>
        <pt x="1458" y="86" on="1"/>
        <pt x="1458" y="0" on="1"/>
        <pt x="1436" y="0" on="1"/>
        <pt x="1333" y="0" on="0"/>
        <pt x="1201" y="16" on="0"/>
        <pt x="1111" y="58" on="0"/>
        <pt x="1044" y="129" on="0"/>
        <pt x="1006" y="184" on="1"/>
        <pt x="653" y="690" on="1"/>
        <pt x="479" y="549" on="1"/>
        <pt x="479" y="233" on="1"/>
        <pt x="479" y="185" on="0"/>
        <pt x="506" y="127" on="0"/>
        <pt x="551" y="96" on="0"/>
        <pt x="613" y="86" on="0"/>
        <pt x="647" y="86" on="1"/>
        <pt x="674" y="86" on="1"/>
        <pt x="674" y="0" on="1"/>
        <pt x="78" y="0" on="1"/>
        <pt x="78" y="86" on="1"/>
        <pt x="104" y="86" on="1"/>
        <pt x="138" y="86" on="0"/>
        <pt x="199" y="95" on="0"/>
        <pt x="245" y="123" on="0"/>
        <pt x="272" y="178" on="0"/>
        <pt x="272" y="223" on="1"/>
        <pt x="272" y="1237" on="1"/>
        <pt x="272" y="1282" on="0"/>
        <pt x="245" y="1337" on="0"/>
        <pt x="199" y="1367" on="0"/>
        <pt x="138" y="1376" on="0"/>
        <pt x="104" y="1376" on="1"/>
        <pt x="78" y="1376" on="1"/>
        <pt x="78" y="1462" on="1"/>
        <pt x="674" y="1462" on="1"/>
        <pt x="674" y="1376" on="1"/>
        <pt x="647" y="1376" on="1"/>
        <pt x="613" y="1376" on="0"/>
        <pt x="551" y="1366" on="0"/>
        <pt x="506" y="1335" on="0"/>
        <pt x="479" y="1277" on="0"/>
        <pt x="479" y="1229" on="1"/>
        <pt x="479" y="651" on="1"/>
      </contour>
    </TTGlyph>
    <TTGlyph name="L" xMin="78" yMin="0" xMax="1190" yMax="1462">
      <contour>
        <pt x="78" y="0" on="1"/>
        <pt x="78" y="86" on="1"/>
        <pt x="104" y="86" on="1"/>
        <pt x="139" y="86" on="0"/>
        <pt x="200" y="96" on="0"/>
        <pt x="246" y="127" on="0"/>
        <pt x="272" y="185" on="0"/>
        <pt x="272" y="233" on="1"/>
        <pt x="272" y="1229" on="1"/>
        <pt x="272" y="1277" on="0"/>
        <pt x="246" y="1335" on="0"/>
        <pt x="200" y="1366" on="0"/>
        <pt x="139" y="1376" on="0"/>
        <pt x="104" y="1376" on="1"/>
        <pt x="78" y="1376" on="1"/>
        <pt x="78" y="1462" on="1"/>
        <pt x="674" y="1462" on="1"/>
        <pt x="674" y="1376" on="1"/>
        <pt x="647" y="1376" on="1"/>
        <pt x="613" y="1376" on="0"/>
        <pt x="552" y="1367" on="0"/>
        <pt x="506" y="1337" on="0"/>
        <pt x="479" y="1282" on="0"/>
        <pt x="479" y="1237" on="1"/>
        <pt x="479" y="102" on="1"/>
        <pt x="883" y="102" on="1"/>
        <pt x="929" y="102" on="0"/>
        <pt x="994" y="135" on="0"/>
        <pt x="1036" y="188" on="0"/>
        <pt x="1059" y="254" on="0"/>
        <pt x="1063" y="287" on="1"/>
        <pt x="1083" y="440" on="1"/>
        <pt x="1190" y="440" on="1"/>
        <pt x="1176" y="0" on="1"/>
      </contour>
    </TTGlyph>
    <TTGlyph name="M" xMin="78" yMin="0" xMax="1843" yMax="1462">
      <contour>
        <pt x="1298" y="0" on="1"/>
        <pt x="1298" y="86" on="1"/>
        <pt x="1305" y="86" on="1"/>
        <pt x="1338" y="86" on="0"/>
        <pt x="1391" y="95" on="0"/>
        <pt x="1428" y="122" on="0"/>
        <pt x="1450" y="173" on="0"/>
        <pt x="1452" y="215" on="1"/>
        <pt x="1452" y="1309" on="1"/>
        <pt x="983" y="0" on="1"/>
        <pt x="872" y="0" on="1"/>
        <pt x="397" y="1305" on="1"/>
        <pt x="397" y="233" on="1"/>
        <pt x="397" y="185" on="0"/>
        <pt x="417" y="127" on="0"/>
        <pt x="456" y="96" on="0"/>
        <pt x="511" y="86" on="0"/>
        <pt x="545" y="86" on="1"/>
        <pt x="551" y="86" on="1"/>
        <pt x="551" y="0" on="1"/>
        <pt x="78" y="0" on="1"/>
        <pt x="78" y="86" on="1"/>
        <pt x="104" y="86" on="1"/>
        <pt x="138" y="86" on="0"/>
        <pt x="199" y="95" on="0"/>
        <pt x="245" y="123" on="0"/>
        <pt x="272" y="178" on="0"/>
        <pt x="272" y="223" on="1"/>
        <pt x="272" y="1237" on="1"/>
        <pt x="272" y="1282" on="0"/>
        <pt x="245" y="1337" on="0"/>
        <pt x="199" y="1367" on="0"/>
        <pt x="138" y="1376" on="0"/>
        <pt x="104" y="1376" on="1"/>
        <pt x="78" y="1376" on="1"/>
        <pt x="78" y="1462" on="1"/>
        <pt x="545" y="1462" on="1"/>
        <pt x="969" y="291" on="1"/>
        <pt x="1389" y="1462" on="1"/>
        <pt x="1843" y="1462" on="1"/>
        <pt x="1843" y="1376" on="1"/>
        <pt x="1817" y="1376" on="1"/>
        <pt x="1782" y="1376" on="0"/>
        <pt x="1721" y="1366" on="0"/>
        <pt x="1675" y="1335" on="0"/>
        <pt x="1649" y="1277" on="0"/>
        <pt x="1649" y="1229" on="1"/>
        <pt x="1649" y="233" on="1"/>
        <pt x="1649" y="185" on="0"/>
        <pt x="1675" y="127" on="0"/>
        <pt x="1721" y="96" on="0"/>
        <pt x="1782" y="86" on="0"/>
        <pt x="1817" y="86" on="1"/>
        <pt x="1843" y="86" on="1"/>
        <pt x="1843" y="0" on="1"/>
      </contour>
    </TTGlyph>
    <TTGlyph name="N" xMin="78" yMin="0" xMax="1505" yMax="1462">
      <contour>
        <pt x="1165" y="0" on="1"/>
        <pt x="397" y="1180" on="1"/>
        <pt x="397" y="233" on="1"/>
        <pt x="397" y="185" on="0"/>
        <pt x="424" y="127" on="0"/>
        <pt x="469" y="96" on="0"/>
        <pt x="531" y="86" on="0"/>
        <pt x="565" y="86" on="1"/>
        <pt x="592" y="86" on="1"/>
        <pt x="592" y="0" on="1"/>
        <pt x="78" y="0" on="1"/>
        <pt x="78" y="86" on="1"/>
        <pt x="104" y="86" on="1"/>
        <pt x="139" y="86" on="0"/>
        <pt x="200" y="96" on="0"/>
        <pt x="246" y="127" on="0"/>
        <pt x="272" y="185" on="0"/>
        <pt x="272" y="233" on="1"/>
        <pt x="272" y="1237" on="1"/>
        <pt x="272" y="1282" on="0"/>
        <pt x="245" y="1337" on="0"/>
        <pt x="199" y="1367" on="0"/>
        <pt x="138" y="1376" on="0"/>
        <pt x="104" y="1376" on="1"/>
        <pt x="78" y="1376" on="1"/>
        <pt x="78" y="1462" on="1"/>
        <pt x="453" y="1462" on="1"/>
        <pt x="1186" y="330" on="1"/>
        <pt x="1186" y="1237" on="1"/>
        <pt x="1186" y="1282" on="0"/>
        <pt x="1159" y="1337" on="0"/>
        <pt x="1113" y="1367" on="0"/>
        <pt x="1052" y="1376" on="0"/>
        <pt x="1018" y="1376" on="1"/>
        <pt x="991" y="1376" on="1"/>
        <pt x="991" y="1462" on="1"/>
        <pt x="1505" y="1462" on="1"/>
        <pt x="1505" y="1376" on="1"/>
        <pt x="1479" y="1376" on="1"/>
        <pt x="1444" y="1376" on="0"/>
        <pt x="1383" y="1366" on="0"/>
        <pt x="1337" y="1335" on="0"/>
        <pt x="1311" y="1277" on="0"/>
        <pt x="1311" y="1229" on="1"/>
        <pt x="1311" y="0" on="1"/>
      </contour>
    </TTGlyph>
    <TTGlyph name="Ntilde" xMin="78" yMin="0" xMax="1505" yMax="1841">
      <component glyphName="N" x="0" y="0" flags="0x1204"/>
      <component glyphName="tilde" x="217" y="338" flags="0x1004"/>
    </TTGlyph>
    <TTGlyph name="O" xMin="115" yMin="-20" xMax="1403" yMax="1485">
      <contour>
        <pt x="1403" y="733" on="1"/>
        <pt x="1403" y="564" on="0"/>
        <pt x="1319" y="286" on="0"/>
        <pt x="1155" y="88" on="0"/>
        <pt x="915" y="-20" on="0"/>
        <pt x="760" y="-20" on="1"/>
        <pt x="597" y="-20" on="0"/>
        <pt x="355" y="88" on="0"/>
        <pt x="195" y="286" on="0"/>
        <pt x="115" y="565" on="0"/>
        <pt x="115" y="735" on="1"/>
        <pt x="115" y="905" on="0"/>
        <pt x="195" y="1182" on="0"/>
        <pt x="355" y="1378" on="0"/>
        <pt x="599" y="1485" on="0"/>
        <pt x="762" y="1485" on="1"/>
        <pt x="917" y="1485" on="0"/>
        <pt x="1155" y="1378" on="0"/>
        <pt x="1319" y="1181" on="0"/>
        <pt x="1403" y="904" on="0"/>
      </contour>
      <contour>
        <pt x="342" y="733" on="1"/>
        <pt x="342" y="581" on="0"/>
        <pt x="387" y="342" on="0"/>
        <pt x="487" y="177" on="0"/>
        <pt x="646" y="90" on="0"/>
        <pt x="760" y="90" on="1"/>
        <pt x="874" y="90" on="0"/>
        <pt x="1033" y="177" on="0"/>
        <pt x="1132" y="342" on="0"/>
        <pt x="1176" y="581" on="0"/>
        <pt x="1176" y="733" on="1"/>
        <pt x="1176" y="885" on="0"/>
        <pt x="1132" y="1124" on="0"/>
        <pt x="1033" y="1288" on="0"/>
        <pt x="876" y="1374" on="0"/>
        <pt x="762" y="1374" on="1"/>
        <pt x="648" y="1374" on="0"/>
        <pt x="488" y="1288" on="0"/>
        <pt x="387" y="1124" on="0"/>
        <pt x="342" y="885" on="0"/>
      </contour>
    </TTGlyph>
    <TTGlyph name="Oacute" xMin="115" yMin="-20" xMax="1403" yMax="1907">
      <component glyphName="O" x="0" y="0" flags="0x1204"/>
      <component glyphName="acute" x="258" y="338" flags="0x1004"/>
    </TTGlyph>
    <TTGlyph name="Ocircumflex" xMin="115" yMin="-20" xMax="1403" yMax="1907">
      <component glyphName="O" x="0" y="0" flags="0x1204"/>
      <component glyphName="circumflex" x="170" y="338" flags="0x1004"/>
    </TTGlyph>
    <TTGlyph name="Odieresis" xMin="115" yMin="-20" xMax="1403" yMax="1862">
      <component glyphName="O" x="0" y="0" flags="0x1204"/>
      <component glyphName="dieresis" x="164" y="338" flags="0x1004"/>
    </TTGlyph>
    <TTGlyph name="Ograve" xMin="115" yMin="-20" xMax="1403" yMax="1907">
      <component glyphName="O" x="0" y="0" flags="0x1204"/>
      <component glyphName="grave" x="70" y="338" flags="0x1004"/>
    </TTGlyph>
    <TTGlyph name="Oslash" xMin="115" yMin="-82" xMax="1403" yMax="1546">
      <contour>
        <pt x="1163" y="1354" on="1"/>
        <pt x="1281" y="1257" on="0"/>
        <pt x="1403" y="941" on="0"/>
        <pt x="1403" y="733" on="1"/>
        <pt x="1403" y="564" on="0"/>
        <pt x="1319" y="286" on="0"/>
        <pt x="1155" y="88" on="0"/>
        <pt x="915" y="-20" on="0"/>
        <pt x="760" y="-20" on="1"/>
        <pt x="667" y="-20" on="0"/>
        <pt x="508" y="15" on="0"/>
        <pt x="442" y="49" on="1"/>
        <pt x="371" y="-82" on="1"/>
        <pt x="250" y="-82" on="1"/>
        <pt x="354" y="106" on="1"/>
        <pt x="233" y="204" on="0"/>
        <pt x="115" y="525" on="0"/>
        <pt x="115" y="735" on="1"/>
        <pt x="115" y="905" on="0"/>
        <pt x="195" y="1182" on="0"/>
        <pt x="355" y="1378" on="0"/>
        <pt x="599" y="1485" on="0"/>
        <pt x="762" y="1485" on="1"/>
        <pt x="853" y="1485" on="0"/>
        <pt x="1009" y="1446" on="0"/>
        <pt x="1075" y="1411" on="1"/>
        <pt x="1151" y="1546" on="1"/>
        <pt x="1270" y="1546" on="1"/>
      </contour>
      <contour>
        <pt x="342" y="733" on="1"/>
        <pt x="342" y="578" on="0"/>
        <pt x="387" y="342" on="0"/>
        <pt x="438" y="258" on="1"/>
        <pt x="1010" y="1292" on="1"/>
        <pt x="916" y="1374" on="0"/>
        <pt x="762" y="1374" on="1"/>
        <pt x="648" y="1374" on="0"/>
        <pt x="488" y="1288" on="0"/>
        <pt x="387" y="1124" on="0"/>
        <pt x="342" y="885" on="0"/>
      </contour>
      <contour>
        <pt x="1176" y="733" on="1"/>
        <pt x="1176" y="886" on="0"/>
        <pt x="1131" y="1123" on="0"/>
        <pt x="1081" y="1206" on="1"/>
        <pt x="510" y="170" on="1"/>
        <pt x="605" y="90" on="0"/>
        <pt x="760" y="90" on="1"/>
        <pt x="874" y="90" on="0"/>
        <pt x="1033" y="177" on="0"/>
        <pt x="1132" y="342" on="0"/>
        <pt x="1176" y="581" on="0"/>
      </contour>
    </TTGlyph>
    <TTGlyph name="Otilde" xMin="115" yMin="-20" xMax="1403" yMax="1841">
      <component glyphName="O" x="0" y="0" flags="0x1204"/>
      <component glyphName="tilde" x="156" y="338" flags="0x1004"/>
    </TTGlyph>
    <TTGlyph name="P" xMin="78" yMin="0" xMax="1157" yMax="1462">
      <contour>
        <pt x="78" y="0" on="1"/>
        <pt x="78" y="86" on="1"/>
        <pt x="104" y="86" on="1"/>
        <pt x="139" y="86" on="0"/>
        <pt x="200" y="96" on="0"/>
        <pt x="246" y="127" on="0"/>
        <pt x="272" y="185" on="0"/>
        <pt x="272" y="233" on="1"/>
        <pt x="272" y="1237" on="1"/>
        <pt x="272" y="1282" on="0"/>
        <pt x="245" y="1337" on="0"/>
        <pt x="199" y="1367" on="0"/>
        <pt x="138" y="1376" on="0"/>
        <pt x="104" y="1376" on="1"/>
        <pt x="78" y="1376" on="1"/>
        <pt x="78" y="1462" on="1"/>
        <pt x="653" y="1462" on="1"/>
        <pt x="782" y="1462" on="0"/>
        <pt x="972" y="1403" on="0"/>
        <pt x="1096" y="1292" on="0"/>
        <pt x="1157" y="1134" on="0"/>
        <pt x="1157" y="1034" on="1"/>
        <pt x="1157" y="943" on="0"/>
        <pt x="1100" y="775" on="0"/>
        <pt x="970" y="646" on="0"/>
        <pt x="760" y="569" on="0"/>
        <pt x="608" y="569" on="1"/>
        <pt x="479" y="569" on="1"/>
        <pt x="479" y="223" on="1"/>
        <pt x="479" y="178" on="0"/>
        <pt x="506" y="123" on="0"/>
        <pt x="552" y="95" on="0"/>
        <pt x="613" y="86" on="0"/>
        <pt x="647" y="86" on="1"/>
        <pt x="715" y="86" on="1"/>
        <pt x="715" y="0" on="1"/>
      </contour>
      <contour>
        <pt x="479" y="666" on="1"/>
        <pt x="588" y="666" on="1"/>
        <pt x="681" y="666" on="0"/>
        <pt x="813" y="705" on="0"/>
        <pt x="897" y="792" on="0"/>
        <pt x="936" y="929" on="0"/>
        <pt x="936" y="1026" on="1"/>
        <pt x="936" y="1112" on="0"/>
        <pt x="902" y="1239" on="0"/>
        <pt x="826" y="1323" on="0"/>
        <pt x="705" y="1364" on="0"/>
        <pt x="618" y="1364" on="1"/>
        <pt x="479" y="1364" on="1"/>
      </contour>
    </TTGlyph>
    <TTGlyph name="Q" xMin="115" yMin="-471" xMax="1403" yMax="1485">
      <contour>
        <pt x="1403" y="733" on="1"/>
        <pt x="1403" y="583" on="0"/>
        <pt x="1337" y="331" on="0"/>
        <pt x="1208" y="139" on="0"/>
        <pt x="1019" y="14" on="0"/>
        <pt x="897" y="-8" on="1"/>
        <pt x="906" y="-113" on="0"/>
        <pt x="956" y="-254" on="0"/>
        <pt x="1034" y="-339" on="0"/>
        <pt x="1138" y="-375" on="0"/>
        <pt x="1200" y="-375" on="1"/>
        <pt x="1233" y="-375" on="1"/>
        <pt x="1233" y="-471" on="1"/>
        <pt x="1145" y="-471" on="1"/>
        <pt x="1064" y="-471" on="0"/>
        <pt x="903" y="-428" on="0"/>
        <pt x="771" y="-323" on="0"/>
        <pt x="682" y="-148" on="0"/>
        <pt x="672" y="-16" on="1"/>
        <pt x="531" y="-1" on="0"/>
        <pt x="322" y="118" on="0"/>
        <pt x="184" y="313" on="0"/>
        <pt x="115" y="576" on="0"/>
        <pt x="115" y="735" on="1"/>
        <pt x="115" y="905" on="0"/>
        <pt x="195" y="1182" on="0"/>
        <pt x="355" y="1378" on="0"/>
        <pt x="599" y="1485" on="0"/>
        <pt x="762" y="1485" on="1"/>
        <pt x="917" y="1485" on="0"/>
        <pt x="1155" y="1378" on="0"/>
        <pt x="1319" y="1181" on="0"/>
        <pt x="1403" y="904" on="0"/>
      </contour>
      <contour>
        <pt x="342" y="733" on="1"/>
        <pt x="342" y="581" on="0"/>
        <pt x="387" y="342" on="0"/>
        <pt x="487" y="177" on="0"/>
        <pt x="646" y="90" on="0"/>
        <pt x="760" y="90" on="1"/>
        <pt x="874" y="90" on="0"/>
        <pt x="1033" y="177" on="0"/>
        <pt x="1132" y="342" on="0"/>
        <pt x="1176" y="581" on="0"/>
        <pt x="1176" y="733" on="1"/>
        <pt x="1176" y="885" on="0"/>
        <pt x="1132" y="1124" on="0"/>
        <pt x="1033" y="1288" on="0"/>
        <pt x="876" y="1374" on="0"/>
        <pt x="762" y="1374" on="1"/>
        <pt x="648" y="1374" on="0"/>
        <pt x="488" y="1288" on="0"/>
        <pt x="387" y="1124" on="0"/>
        <pt x="342" y="885" on="0"/>
      </contour>
    </TTGlyph>
    <TTGlyph name="R" xMin="78" yMin="0" xMax="1356" yMax="1462">
      <contour>
        <pt x="1135" y="250" on="1"/>
        <pt x="1187" y="168" on="0"/>
        <pt x="1285" y="86" on="0"/>
        <pt x="1350" y="86" on="1"/>
        <pt x="1356" y="86" on="1"/>
        <pt x="1356" y="0" on="1"/>
        <pt x="1327" y="0" on="1"/>
        <pt x="1231" y="0" on="0"/>
        <pt x="1108" y="14" on="0"/>
        <pt x="1022" y="54" on="0"/>
        <pt x="961" y="126" on="0"/>
        <pt x="926" y="184" on="1"/>
        <pt x="649" y="645" on="1"/>
        <pt x="479" y="645" on="1"/>
        <pt x="479" y="223" on="1"/>
        <pt x="479" y="178" on="0"/>
        <pt x="506" y="123" on="0"/>
        <pt x="552" y="95" on="0"/>
        <pt x="613" y="86" on="0"/>
        <pt x="647" y="86" on="1"/>
        <pt x="674" y="86" on="1"/>
        <pt x="674" y="0" on="1"/>
        <pt x="78" y="0" on="1"/>
        <pt x="78" y="86" on="1"/>
        <pt x="104" y="86" on="1"/>
        <pt x="138" y="86" on="0"/>
        <pt x="199" y="95" on="0"/>
        <pt x="245" y="123" on="0"/>
        <pt x="272" y="178" on="0"/>
        <pt x="272" y="223" on="1"/>
        <pt x="272" y="1237" on="1"/>
        <pt x="272" y="1282" on="0"/>
        <pt x="245" y="1337" on="0"/>
        <pt x="199" y="1367" on="0"/>
        <pt x="138" y="1376" on="0"/>
        <pt x="104" y="1376" on="1"/>
        <pt x="78" y="1376" on="1"/>
        <pt x="78" y="1462" on="1"/>
        <pt x="629" y="1462" on="1"/>
        <pt x="895" y="1462" on="0"/>
        <pt x="1155" y="1265" on="0"/>
        <pt x="1155" y="1067" on="1"/>
        <pt x="1155" y="985" on="0"/>
        <pt x="1102" y="862" on="0"/>
        <pt x="1016" y="772" on="0"/>
        <pt x="908" y="712" on="0"/>
        <pt x="854" y="694" on="1"/>
      </contour>
      <contour>
        <pt x="479" y="741" on="1"/>
        <pt x="623" y="741" on="1"/>
        <pt x="713" y="741" on="0"/>
        <pt x="833" y="781" on="0"/>
        <pt x="905" y="861" on="0"/>
        <pt x="936" y="981" on="0"/>
        <pt x="936" y="1061" on="1"/>
        <pt x="936" y="1143" on="0"/>
        <pt x="902" y="1258" on="0"/>
        <pt x="826" y="1331" on="0"/>
        <pt x="705" y="1364" on="0"/>
        <pt x="618" y="1364" on="1"/>
        <pt x="479" y="1364" on="1"/>
      </contour>
    </TTGlyph>
    <TTGlyph name="S" xMin="98" yMin="-20" xMax="1010" yMax="1483">
      <contour>
        <pt x="506" y="-20" on="1"/>
        <pt x="406" y="-20" on="0"/>
        <pt x="253" y="22" on="0"/>
        <pt x="150" y="97" on="0"/>
        <pt x="98" y="204" on="0"/>
        <pt x="98" y="268" on="1"/>
        <pt x="98" y="330" on="0"/>
        <pt x="175" y="406" on="0"/>
        <pt x="246" y="406" on="1"/>
        <pt x="249" y="342" on="0"/>
        <pt x="282" y="224" on="0"/>
        <pt x="348" y="134" on="0"/>
        <pt x="450" y="80" on="0"/>
        <pt x="522" y="80" on="1"/>
        <pt x="660" y="80" on="0"/>
        <pt x="815" y="213" on="0"/>
        <pt x="815" y="338" on="1"/>
        <pt x="815" y="394" on="0"/>
        <pt x="783" y="480" on="0"/>
        <pt x="709" y="553" on="0"/>
        <pt x="588" y="620" on="0"/>
        <pt x="498" y="657" on="1"/>
        <pt x="403" y="696" on="0"/>
        <pt x="261" y="785" on="0"/>
        <pt x="167" y="894" on="0"/>
        <pt x="121" y="1028" on="0"/>
        <pt x="121" y="1112" on="1"/>
        <pt x="121" y="1200" on="0"/>
        <pt x="188" y="1338" on="0"/>
        <pt x="308" y="1433" on="0"/>
        <pt x="472" y="1483" on="0"/>
        <pt x="569" y="1483" on="1"/>
        <pt x="661" y="1483" on="0"/>
        <pt x="803" y="1445" on="0"/>
        <pt x="901" y="1381" on="0"/>
        <pt x="952" y="1298" on="0"/>
        <pt x="952" y="1253" on="1"/>
        <pt x="952" y="1187" on="0"/>
        <pt x="865" y="1120" on="0"/>
        <pt x="791" y="1120" on="1"/>
        <pt x="791" y="1168" on="0"/>
        <pt x="768" y="1261" on="0"/>
        <pt x="714" y="1334" on="0"/>
        <pt x="626" y="1380" on="0"/>
        <pt x="561" y="1380" on="1"/>
        <pt x="502" y="1380" on="0"/>
        <pt x="409" y="1347" on="0"/>
        <pt x="345" y="1286" on="0"/>
        <pt x="311" y="1200" on="0"/>
        <pt x="311" y="1147" on="1"/>
        <pt x="311" y="1086" on="0"/>
        <pt x="343" y="993" on="0"/>
        <pt x="418" y="918" on="0"/>
        <pt x="540" y="851" on="0"/>
        <pt x="629" y="815" on="1"/>
        <pt x="719" y="778" on="0"/>
        <pt x="860" y="696" on="0"/>
        <pt x="958" y="595" on="0"/>
        <pt x="1010" y="470" on="0"/>
        <pt x="1010" y="391" on="1"/>
        <pt x="1010" y="294" on="0"/>
        <pt x="939" y="141" on="0"/>
        <pt x="807" y="35" on="0"/>
        <pt x="621" y="-20" on="0"/>
      </contour>
    </TTGlyph>
    <TTGlyph name="T" xMin="41" yMin="0" xMax="1214" yMax="1462">
      <contour>
        <pt x="729" y="233" on="1"/>
        <pt x="729" y="185" on="0"/>
        <pt x="756" y="127" on="0"/>
        <pt x="801" y="96" on="0"/>
        <pt x="863" y="86" on="0"/>
        <pt x="897" y="86" on="1"/>
        <pt x="944" y="86" on="1"/>
        <pt x="944" y="0" on="1"/>
        <pt x="307" y="0" on="1"/>
        <pt x="307" y="86" on="1"/>
        <pt x="354" y="86" on="1"/>
        <pt x="388" y="86" on="0"/>
        <pt x="449" y="95" on="0"/>
        <pt x="495" y="123" on="0"/>
        <pt x="522" y="178" on="0"/>
        <pt x="522" y="223" on="1"/>
        <pt x="522" y="1360" on="1"/>
        <pt x="326" y="1360" on="1"/>
        <pt x="281" y="1360" on="0"/>
        <pt x="220" y="1333" on="0"/>
        <pt x="181" y="1287" on="0"/>
        <pt x="162" y="1226" on="0"/>
        <pt x="158" y="1192" on="1"/>
        <pt x="147" y="1104" on="1"/>
        <pt x="41" y="1104" on="1"/>
        <pt x="51" y="1462" on="1"/>
        <pt x="1204" y="1462" on="1"/>
        <pt x="1214" y="1104" on="1"/>
        <pt x="1108" y="1104" on="1"/>
        <pt x="1098" y="1192" on="1"/>
        <pt x="1094" y="1226" on="0"/>
        <pt x="1074" y="1287" on="0"/>
        <pt x="1036" y="1333" on="0"/>
        <pt x="974" y="1360" on="0"/>
        <pt x="928" y="1360" on="1"/>
        <pt x="729" y="1360" on="1"/>
      </contour>
    </TTGlyph>
    <TTGlyph name="Thorn" xMin="78" yMin="0" xMax="1157" yMax="1462">
      <contour>
        <pt x="78" y="0" on="1"/>
        <pt x="78" y="86" on="1"/>
        <pt x="104" y="86" on="1"/>
        <pt x="139" y="86" on="0"/>
        <pt x="200" y="96" on="0"/>
        <pt x="246" y="127" on="0"/>
        <pt x="272" y="185" on="0"/>
        <pt x="272" y="233" on="1"/>
        <pt x="272" y="1229" on="1"/>
        <pt x="272" y="1277" on="0"/>
        <pt x="246" y="1335" on="0"/>
        <pt x="200" y="1366" on="0"/>
        <pt x="139" y="1376" on="0"/>
        <pt x="104" y="1376" on="1"/>
        <pt x="78" y="1376" on="1"/>
        <pt x="78" y="1462" on="1"/>
        <pt x="694" y="1462" on="1"/>
        <pt x="694" y="1376" on="1"/>
        <pt x="647" y="1376" on="1"/>
        <pt x="613" y="1376" on="0"/>
        <pt x="551" y="1366" on="0"/>
        <pt x="506" y="1335" on="0"/>
        <pt x="479" y="1277" on="0"/>
        <pt x="479" y="1229" on="1"/>
        <pt x="479" y="1167" on="1"/>
        <pt x="653" y="1167" on="1"/>
        <pt x="911" y="1167" on="0"/>
        <pt x="1157" y="960" on="0"/>
        <pt x="1157" y="760" on="1"/>
        <pt x="1157" y="669" on="0"/>
        <pt x="1100" y="507" on="0"/>
        <pt x="970" y="385" on="0"/>
        <pt x="760" y="315" on="0"/>
        <pt x="608" y="315" on="1"/>
        <pt x="479" y="315" on="1"/>
        <pt x="479" y="233" on="1"/>
        <pt x="479" y="185" on="0"/>
        <pt x="506" y="127" on="0"/>
        <pt x="551" y="96" on="0"/>
        <pt x="613" y="86" on="0"/>
        <pt x="647" y="86" on="1"/>
        <pt x="694" y="86" on="1"/>
        <pt x="694" y="0" on="1"/>
      </contour>
      <contour>
        <pt x="479" y="412" on="1"/>
        <pt x="588" y="412" on="1"/>
        <pt x="681" y="412" on="0"/>
        <pt x="813" y="445" on="0"/>
        <pt x="897" y="524" on="0"/>
        <pt x="936" y="655" on="0"/>
        <pt x="936" y="752" on="1"/>
        <pt x="936" y="838" on="0"/>
        <pt x="902" y="958" on="0"/>
        <pt x="826" y="1034" on="0"/>
        <pt x="705" y="1069" on="0"/>
        <pt x="618" y="1069" on="1"/>
        <pt x="479" y="1069" on="1"/>
      </contour>
    </TTGlyph>
    <TTGlyph name="U" xMin="31" yMin="-20" xMax="1438" yMax="1462">
      <contour>
        <pt x="741" y="-20" on="1"/>
        <pt x="620" y="-20" on="0"/>
        <pt x="428" y="31" on="0"/>
        <pt x="295" y="142" on="0"/>
        <pt x="225" y="317" on="0"/>
        <pt x="225" y="442" on="1"/>
        <pt x="225" y="1237" on="1"/>
        <pt x="225" y="1282" on="0"/>
        <pt x="198" y="1337" on="0"/>
        <pt x="152" y="1367" on="0"/>
        <pt x="91" y="1376" on="0"/>
        <pt x="57" y="1376" on="1"/>
        <pt x="31" y="1376" on="1"/>
        <pt x="31" y="1462" on="1"/>
        <pt x="627" y="1462" on="1"/>
        <pt x="627" y="1376" on="1"/>
        <pt x="600" y="1376" on="1"/>
        <pt x="566" y="1376" on="0"/>
        <pt x="504" y="1366" on="0"/>
        <pt x="459" y="1335" on="0"/>
        <pt x="432" y="1277" on="0"/>
        <pt x="432" y="1229" on="1"/>
        <pt x="432" y="430" on="1"/>
        <pt x="432" y="341" on="0"/>
        <pt x="483" y="216" on="0"/>
        <pt x="574" y="138" on="0"/>
        <pt x="699" y="102" on="0"/>
        <pt x="774" y="102" on="1"/>
        <pt x="863" y="102" on="0"/>
        <pt x="992" y="150" on="0"/>
        <pt x="1077" y="235" on="0"/>
        <pt x="1118" y="352" on="0"/>
        <pt x="1118" y="422" on="1"/>
        <pt x="1118" y="1237" on="1"/>
        <pt x="1118" y="1282" on="0"/>
        <pt x="1091" y="1337" on="0"/>
        <pt x="1045" y="1367" on="0"/>
        <pt x="984" y="1376" on="0"/>
        <pt x="950" y="1376" on="1"/>
        <pt x="924" y="1376" on="1"/>
        <pt x="924" y="1462" on="1"/>
        <pt x="1438" y="1462" on="1"/>
        <pt x="1438" y="1376" on="1"/>
        <pt x="1411" y="1376" on="1"/>
        <pt x="1377" y="1376" on="0"/>
        <pt x="1315" y="1366" on="0"/>
        <pt x="1270" y="1335" on="0"/>
        <pt x="1243" y="1277" on="0"/>
        <pt x="1243" y="1229" on="1"/>
        <pt x="1243" y="418" on="1"/>
        <pt x="1243" y="316" on="0"/>
        <pt x="1178" y="153" on="0"/>
        <pt x="1051" y="40" on="0"/>
        <pt x="863" y="-20" on="0"/>
      </contour>
    </TTGlyph>
    <TTGlyph name="Uacute" xMin="31" yMin="-20" xMax="1438" yMax="1907">
      <component glyphName="U" x="0" y="0" flags="0x1204"/>
      <component glyphName="acute" x="258" y="338" flags="0x1004"/>
    </TTGlyph>
    <TTGlyph name="Ucircumflex" xMin="31" yMin="-20" xMax="1438" yMax="1907">
      <component glyphName="U" x="0" y="0" flags="0x1204"/>
      <component glyphName="circumflex" x="182" y="338" flags="0x1004"/>
    </TTGlyph>
    <TTGlyph name="Udieresis" xMin="31" yMin="-20" xMax="1438" yMax="1862">
      <component glyphName="U" x="0" y="0" flags="0x1204"/>
      <component glyphName="dieresis" x="186" y="338" flags="0x1004"/>
    </TTGlyph>
    <TTGlyph name="Ugrave" xMin="31" yMin="-20" xMax="1438" yMax="1907">
      <component glyphName="U" x="0" y="0" flags="0x1204"/>
      <component glyphName="grave" x="61" y="338" flags="0x1004"/>
    </TTGlyph>
    <TTGlyph name="V" xMin="0" yMin="0" xMax="1382" yMax="1462">
      <contour>
        <pt x="614" y="0" on="1"/>
        <pt x="172" y="1268" on="1"/>
        <pt x="161" y="1300" on="0"/>
        <pt x="135" y="1342" on="0"/>
        <pt x="101" y="1366" on="0"/>
        <pt x="57" y="1376" on="0"/>
        <pt x="27" y="1376" on="1"/>
        <pt x="0" y="1376" on="1"/>
        <pt x="0" y="1462" on="1"/>
        <pt x="563" y="1462" on="1"/>
        <pt x="563" y="1376" on="1"/>
        <pt x="516" y="1376" on="1"/>
        <pt x="454" y="1376" on="0"/>
        <pt x="393" y="1329" on="0"/>
        <pt x="393" y="1278" on="1"/>
        <pt x="393" y="1261" on="0"/>
        <pt x="402" y="1225" on="0"/>
        <pt x="410" y="1202" on="1"/>
        <pt x="635" y="537" on="1"/>
        <pt x="666" y="446" on="0"/>
        <pt x="710" y="275" on="0"/>
        <pt x="727" y="201" on="1"/>
        <pt x="743" y="275" on="0"/>
        <pt x="787" y="441" on="0"/>
        <pt x="821" y="537" on="1"/>
        <pt x="1047" y="1188" on="1"/>
        <pt x="1055" y="1213" on="0"/>
        <pt x="1065" y="1259" on="0"/>
        <pt x="1065" y="1276" on="1"/>
        <pt x="1065" y="1329" on="0"/>
        <pt x="998" y="1376" on="0"/>
        <pt x="930" y="1376" on="1"/>
        <pt x="883" y="1376" on="1"/>
        <pt x="883" y="1462" on="1"/>
        <pt x="1382" y="1462" on="1"/>
        <pt x="1382" y="1376" on="1"/>
        <pt x="1343" y="1376" on="1"/>
        <pt x="1313" y="1376" on="0"/>
        <pt x="1270" y="1364" on="0"/>
        <pt x="1235" y="1329" on="0"/>
        <pt x="1205" y="1267" on="0"/>
        <pt x="1188" y="1217" on="1"/>
        <pt x="764" y="0" on="1"/>
      </contour>
    </TTGlyph>
    <TTGlyph name="W" xMin="18" yMin="0" xMax="2126" yMax="1462">
      <contour>
        <pt x="1180" y="1448" on="1"/>
        <pt x="1436" y="561" on="1"/>
        <pt x="1465" y="459" on="0"/>
        <pt x="1510" y="272" on="0"/>
        <pt x="1524" y="201" on="1"/>
        <pt x="1539" y="275" on="0"/>
        <pt x="1578" y="438" on="0"/>
        <pt x="1606" y="537" on="1"/>
        <pt x="1786" y="1169" on="1"/>
        <pt x="1789" y="1181" on="0"/>
        <pt x="1797" y="1211" on="0"/>
        <pt x="1803" y="1241" on="0"/>
        <pt x="1808" y="1267" on="0"/>
        <pt x="1808" y="1276" on="1"/>
        <pt x="1808" y="1329" on="0"/>
        <pt x="1741" y="1376" on="0"/>
        <pt x="1673" y="1376" on="1"/>
        <pt x="1626" y="1376" on="1"/>
        <pt x="1626" y="1462" on="1"/>
        <pt x="2126" y="1462" on="1"/>
        <pt x="2126" y="1376" on="1"/>
        <pt x="2087" y="1376" on="1"/>
        <pt x="2057" y="1376" on="0"/>
        <pt x="2012" y="1364" on="0"/>
        <pt x="1976" y="1330" on="0"/>
        <pt x="1946" y="1268" on="0"/>
        <pt x="1931" y="1217" on="1"/>
        <pt x="1585" y="0" on="1"/>
        <pt x="1401" y="0" on="1"/>
        <pt x="1067" y="1147" on="1"/>
        <pt x="754" y="0" on="1"/>
        <pt x="565" y="0" on="1"/>
        <pt x="190" y="1268" on="1"/>
        <pt x="180" y="1300" on="0"/>
        <pt x="155" y="1342" on="0"/>
        <pt x="121" y="1366" on="0"/>
        <pt x="75" y="1376" on="0"/>
        <pt x="45" y="1376" on="1"/>
        <pt x="18" y="1376" on="1"/>
        <pt x="18" y="1462" on="1"/>
        <pt x="582" y="1462" on="1"/>
        <pt x="582" y="1376" on="1"/>
        <pt x="535" y="1376" on="1"/>
        <pt x="473" y="1376" on="0"/>
        <pt x="412" y="1329" on="0"/>
        <pt x="412" y="1278" on="1"/>
        <pt x="412" y="1261" on="0"/>
        <pt x="422" y="1225" on="0"/>
        <pt x="428" y="1202" on="1"/>
        <pt x="616" y="547" on="1"/>
        <pt x="642" y="454" on="0"/>
        <pt x="688" y="275" on="0"/>
        <pt x="705" y="201" on="1"/>
        <pt x="720" y="281" on="0"/>
        <pt x="761" y="470" on="0"/>
        <pt x="788" y="569" on="1"/>
        <pt x="1032" y="1448" on="1"/>
      </contour>
    </TTGlyph>
    <TTGlyph name="X" xMin="16" yMin="0" xMax="1335" yMax="1462">
      <contour>
        <pt x="954" y="1317" on="1"/>
        <pt x="954" y="1335" on="0"/>
        <pt x="937" y="1358" on="0"/>
        <pt x="908" y="1371" on="0"/>
        <pt x="868" y="1376" on="0"/>
        <pt x="844" y="1376" on="1"/>
        <pt x="838" y="1376" on="1"/>
        <pt x="838" y="1462" on="1"/>
        <pt x="1286" y="1462" on="1"/>
        <pt x="1286" y="1376" on="1"/>
        <pt x="1268" y="1376" on="1"/>
        <pt x="1238" y="1376" on="0"/>
        <pt x="1189" y="1362" on="0"/>
        <pt x="1143" y="1327" on="0"/>
        <pt x="1094" y="1271" on="0"/>
        <pt x="1065" y="1229" on="1"/>
        <pt x="768" y="801" on="1"/>
        <pt x="1145" y="195" on="1"/>
        <pt x="1190" y="135" on="0"/>
        <pt x="1270" y="86" on="0"/>
        <pt x="1309" y="86" on="1"/>
        <pt x="1335" y="86" on="1"/>
        <pt x="1335" y="0" on="1"/>
        <pt x="782" y="0" on="1"/>
        <pt x="782" y="86" on="1"/>
        <pt x="793" y="86" on="1"/>
        <pt x="915" y="86" on="0"/>
        <pt x="915" y="154" on="1"/>
        <pt x="915" y="165" on="0"/>
        <pt x="910" y="187" on="0"/>
        <pt x="896" y="217" on="0"/>
        <pt x="869" y="261" on="0"/>
        <pt x="848" y="295" on="1"/>
        <pt x="645" y="621" on="1"/>
        <pt x="418" y="285" on="1"/>
        <pt x="409" y="272" on="0"/>
        <pt x="391" y="239" on="0"/>
        <pt x="375" y="203" on="0"/>
        <pt x="365" y="166" on="0"/>
        <pt x="365" y="150" on="1"/>
        <pt x="365" y="115" on="0"/>
        <pt x="430" y="86" on="0"/>
        <pt x="498" y="86" on="1"/>
        <pt x="504" y="86" on="1"/>
        <pt x="504" y="0" on="1"/>
        <pt x="16" y="0" on="1"/>
        <pt x="16" y="86" on="1"/>
        <pt x="29" y="86" on="1"/>
        <pt x="66" y="86" on="0"/>
        <pt x="121" y="101" on="0"/>
        <pt x="168" y="135" on="0"/>
        <pt x="214" y="189" on="0"/>
        <pt x="242" y="229" on="1"/>
        <pt x="584" y="719" on="1"/>
        <pt x="246" y="1268" on="1"/>
        <pt x="209" y="1327" on="0"/>
        <pt x="116" y="1376" on="0"/>
        <pt x="70" y="1376" on="1"/>
        <pt x="43" y="1376" on="1"/>
        <pt x="43" y="1462" on="1"/>
        <pt x="598" y="1462" on="1"/>
        <pt x="598" y="1376" on="1"/>
        <pt x="592" y="1376" on="1"/>
        <pt x="557" y="1376" on="0"/>
        <pt x="511" y="1367" on="0"/>
        <pt x="485" y="1351" on="0"/>
        <pt x="475" y="1329" on="0"/>
        <pt x="475" y="1317" on="1"/>
        <pt x="475" y="1306" on="0"/>
        <pt x="478" y="1286" on="0"/>
        <pt x="488" y="1259" on="0"/>
        <pt x="507" y="1223" on="0"/>
        <pt x="524" y="1196" on="1"/>
        <pt x="709" y="897" on="1"/>
        <pt x="903" y="1192" on="1"/>
        <pt x="926" y="1227" on="0"/>
        <pt x="954" y="1289" on="0"/>
      </contour>
    </TTGlyph>
    <TTGlyph name="Y" xMin="-10" yMin="0" xMax="1286" yMax="1462">
      <contour>
        <pt x="326" y="0" on="1"/>
        <pt x="326" y="86" on="1"/>
        <pt x="373" y="86" on="1"/>
        <pt x="407" y="86" on="0"/>
        <pt x="468" y="95" on="0"/>
        <pt x="514" y="123" on="0"/>
        <pt x="541" y="178" on="0"/>
        <pt x="541" y="223" on="1"/>
        <pt x="541" y="610" on="1"/>
        <pt x="162" y="1268" on="1"/>
        <pt x="145" y="1297" on="0"/>
        <pt x="115" y="1338" on="0"/>
        <pt x="82" y="1364" on="0"/>
        <pt x="42" y="1376" on="0"/>
        <pt x="16" y="1376" on="1"/>
        <pt x="-10" y="1376" on="1"/>
        <pt x="-10" y="1462" on="1"/>
        <pt x="553" y="1462" on="1"/>
        <pt x="553" y="1376" on="1"/>
        <pt x="477" y="1376" on="1"/>
        <pt x="449" y="1376" on="0"/>
        <pt x="414" y="1366" on="0"/>
        <pt x="394" y="1348" on="0"/>
        <pt x="387" y="1324" on="0"/>
        <pt x="387" y="1311" on="1"/>
        <pt x="387" y="1282" on="0"/>
        <pt x="412" y="1224" on="0"/>
        <pt x="424" y="1202" on="1"/>
        <pt x="575" y="928" on="1"/>
        <pt x="611" y="865" on="0"/>
        <pt x="661" y="742" on="0"/>
        <pt x="678" y="694" on="1"/>
        <pt x="687" y="716" on="0"/>
        <pt x="714" y="770" on="0"/>
        <pt x="747" y="831" on="0"/>
        <pt x="783" y="896" on="0"/>
        <pt x="801" y="928" on="1"/>
        <pt x="932" y="1163" on="1"/>
        <pt x="952" y="1198" on="0"/>
        <pt x="969" y="1261" on="0"/>
        <pt x="969" y="1286" on="1"/>
        <pt x="969" y="1331" on="0"/>
        <pt x="905" y="1376" on="0"/>
        <pt x="846" y="1376" on="1"/>
        <pt x="786" y="1376" on="1"/>
        <pt x="786" y="1462" on="1"/>
        <pt x="1286" y="1462" on="1"/>
        <pt x="1286" y="1376" on="1"/>
        <pt x="1262" y="1376" on="1"/>
        <pt x="1240" y="1376" on="0"/>
        <pt x="1201" y="1361" on="0"/>
        <pt x="1161" y="1324" on="0"/>
        <pt x="1118" y="1263" on="0"/>
        <pt x="1092" y="1217" on="1"/>
        <pt x="748" y="610" on="1"/>
        <pt x="748" y="233" on="1"/>
        <pt x="748" y="185" on="0"/>
        <pt x="774" y="127" on="0"/>
        <pt x="820" y="96" on="0"/>
        <pt x="881" y="86" on="0"/>
        <pt x="915" y="86" on="1"/>
        <pt x="963" y="86" on="1"/>
        <pt x="963" y="0" on="1"/>
      </contour>
    </TTGlyph>
    <TTGlyph name="Yacute" xMin="-10" yMin="0" xMax="1286" yMax="1907">
      <component glyphName="Y" x="0" y="0" flags="0x1204"/>
      <component glyphName="acute" x="176" y="338" flags="0x1004"/>
    </TTGlyph>
    <TTGlyph name="Z" xMin="74" yMin="0" xMax="1126" yMax="1462">
      <contour>
        <pt x="1094" y="1378" on="1"/>
        <pt x="324" y="102" on="1"/>
        <pt x="840" y="102" on="1"/>
        <pt x="886" y="102" on="0"/>
        <pt x="948" y="129" on="0"/>
        <pt x="986" y="175" on="0"/>
        <pt x="1006" y="236" on="0"/>
        <pt x="1010" y="270" on="1"/>
        <pt x="1020" y="358" on="1"/>
        <pt x="1126" y="358" on="1"/>
        <pt x="1116" y="0" on="1"/>
        <pt x="74" y="0" on="1"/>
        <pt x="74" y="82" on="1"/>
        <pt x="842" y="1360" on="1"/>
        <pt x="397" y="1360" on="1"/>
        <pt x="352" y="1360" on="0"/>
        <pt x="291" y="1333" on="0"/>
        <pt x="253" y="1287" on="0"/>
        <pt x="233" y="1226" on="0"/>
        <pt x="229" y="1192" on="1"/>
        <pt x="219" y="1104" on="1"/>
        <pt x="113" y="1104" on="1"/>
        <pt x="123" y="1462" on="1"/>
        <pt x="1094" y="1462" on="1"/>
      </contour>
    </TTGlyph>
    <TTGlyph name="a" xMin="102" yMin="-20" xMax="1065" yMax="1118">
      <contour>
        <pt x="301" y="297" on="1"/>
        <pt x="301" y="201" on="0"/>
        <pt x="382" y="106" on="0"/>
        <pt x="467" y="106" on="1"/>
        <pt x="529" y="106" on="0"/>
        <pt x="630" y="146" on="0"/>
        <pt x="701" y="220" on="0"/>
        <pt x="739" y="326" on="0"/>
        <pt x="739" y="391" on="1"/>
        <pt x="739" y="557" on="1"/>
        <pt x="608" y="551" on="1"/>
        <pt x="521" y="547" on="0"/>
        <pt x="404" y="512" on="0"/>
        <pt x="332" y="449" on="0"/>
        <pt x="301" y="357" on="0"/>
      </contour>
      <contour>
        <pt x="549" y="1016" on="1"/>
        <pt x="490" y="1016" on="0"/>
        <pt x="417" y="983" on="0"/>
        <pt x="376" y="923" on="0"/>
        <pt x="362" y="841" on="0"/>
        <pt x="362" y="793" on="1"/>
        <pt x="277" y="793" on="0"/>
        <pt x="188" y="851" on="0"/>
        <pt x="188" y="922" on="1"/>
        <pt x="188" y="975" on="0"/>
        <pt x="246" y="1049" on="0"/>
        <pt x="347" y="1096" on="0"/>
        <pt x="481" y="1118" on="0"/>
        <pt x="557" y="1118" on="1"/>
        <pt x="651" y="1118" on="0"/>
        <pt x="791" y="1081" on="0"/>
        <pt x="885" y="997" on="0"/>
        <pt x="932" y="862" on="0"/>
        <pt x="932" y="764" on="1"/>
        <pt x="932" y="233" on="1"/>
        <pt x="932" y="190" on="0"/>
        <pt x="946" y="134" on="0"/>
        <pt x="976" y="100" on="0"/>
        <pt x="1025" y="86" on="0"/>
        <pt x="1059" y="86" on="1"/>
        <pt x="1065" y="86" on="1"/>
        <pt x="1065" y="0" on="1"/>
        <pt x="788" y="0" on="1"/>
        <pt x="756" y="176" on="1"/>
        <pt x="739" y="176" on="1"/>
        <pt x="707" y="133" on="0"/>
        <pt x="647" y="61" on="0"/>
        <pt x="575" y="9" on="0"/>
        <pt x="484" y="-20" on="0"/>
        <pt x="420" y="-20" on="1"/>
        <pt x="352" y="-20" on="0"/>
        <pt x="235" y="19" on="0"/>
        <pt x="150" y="100" on="0"/>
        <pt x="102" y="223" on="0"/>
        <pt x="102" y="307" on="1"/>
        <pt x="102" y="470" on="0"/>
        <pt x="334" y="628" on="0"/>
        <pt x="569" y="635" on="1"/>
        <pt x="739" y="641" on="1"/>
        <pt x="739" y="764" on="1"/>
        <pt x="739" y="819" on="0"/>
        <pt x="727" y="912" on="0"/>
        <pt x="687" y="979" on="0"/>
        <pt x="612" y="1016" on="0"/>
      </contour>
    </TTGlyph>
    <TTGlyph name="aacute" xMin="102" yMin="-20" xMax="1065" yMax="1569">
      <component glyphName="a" x="0" y="0" flags="0x1204"/>
      <component glyphName="acute" x="80" y="0" flags="0x1004"/>
    </TTGlyph>
    <TTGlyph name="acircumflex" xMin="102" yMin="-20" xMax="1065" yMax="1569">
      <component glyphName="a" x="0" y="0" flags="0x1204"/>
      <component glyphName="circumflex" x="-28" y="0" flags="0x1004"/>
    </TTGlyph>
    <TTGlyph name="acute" xMin="391" yMin="1241" xMax="788" yMax="1569">
      <contour>
        <pt x="391" y="1268" on="1"/>
        <pt x="414" y="1297" on="0"/>
        <pt x="463" y="1373" on="0"/>
        <pt x="510" y="1454" on="0"/>
        <pt x="553" y="1535" on="0"/>
        <pt x="569" y="1569" on="1"/>
        <pt x="788" y="1569" on="1"/>
        <pt x="788" y="1548" on="1"/>
        <pt x="769" y="1521" on="0"/>
        <pt x="695" y="1440" on="0"/>
        <pt x="605" y="1352" on="0"/>
        <pt x="510" y="1269" on="0"/>
        <pt x="469" y="1241" on="1"/>
        <pt x="391" y="1241" on="1"/>
      </contour>
    </TTGlyph>
    <TTGlyph name="adieresis" xMin="102" yMin="-20" xMax="1065" yMax="1524">
      <component glyphName="a" x="0" y="0" flags="0x1204"/>
      <component glyphName="dieresis" x="-34" y="0" flags="0x1004"/>
    </TTGlyph>
    <TTGlyph name="ae" xMin="102" yMin="-20" xMax="1620" yMax="1118">
      <contour>
        <pt x="301" y="297" on="1"/>
        <pt x="301" y="201" on="0"/>
        <pt x="382" y="106" on="0"/>
        <pt x="467" y="106" on="1"/>
        <pt x="529" y="106" on="0"/>
        <pt x="630" y="146" on="0"/>
        <pt x="701" y="220" on="0"/>
        <pt x="739" y="326" on="0"/>
        <pt x="739" y="391" on="1"/>
        <pt x="739" y="514" on="1"/>
        <pt x="739" y="541" on="1"/>
        <pt x="739" y="557" on="1"/>
        <pt x="608" y="551" on="1"/>
        <pt x="521" y="547" on="0"/>
        <pt x="404" y="512" on="0"/>
        <pt x="332" y="449" on="0"/>
        <pt x="301" y="357" on="0"/>
      </contour>
      <contour>
        <pt x="1190" y="1008" on="1"/>
        <pt x="1075" y="1008" on="0"/>
        <pt x="953" y="823" on="0"/>
        <pt x="942" y="645" on="1"/>
        <pt x="1413" y="645" on="1"/>
        <pt x="1413" y="726" on="0"/>
        <pt x="1389" y="860" on="0"/>
        <pt x="1337" y="956" on="0"/>
        <pt x="1252" y="1008" on="0"/>
      </contour>
      <contour>
        <pt x="1221" y="-20" on="1"/>
        <pt x="1071" y="-20" on="0"/>
        <pt x="862" y="98" on="0"/>
        <pt x="805" y="213" on="1"/>
        <pt x="786" y="167" on="0"/>
        <pt x="718" y="83" on="0"/>
        <pt x="621" y="18" on="0"/>
        <pt x="496" y="-20" on="0"/>
        <pt x="420" y="-20" on="1"/>
        <pt x="352" y="-20" on="0"/>
        <pt x="235" y="19" on="0"/>
        <pt x="150" y="100" on="0"/>
        <pt x="102" y="223" on="0"/>
        <pt x="102" y="307" on="1"/>
        <pt x="102" y="470" on="0"/>
        <pt x="334" y="628" on="0"/>
        <pt x="569" y="635" on="1"/>
        <pt x="739" y="641" on="1"/>
        <pt x="739" y="764" on="1"/>
        <pt x="739" y="819" on="0"/>
        <pt x="727" y="912" on="0"/>
        <pt x="687" y="979" on="0"/>
        <pt x="612" y="1016" on="0"/>
        <pt x="549" y="1016" on="1"/>
        <pt x="490" y="1016" on="0"/>
        <pt x="417" y="983" on="0"/>
        <pt x="376" y="923" on="0"/>
        <pt x="362" y="841" on="0"/>
        <pt x="362" y="793" on="1"/>
        <pt x="277" y="793" on="0"/>
        <pt x="188" y="851" on="0"/>
        <pt x="188" y="922" on="1"/>
        <pt x="188" y="975" on="0"/>
        <pt x="246" y="1049" on="0"/>
        <pt x="347" y="1096" on="0"/>
        <pt x="481" y="1118" on="0"/>
        <pt x="557" y="1118" on="1"/>
        <pt x="673" y="1118" on="0"/>
        <pt x="832" y="1059" on="0"/>
        <pt x="877" y="993" on="1"/>
        <pt x="991" y="1118" on="0"/>
        <pt x="1194" y="1118" on="1"/>
        <pt x="1293" y="1118" on="0"/>
        <pt x="1451" y="1056" on="0"/>
        <pt x="1561" y="933" on="0"/>
        <pt x="1620" y="750" on="0"/>
        <pt x="1620" y="629" on="1"/>
        <pt x="1620" y="535" on="1"/>
        <pt x="938" y="535" on="1"/>
        <pt x="940" y="423" on="0"/>
        <pt x="979" y="262" on="0"/>
        <pt x="1056" y="158" on="0"/>
        <pt x="1174" y="109" on="0"/>
        <pt x="1255" y="109" on="1"/>
        <pt x="1300" y="109" on="0"/>
        <pt x="1384" y="131" on="0"/>
        <pt x="1457" y="170" on="0"/>
        <pt x="1516" y="222" on="0"/>
        <pt x="1536" y="252" on="1"/>
        <pt x="1550" y="246" on="0"/>
        <pt x="1575" y="208" on="0"/>
        <pt x="1575" y="182" on="1"/>
        <pt x="1575" y="151" on="0"/>
        <pt x="1531" y="80" on="0"/>
        <pt x="1443" y="20" on="0"/>
        <pt x="1310" y="-20" on="0"/>
      </contour>
    </TTGlyph>
    <TTGlyph name="agrave" xMin="102" yMin="-20" xMax="1065" yMax="1569">
      <component glyphName="a" x="0" y="0" flags="0x1204"/>
      <component glyphName="grave" x="-124" y="0" flags="0x1004"/>
    </TTGlyph>
    <TTGlyph name="ampersand" xMin="74" yMin="-20" xMax="1501" yMax="1483">
      <contour>
        <pt x="1174" y="0" on="1"/>
        <pt x="1004" y="180" on="1"/>
        <pt x="967" y="138" on="0"/>
        <pt x="878" y="65" on="0"/>
        <pt x="770" y="11" on="0"/>
        <pt x="639" y="-20" on="0"/>
        <pt x="561" y="-20" on="1"/>
        <pt x="438" y="-20" on="0"/>
        <pt x="255" y="42" on="0"/>
        <pt x="134" y="155" on="0"/>
        <pt x="74" y="313" on="0"/>
        <pt x="74" y="410" on="1"/>
        <pt x="74" y="497" on="0"/>
        <pt x="121" y="626" on="0"/>
        <pt x="206" y="724" on="0"/>
        <pt x="327" y="798" on="0"/>
        <pt x="401" y="829" on="1"/>
        <pt x="362" y="875" on="0"/>
        <pt x="303" y="960" on="0"/>
        <pt x="264" y="1044" on="0"/>
        <pt x="244" y="1132" on="0"/>
        <pt x="244" y="1182" on="1"/>
        <pt x="244" y="1250" on="0"/>
        <pt x="288" y="1360" on="0"/>
        <pt x="382" y="1440" on="0"/>
        <pt x="529" y="1483" on="0"/>
        <pt x="631" y="1483" on="1"/>
        <pt x="729" y="1483" on="0"/>
        <pt x="867" y="1437" on="0"/>
        <pt x="954" y="1357" on="0"/>
        <pt x="993" y="1251" on="0"/>
        <pt x="993" y="1192" on="1"/>
        <pt x="993" y="1126" on="0"/>
        <pt x="955" y="1024" on="0"/>
        <pt x="872" y="938" on="0"/>
        <pt x="741" y="861" on="0"/>
        <pt x="647" y="821" on="1"/>
        <pt x="1020" y="426" on="1"/>
        <pt x="1034" y="472" on="0"/>
        <pt x="1052" y="567" on="0"/>
        <pt x="1063" y="658" on="0"/>
        <pt x="1067" y="745" on="0"/>
        <pt x="1067" y="782" on="1"/>
        <pt x="1067" y="862" on="1"/>
        <pt x="1436" y="862" on="1"/>
        <pt x="1436" y="776" on="1"/>
        <pt x="1417" y="776" on="1"/>
        <pt x="1383" y="776" on="0"/>
        <pt x="1317" y="768" on="0"/>
        <pt x="1260" y="739" on="0"/>
        <pt x="1215" y="684" on="0"/>
        <pt x="1202" y="637" on="1"/>
        <pt x="1184" y="571" on="0"/>
        <pt x="1137" y="417" on="0"/>
        <pt x="1102" y="340" on="1"/>
        <pt x="1292" y="137" on="1"/>
        <pt x="1307" y="122" on="0"/>
        <pt x="1339" y="102" on="0"/>
        <pt x="1382" y="90" on="0"/>
        <pt x="1441" y="86" on="0"/>
        <pt x="1483" y="86" on="1"/>
        <pt x="1501" y="86" on="1"/>
        <pt x="1501" y="0" on="1"/>
      </contour>
      <contour>
        <pt x="580" y="94" on="1"/>
        <pt x="640" y="94" on="0"/>
        <pt x="743" y="119" on="0"/>
        <pt x="829" y="163" on="0"/>
        <pt x="901" y="224" on="0"/>
        <pt x="930" y="260" on="1"/>
        <pt x="477" y="745" on="1"/>
        <pt x="430" y="719" on="0"/>
        <pt x="355" y="656" on="0"/>
        <pt x="302" y="573" on="0"/>
        <pt x="274" y="469" on="0"/>
        <pt x="274" y="403" on="1"/>
        <pt x="274" y="328" on="0"/>
        <pt x="318" y="213" on="0"/>
        <pt x="399" y="134" on="0"/>
        <pt x="511" y="94" on="0"/>
      </contour>
      <contour>
        <pt x="813" y="1190" on="1"/>
        <pt x="813" y="1231" on="0"/>
        <pt x="793" y="1301" on="0"/>
        <pt x="748" y="1352" on="0"/>
        <pt x="675" y="1382" on="0"/>
        <pt x="623" y="1382" on="1"/>
        <pt x="532" y="1382" on="0"/>
        <pt x="434" y="1276" on="0"/>
        <pt x="434" y="1188" on="1"/>
        <pt x="434" y="1149" on="0"/>
        <pt x="450" y="1081" on="0"/>
        <pt x="485" y="1014" on="0"/>
        <pt x="539" y="942" on="0"/>
        <pt x="578" y="899" on="1"/>
        <pt x="638" y="925" on="0"/>
        <pt x="727" y="983" on="0"/>
        <pt x="785" y="1052" on="0"/>
        <pt x="813" y="1136" on="0"/>
      </contour>
    </TTGlyph>
    <TTGlyph name="aring" xMin="102" yMin="-20" xMax="1065" yMax="1667">
      <component glyphName="a" x="0" y="0" flags="0x1204"/>
      <component glyphName="ring" x="233" y="0" flags="0x1004"/>
    </TTGlyph>
    <TTGlyph name="asciicircum" xMin="104" yMin="545" xMax="1038" yMax="1462">
      <contour>
        <pt x="535" y="1462" on="1"/>
        <pt x="606" y="1462" on="1"/>
        <pt x="1038" y="545" on="1"/>
        <pt x="901" y="545" on="1"/>
        <pt x="569" y="1274" on="1"/>
        <pt x="242" y="545" on="1"/>
        <pt x="104" y="545" on="1"/>
      </contour>
    </TTGlyph>
    <TTGlyph name="asciitilde" xMin="113" yMin="551" xMax="1034" yMax="909">
      <contour>
        <pt x="776" y="551" on="1"/>
        <pt x="746" y="551" on="0"/>
        <pt x="682" y="576" on="0"/>
        <pt x="619" y="614" on="0"/>
        <pt x="562" y="659" on="0"/>
        <pt x="539" y="680" on="1"/>
        <pt x="516" y="701" on="0"/>
        <pt x="472" y="740" on="0"/>
        <pt x="429" y="770" on="0"/>
        <pt x="385" y="788" on="0"/>
        <pt x="362" y="788" on="1"/>
        <pt x="302" y="788" on="0"/>
        <pt x="244" y="672" on="0"/>
        <pt x="233" y="551" on="1"/>
        <pt x="113" y="551" on="1"/>
        <pt x="119" y="615" on="0"/>
        <pt x="144" y="743" on="0"/>
        <pt x="200" y="845" on="0"/>
        <pt x="295" y="909" on="0"/>
        <pt x="371" y="909" on="1"/>
        <pt x="405" y="909" on="0"/>
        <pt x="473" y="883" on="0"/>
        <pt x="537" y="843" on="0"/>
        <pt x="594" y="795" on="0"/>
        <pt x="618" y="774" on="1"/>
        <pt x="640" y="754" on="0"/>
        <pt x="682" y="717" on="0"/>
        <pt x="723" y="689" on="0"/>
        <pt x="765" y="672" on="0"/>
        <pt x="786" y="672" on="1"/>
        <pt x="843" y="672" on="0"/>
        <pt x="897" y="795" on="0"/>
        <pt x="911" y="909" on="1"/>
        <pt x="1034" y="909" on="1"/>
        <pt x="1027" y="845" on="0"/>
        <pt x="999" y="717" on="0"/>
        <pt x="942" y="615" on="0"/>
        <pt x="849" y="551" on="0"/>
      </contour>
    </TTGlyph>
    <TTGlyph name="asterisk" xMin="84" yMin="774" xMax="928" yMax="1556">
      <contour>
        <pt x="84" y="1268" on="1"/>
        <pt x="156" y="1430" on="1"/>
        <pt x="471" y="1231" on="1"/>
        <pt x="418" y="1556" on="1"/>
        <pt x="596" y="1556" on="1"/>
        <pt x="539" y="1233" on="1"/>
        <pt x="856" y="1425" on="1"/>
        <pt x="928" y="1266" on="1"/>
        <pt x="582" y="1165" on="1"/>
        <pt x="928" y="1065" on="1"/>
        <pt x="856" y="907" on="1"/>
        <pt x="539" y="1098" on="1"/>
        <pt x="596" y="774" on="1"/>
        <pt x="418" y="774" on="1"/>
        <pt x="469" y="1098" on="1"/>
        <pt x="156" y="903" on="1"/>
        <pt x="84" y="1063" on="1"/>
        <pt x="428" y="1165" on="1"/>
      </contour>
    </TTGlyph>
    <TTGlyph name="at" xMin="133" yMin="-291" xMax="1778" yMax="1462">
      <contour>
        <pt x="1778" y="803" on="1"/>
        <pt x="1778" y="655" on="0"/>
        <pt x="1706" y="416" on="0"/>
        <pt x="1590" y="248" on="0"/>
        <pt x="1447" y="158" on="0"/>
        <pt x="1376" y="158" on="1"/>
        <pt x="1285" y="158" on="0"/>
        <pt x="1164" y="256" on="0"/>
        <pt x="1135" y="344" on="1"/>
        <pt x="1124" y="344" on="1"/>
        <pt x="1103" y="304" on="0"/>
        <pt x="1050" y="236" on="0"/>
        <pt x="983" y="186" on="0"/>
        <pt x="900" y="158" on="0"/>
        <pt x="848" y="158" on="1"/>
        <pt x="786" y="158" on="0"/>
        <pt x="673" y="200" on="0"/>
        <pt x="588" y="286" on="0"/>
        <pt x="537" y="418" on="0"/>
        <pt x="537" y="508" on="1"/>
        <pt x="537" y="563" on="0"/>
        <pt x="562" y="691" on="0"/>
        <pt x="615" y="818" on="0"/>
        <pt x="698" y="937" on="0"/>
        <pt x="814" y="1028" on="0"/>
        <pt x="965" y="1083" on="0"/>
        <pt x="1059" y="1083" on="1"/>
        <pt x="1125" y="1083" on="0"/>
        <pt x="1220" y="1047" on="0"/>
        <pt x="1251" y="1022" on="1"/>
        <pt x="1333" y="1065" on="1"/>
        <pt x="1382" y="1065" on="1"/>
        <pt x="1278" y="543" on="1"/>
        <pt x="1275" y="519" on="0"/>
        <pt x="1271" y="495" on="1"/>
        <pt x="1268" y="475" on="0"/>
        <pt x="1264" y="427" on="0"/>
        <pt x="1264" y="406" on="1"/>
        <pt x="1264" y="370" on="0"/>
        <pt x="1285" y="317" on="0"/>
        <pt x="1319" y="282" on="0"/>
        <pt x="1364" y="266" on="0"/>
        <pt x="1389" y="266" on="1"/>
        <pt x="1434" y="266" on="0"/>
        <pt x="1528" y="338" on="0"/>
        <pt x="1604" y="477" on="0"/>
        <pt x="1653" y="679" on="0"/>
        <pt x="1653" y="809" on="1"/>
        <pt x="1653" y="943" on="0"/>
        <pt x="1567" y="1148" on="0"/>
        <pt x="1414" y="1287" on="0"/>
        <pt x="1201" y="1358" on="0"/>
        <pt x="1073" y="1358" on="1"/>
        <pt x="973" y="1358" on="0"/>
        <pt x="780" y="1302" on="0"/>
        <pt x="608" y="1193" on="0"/>
        <pt x="461" y="1036" on="0"/>
        <pt x="355" y="835" on="0"/>
        <pt x="295" y="591" on="0"/>
        <pt x="295" y="451" on="1"/>
        <pt x="295" y="280" on="0"/>
        <pt x="393" y="39" on="0"/>
        <pt x="560" y="-114" on="0"/>
        <pt x="781" y="-184" on="0"/>
        <pt x="905" y="-184" on="1"/>
        <pt x="989" y="-184" on="0"/>
        <pt x="1139" y="-155" on="0"/>
        <pt x="1270" y="-107" on="0"/>
        <pt x="1381" y="-46" on="0"/>
        <pt x="1425" y="-14" on="1"/>
        <pt x="1473" y="-88" on="1"/>
        <pt x="1422" y="-126" on="0"/>
        <pt x="1296" y="-199" on="0"/>
        <pt x="1149" y="-256" on="0"/>
        <pt x="980" y="-291" on="0"/>
        <pt x="885" y="-291" on="1"/>
        <pt x="720" y="-291" on="0"/>
        <pt x="444" y="-200" on="0"/>
        <pt x="245" y="-16" on="0"/>
        <pt x="133" y="260" on="0"/>
        <pt x="133" y="446" on="1"/>
        <pt x="133" y="591" on="0"/>
        <pt x="196" y="854" on="0"/>
        <pt x="315" y="1080" on="0"/>
        <pt x="484" y="1263" on="0"/>
        <pt x="696" y="1392" on="0"/>
        <pt x="945" y="1462" on="0"/>
        <pt x="1085" y="1462" on="1"/>
        <pt x="1257" y="1462" on="0"/>
        <pt x="1517" y="1360" on="0"/>
        <pt x="1691" y="1183" on="0"/>
        <pt x="1778" y="942" on="0"/>
      </contour>
      <contour>
        <pt x="727" y="479" on="1"/>
        <pt x="727" y="371" on="0"/>
        <pt x="814" y="266" on="0"/>
        <pt x="883" y="266" on="1"/>
        <pt x="935" y="266" on="0"/>
        <pt x="1011" y="311" on="0"/>
        <pt x="1063" y="383" on="0"/>
        <pt x="1095" y="475" on="0"/>
        <pt x="1104" y="522" on="1"/>
        <pt x="1182" y="938" on="1"/>
        <pt x="1169" y="967" on="0"/>
        <pt x="1104" y="999" on="0"/>
        <pt x="1067" y="999" on="1"/>
        <pt x="1006" y="999" on="0"/>
        <pt x="907" y="946" on="0"/>
        <pt x="832" y="860" on="0"/>
        <pt x="778" y="749" on="0"/>
        <pt x="743" y="633" on="0"/>
        <pt x="727" y="523" on="0"/>
      </contour>
    </TTGlyph>
    <TTGlyph name="atilde" xMin="102" yMin="-20" xMax="1065" yMax="1503">
      <component glyphName="a" x="0" y="0" flags="0x1204"/>
      <component glyphName="tilde" x="-19" y="0" flags="0x1004"/>
    </TTGlyph>
    <TTGlyph name="b" xMin="37" yMin="-20" xMax="1145" yMax="1556">
      <contour>
        <pt x="1145" y="551" on="1"/>
        <pt x="1145" y="403" on="0"/>
        <pt x="1090" y="187" on="0"/>
        <pt x="984" y="47" on="0"/>
        <pt x="828" y="-20" on="0"/>
        <pt x="727" y="-20" on="1"/>
        <pt x="668" y="-20" on="0"/>
        <pt x="572" y="6" on="0"/>
        <pt x="495" y="54" on="0"/>
        <pt x="436" y="120" on="0"/>
        <pt x="414" y="160" on="1"/>
        <pt x="401" y="160" on="1"/>
        <pt x="365" y="0" on="1"/>
        <pt x="37" y="0" on="1"/>
        <pt x="37" y="86" on="1"/>
        <pt x="53" y="86" on="1"/>
        <pt x="88" y="86" on="0"/>
        <pt x="149" y="96" on="0"/>
        <pt x="194" y="127" on="0"/>
        <pt x="221" y="185" on="0"/>
        <pt x="221" y="233" on="1"/>
        <pt x="221" y="1331" on="1"/>
        <pt x="221" y="1376" on="0"/>
        <pt x="194" y="1431" on="0"/>
        <pt x="148" y="1461" on="0"/>
        <pt x="87" y="1470" on="0"/>
        <pt x="53" y="1470" on="1"/>
        <pt x="37" y="1470" on="1"/>
        <pt x="37" y="1556" on="1"/>
        <pt x="414" y="1556" on="1"/>
        <pt x="414" y="1180" on="1"/>
        <pt x="414" y="1145" on="0"/>
        <pt x="412" y="1054" on="0"/>
        <pt x="410" y="1012" on="1"/>
        <pt x="408" y="964" on="0"/>
        <pt x="406" y="913" on="1"/>
        <pt x="414" y="913" on="1"/>
        <pt x="437" y="960" on="0"/>
        <pt x="495" y="1036" on="0"/>
        <pt x="571" y="1089" on="0"/>
        <pt x="667" y="1118" on="0"/>
        <pt x="727" y="1118" on="1"/>
        <pt x="828" y="1118" on="0"/>
        <pt x="984" y="1051" on="0"/>
        <pt x="1090" y="912" on="0"/>
        <pt x="1145" y="698" on="0"/>
      </contour>
      <contour>
        <pt x="692" y="987" on="1"/>
        <pt x="612" y="987" on="0"/>
        <pt x="505" y="934" on="0"/>
        <pt x="441" y="826" on="0"/>
        <pt x="414" y="662" on="0"/>
        <pt x="414" y="551" on="1"/>
        <pt x="414" y="444" on="0"/>
        <pt x="441" y="280" on="0"/>
        <pt x="506" y="168" on="0"/>
        <pt x="613" y="111" on="0"/>
        <pt x="694" y="111" on="1"/>
        <pt x="762" y="111" on="0"/>
        <pt x="857" y="168" on="0"/>
        <pt x="918" y="280" on="0"/>
        <pt x="946" y="445" on="0"/>
        <pt x="946" y="553" on="1"/>
        <pt x="946" y="662" on="0"/>
        <pt x="918" y="825" on="0"/>
        <pt x="857" y="933" on="0"/>
        <pt x="760" y="987" on="0"/>
      </contour>
    </TTGlyph>
    <TTGlyph name="backslash" xMin="0" yMin="-248" xMax="590" yMax="1556">
      <contour>
        <pt x="0" y="1556" on="1"/>
        <pt x="119" y="1556" on="1"/>
        <pt x="590" y="-248" on="1"/>
        <pt x="469" y="-248" on="1"/>
      </contour>
    </TTGlyph>
    <TTGlyph name="bar" xMin="510" yMin="-492" xMax="633" yMax="1556">
      <contour>
        <pt x="633" y="-492" on="1"/>
        <pt x="510" y="-492" on="1"/>
        <pt x="510" y="1556" on="1"/>
        <pt x="633" y="1556" on="1"/>
      </contour>
    </TTGlyph>
    <TTGlyph name="braceleft" xMin="102" yMin="-262" xMax="774" yMax="1556">
      <contour>
        <pt x="639" y="-262" on="1"/>
        <pt x="567" y="-262" on="0"/>
        <pt x="456" y="-220" on="0"/>
        <pt x="382" y="-144" on="0"/>
        <pt x="344" y="-35" on="0"/>
        <pt x="344" y="33" on="1"/>
        <pt x="344" y="389" on="1"/>
        <pt x="344" y="452" on="0"/>
        <pt x="307" y="534" on="0"/>
        <pt x="241" y="583" on="0"/>
        <pt x="153" y="604" on="0"/>
        <pt x="102" y="606" on="1"/>
        <pt x="102" y="692" on="1"/>
        <pt x="153" y="694" on="0"/>
        <pt x="241" y="714" on="0"/>
        <pt x="307" y="763" on="0"/>
        <pt x="344" y="845" on="0"/>
        <pt x="344" y="907" on="1"/>
        <pt x="344" y="1264" on="1"/>
        <pt x="344" y="1404" on="0"/>
        <pt x="493" y="1556" on="0"/>
        <pt x="639" y="1556" on="1"/>
        <pt x="774" y="1556" on="1"/>
        <pt x="774" y="1468" on="1"/>
        <pt x="713" y="1468" on="1"/>
        <pt x="622" y="1468" on="0"/>
        <pt x="545" y="1360" on="0"/>
        <pt x="545" y="1253" on="1"/>
        <pt x="545" y="903" on="1"/>
        <pt x="545" y="803" on="0"/>
        <pt x="432" y="670" on="0"/>
        <pt x="317" y="651" on="1"/>
        <pt x="317" y="649" on="1"/>
        <pt x="435" y="629" on="0"/>
        <pt x="545" y="497" on="0"/>
        <pt x="545" y="395" on="1"/>
        <pt x="545" y="41" on="1"/>
        <pt x="545" y="-64" on="0"/>
        <pt x="622" y="-174" on="0"/>
        <pt x="713" y="-174" on="1"/>
        <pt x="774" y="-174" on="1"/>
        <pt x="774" y="-262" on="1"/>
      </contour>
    </TTGlyph>
    <TTGlyph name="braceright" xMin="102" yMin="-262" xMax="774" yMax="1556">
      <contour>
        <pt x="102" y="-174" on="1"/>
        <pt x="164" y="-174" on="1"/>
        <pt x="255" y="-174" on="0"/>
        <pt x="332" y="-64" on="0"/>
        <pt x="332" y="41" on="1"/>
        <pt x="332" y="395" on="1"/>
        <pt x="332" y="497" on="0"/>
        <pt x="441" y="629" on="0"/>
        <pt x="559" y="649" on="1"/>
        <pt x="559" y="651" on="1"/>
        <pt x="445" y="670" on="0"/>
        <pt x="332" y="803" on="0"/>
        <pt x="332" y="903" on="1"/>
        <pt x="332" y="1253" on="1"/>
        <pt x="332" y="1360" on="0"/>
        <pt x="255" y="1468" on="0"/>
        <pt x="164" y="1468" on="1"/>
        <pt x="102" y="1468" on="1"/>
        <pt x="102" y="1556" on="1"/>
        <pt x="238" y="1556" on="1"/>
        <pt x="383" y="1556" on="0"/>
        <pt x="532" y="1404" on="0"/>
        <pt x="532" y="1264" on="1"/>
        <pt x="532" y="907" on="1"/>
        <pt x="532" y="845" on="0"/>
        <pt x="570" y="763" on="0"/>
        <pt x="635" y="714" on="0"/>
        <pt x="723" y="694" on="0"/>
        <pt x="774" y="692" on="1"/>
        <pt x="774" y="606" on="1"/>
        <pt x="723" y="604" on="0"/>
        <pt x="635" y="583" on="0"/>
        <pt x="570" y="534" on="0"/>
        <pt x="532" y="452" on="0"/>
        <pt x="532" y="389" on="1"/>
        <pt x="532" y="33" on="1"/>
        <pt x="532" y="-35" on="0"/>
        <pt x="494" y="-144" on="0"/>
        <pt x="420" y="-220" on="0"/>
        <pt x="310" y="-262" on="0"/>
        <pt x="238" y="-262" on="1"/>
        <pt x="102" y="-262" on="1"/>
      </contour>
    </TTGlyph>
    <TTGlyph name="bracketleft" xMin="205" yMin="-262" xMax="662" yMax="1556">
      <contour>
        <pt x="205" y="-262" on="1"/>
        <pt x="205" y="1556" on="1"/>
        <pt x="662" y="1556" on="1"/>
        <pt x="662" y="1470" on="1"/>
        <pt x="573" y="1470" on="1"/>
        <pt x="539" y="1470" on="0"/>
        <pt x="478" y="1460" on="0"/>
        <pt x="432" y="1429" on="0"/>
        <pt x="406" y="1371" on="0"/>
        <pt x="406" y="1323" on="1"/>
        <pt x="406" y="-29" on="1"/>
        <pt x="406" y="-77" on="0"/>
        <pt x="432" y="-135" on="0"/>
        <pt x="478" y="-166" on="0"/>
        <pt x="539" y="-176" on="0"/>
        <pt x="573" y="-176" on="1"/>
        <pt x="662" y="-176" on="1"/>
        <pt x="662" y="-262" on="1"/>
      </contour>
    </TTGlyph>
    <TTGlyph name="bracketright" xMin="76" yMin="-262" xMax="532" yMax="1556">
      <contour>
        <pt x="76" y="-262" on="1"/>
        <pt x="76" y="-176" on="1"/>
        <pt x="164" y="-176" on="1"/>
        <pt x="199" y="-176" on="0"/>
        <pt x="260" y="-166" on="0"/>
        <pt x="305" y="-135" on="0"/>
        <pt x="332" y="-77" on="0"/>
        <pt x="332" y="-29" on="1"/>
        <pt x="332" y="1323" on="1"/>
        <pt x="332" y="1371" on="0"/>
        <pt x="305" y="1429" on="0"/>
        <pt x="260" y="1460" on="0"/>
        <pt x="199" y="1470" on="0"/>
        <pt x="164" y="1470" on="1"/>
        <pt x="76" y="1470" on="1"/>
        <pt x="76" y="1556" on="1"/>
        <pt x="532" y="1556" on="1"/>
        <pt x="532" y="-262" on="1"/>
      </contour>
    </TTGlyph>
    <TTGlyph name="brokenbar" xMin="510" yMin="-492" xMax="633" yMax="1556">
      <contour>
        <pt x="633" y="737" on="1"/>
        <pt x="510" y="737" on="1"/>
        <pt x="510" y="1556" on="1"/>
        <pt x="633" y="1556" on="1"/>
      </contour>
      <contour>
        <pt x="633" y="-492" on="1"/>
        <pt x="510" y="-492" on="1"/>
        <pt x="510" y="328" on="1"/>
        <pt x="633" y="328" on="1"/>
      </contour>
    </TTGlyph>
    <TTGlyph name="bullet" xMin="100" yMin="432" xMax="641" yMax="1026">
      <contour>
        <pt x="100" y="729" on="1"/>
        <pt x="100" y="813" on="0"/>
        <pt x="141" y="927" on="0"/>
        <pt x="213" y="996" on="0"/>
        <pt x="313" y="1026" on="0"/>
        <pt x="371" y="1026" on="1"/>
        <pt x="427" y="1026" on="0"/>
        <pt x="525" y="996" on="0"/>
        <pt x="599" y="927" on="0"/>
        <pt x="641" y="813" on="0"/>
        <pt x="641" y="729" on="1"/>
        <pt x="641" y="645" on="0"/>
        <pt x="599" y="532" on="0"/>
        <pt x="525" y="462" on="0"/>
        <pt x="427" y="432" on="0"/>
        <pt x="371" y="432" on="1"/>
        <pt x="313" y="432" on="0"/>
        <pt x="213" y="462" on="0"/>
        <pt x="141" y="532" on="0"/>
        <pt x="100" y="645" on="0"/>
      </contour>
    </TTGlyph>
    <TTGlyph name="c" xMin="113" yMin="-20" xMax="928" yMax="1118">
      <contour>
        <pt x="580" y="-20" on="1"/>
        <pt x="478" y="-20" on="0"/>
        <pt x="306" y="43" on="0"/>
        <pt x="182" y="179" on="0"/>
        <pt x="113" y="392" on="0"/>
        <pt x="113" y="543" on="1"/>
        <pt x="113" y="707" on="0"/>
        <pt x="182" y="928" on="0"/>
        <pt x="305" y="1062" on="0"/>
        <pt x="472" y="1118" on="0"/>
        <pt x="569" y="1118" on="1"/>
        <pt x="633" y="1118" on="0"/>
        <pt x="760" y="1093" on="0"/>
        <pt x="862" y="1041" on="0"/>
        <pt x="926" y="962" on="0"/>
        <pt x="926" y="909" on="1"/>
        <pt x="926" y="838" on="0"/>
        <pt x="834" y="780" on="0"/>
        <pt x="743" y="780" on="1"/>
        <pt x="743" y="828" on="0"/>
        <pt x="727" y="914" on="0"/>
        <pt x="688" y="979" on="0"/>
        <pt x="621" y="1016" on="0"/>
        <pt x="569" y="1016" on="1"/>
        <pt x="510" y="1016" on="0"/>
        <pt x="415" y="972" on="0"/>
        <pt x="347" y="864" on="0"/>
        <pt x="311" y="682" on="0"/>
        <pt x="311" y="545" on="1"/>
        <pt x="311" y="327" on="0"/>
        <pt x="456" y="113" on="0"/>
        <pt x="621" y="113" on="1"/>
        <pt x="716" y="113" on="0"/>
        <pt x="858" y="193" on="0"/>
        <pt x="893" y="256" on="1"/>
        <pt x="908" y="244" on="0"/>
        <pt x="928" y="204" on="0"/>
        <pt x="928" y="176" on="1"/>
        <pt x="928" y="141" on="0"/>
        <pt x="884" y="71" on="0"/>
        <pt x="797" y="15" on="0"/>
        <pt x="667" y="-20" on="0"/>
      </contour>
    </TTGlyph>
    <TTGlyph name="ccedilla" xMin="113" yMin="-492" xMax="928" yMax="1118">
      <component glyphName="c" x="0" y="0" flags="0x1204"/>
      <component glyphName="cedilla" x="233" y="0" flags="0x1004"/>
    </TTGlyph>
    <TTGlyph name="cedilla" xMin="123" yMin="-492" xMax="551" yMax="18">
      <contour>
        <pt x="551" y="-258" on="1"/>
        <pt x="551" y="-367" on="0"/>
        <pt x="412" y="-492" on="0"/>
        <pt x="281" y="-492" on="1"/>
        <pt x="265" y="-492" on="0"/>
        <pt x="225" y="-489" on="0"/>
        <pt x="183" y="-483" on="0"/>
        <pt x="141" y="-474" on="0"/>
        <pt x="123" y="-469" on="1"/>
        <pt x="123" y="-365" on="1"/>
        <pt x="160" y="-373" on="0"/>
        <pt x="234" y="-381" on="0"/>
        <pt x="262" y="-381" on="1"/>
        <pt x="321" y="-381" on="0"/>
        <pt x="387" y="-319" on="0"/>
        <pt x="387" y="-266" on="1"/>
        <pt x="387" y="-206" on="0"/>
        <pt x="300" y="-146" on="0"/>
        <pt x="233" y="-141" on="1"/>
        <pt x="276" y="18" on="1"/>
        <pt x="373" y="18" on="1"/>
        <pt x="352" y="-70" on="1"/>
        <pt x="452" y="-78" on="0"/>
        <pt x="551" y="-177" on="0"/>
      </contour>
    </TTGlyph>
    <TTGlyph name="cent" xMin="162" yMin="0" xMax="1016" yMax="1462">
      <contour>
        <pt x="584" y="180" on="1"/>
        <pt x="491" y="190" on="0"/>
        <pt x="336" y="261" on="0"/>
        <pt x="224" y="394" on="0"/>
        <pt x="162" y="597" on="0"/>
        <pt x="162" y="739" on="1"/>
        <pt x="162" y="891" on="0"/>
        <pt x="228" y="1103" on="0"/>
        <pt x="342" y="1238" on="0"/>
        <pt x="496" y="1305" on="0"/>
        <pt x="584" y="1313" on="1"/>
        <pt x="584" y="1462" on="1"/>
        <pt x="686" y="1462" on="1"/>
        <pt x="686" y="1313" on="1"/>
        <pt x="745" y="1308" on="0"/>
        <pt x="863" y="1279" on="0"/>
        <pt x="957" y="1228" on="0"/>
        <pt x="1016" y="1154" on="0"/>
        <pt x="1016" y="1106" on="1"/>
        <pt x="1016" y="1035" on="0"/>
        <pt x="925" y="977" on="0"/>
        <pt x="834" y="977" on="1"/>
        <pt x="834" y="1019" on="0"/>
        <pt x="816" y="1096" on="0"/>
        <pt x="780" y="1157" on="0"/>
        <pt x="724" y="1199" on="0"/>
        <pt x="686" y="1206" on="1"/>
        <pt x="686" y="297" on="1"/>
        <pt x="728" y="297" on="0"/>
        <pt x="813" y="309" on="0"/>
        <pt x="891" y="328" on="0"/>
        <pt x="959" y="351" on="0"/>
        <pt x="983" y="362" on="1"/>
        <pt x="983" y="250" on="1"/>
        <pt x="930" y="222" on="0"/>
        <pt x="777" y="178" on="0"/>
        <pt x="686" y="176" on="1"/>
        <pt x="686" y="0" on="1"/>
        <pt x="584" y="0" on="1"/>
      </contour>
      <contour>
        <pt x="360" y="741" on="1"/>
        <pt x="360" y="558" on="0"/>
        <pt x="469" y="340" on="0"/>
        <pt x="584" y="309" on="1"/>
        <pt x="584" y="1206" on="1"/>
        <pt x="535" y="1197" on="0"/>
        <pt x="453" y="1140" on="0"/>
        <pt x="393" y="1031" on="0"/>
        <pt x="360" y="862" on="0"/>
      </contour>
    </TTGlyph>
    <TTGlyph name="circumflex" xMin="289" yMin="1241" xMax="893" yMax="1569">
      <contour>
        <pt x="289" y="1268" on="1"/>
        <pt x="313" y="1297" on="0"/>
        <pt x="371" y="1373" on="0"/>
        <pt x="428" y="1454" on="0"/>
        <pt x="478" y="1535" on="0"/>
        <pt x="494" y="1569" on="1"/>
        <pt x="688" y="1569" on="1"/>
        <pt x="704" y="1535" on="0"/>
        <pt x="754" y="1454" on="0"/>
        <pt x="811" y="1373" on="0"/>
        <pt x="869" y="1297" on="0"/>
        <pt x="893" y="1268" on="1"/>
        <pt x="893" y="1241" on="1"/>
        <pt x="813" y="1241" on="1"/>
        <pt x="754" y="1275" on="0"/>
        <pt x="636" y="1376" on="0"/>
        <pt x="590" y="1425" on="1"/>
        <pt x="543" y="1376" on="0"/>
        <pt x="427" y="1275" on="0"/>
        <pt x="369" y="1241" on="1"/>
        <pt x="289" y="1241" on="1"/>
      </contour>
    </TTGlyph>
    <TTGlyph name="colon" xMin="166" yMin="-14" xMax="424" yMax="1108">
      <contour>
        <pt x="166" y="125" on="1"/>
        <pt x="166" y="165" on="0"/>
        <pt x="186" y="218" on="0"/>
        <pt x="221" y="250" on="0"/>
        <pt x="268" y="264" on="0"/>
        <pt x="295" y="264" on="1"/>
        <pt x="321" y="264" on="0"/>
        <pt x="368" y="250" on="0"/>
        <pt x="403" y="218" on="0"/>
        <pt x="424" y="165" on="0"/>
        <pt x="424" y="125" on="1"/>
        <pt x="424" y="86" on="0"/>
        <pt x="403" y="32" on="0"/>
        <pt x="368" y="0" on="0"/>
        <pt x="321" y="-14" on="0"/>
        <pt x="295" y="-14" on="1"/>
        <pt x="268" y="-14" on="0"/>
        <pt x="221" y="0" on="0"/>
        <pt x="186" y="32" on="0"/>
        <pt x="166" y="86" on="0"/>
      </contour>
      <contour>
        <pt x="166" y="969" on="1"/>
        <pt x="166" y="1009" on="0"/>
        <pt x="186" y="1062" on="0"/>
        <pt x="221" y="1094" on="0"/>
        <pt x="268" y="1108" on="0"/>
        <pt x="295" y="1108" on="1"/>
        <pt x="321" y="1108" on="0"/>
        <pt x="368" y="1094" on="0"/>
        <pt x="403" y="1062" on="0"/>
        <pt x="424" y="1009" on="0"/>
        <pt x="424" y="969" on="1"/>
        <pt x="424" y="930" on="0"/>
        <pt x="403" y="876" on="0"/>
        <pt x="368" y="843" on="0"/>
        <pt x="321" y="829" on="0"/>
        <pt x="295" y="829" on="1"/>
        <pt x="268" y="829" on="0"/>
        <pt x="221" y="843" on="0"/>
        <pt x="186" y="876" on="0"/>
        <pt x="166" y="930" on="0"/>
      </contour>
    </TTGlyph>
    <TTGlyph name="comma" xMin="61" yMin="-315" xMax="397" yMax="264">
      <contour>
        <pt x="397" y="86" on="1"/>
        <pt x="397" y="21" on="0"/>
        <pt x="361" y="-101" on="0"/>
        <pt x="280" y="-205" on="0"/>
        <pt x="153" y="-288" on="0"/>
        <pt x="61" y="-315" on="1"/>
        <pt x="61" y="-229" on="1"/>
        <pt x="162" y="-197" on="0"/>
        <pt x="256" y="-105" on="0"/>
        <pt x="256" y="-45" on="1"/>
        <pt x="256" y="-25" on="0"/>
        <pt x="234" y="2" on="0"/>
        <pt x="200" y="23" on="0"/>
        <pt x="162" y="43" on="0"/>
        <pt x="128" y="71" on="0"/>
        <pt x="106" y="112" on="0"/>
        <pt x="106" y="143" on="1"/>
        <pt x="106" y="202" on="0"/>
        <pt x="183" y="264" on="0"/>
        <pt x="240" y="264" on="1"/>
        <pt x="272" y="264" on="0"/>
        <pt x="328" y="241" on="0"/>
        <pt x="372" y="196" on="0"/>
        <pt x="397" y="129" on="0"/>
      </contour>
    </TTGlyph>
    <TTGlyph name="copyright" xMin="113" yMin="-20" xMax="1618" yMax="1485">
      <contour>
        <pt x="901" y="365" on="1"/>
        <pt x="948" y="365" on="0"/>
        <pt x="1028" y="389" on="0"/>
        <pt x="1092" y="429" on="0"/>
        <pt x="1139" y="479" on="0"/>
        <pt x="1153" y="504" on="1"/>
        <pt x="1165" y="495" on="0"/>
        <pt x="1182" y="462" on="0"/>
        <pt x="1182" y="440" on="1"/>
        <pt x="1182" y="412" on="0"/>
        <pt x="1143" y="354" on="0"/>
        <pt x="1066" y="306" on="0"/>
        <pt x="951" y="276" on="0"/>
        <pt x="874" y="276" on="1"/>
        <pt x="772" y="276" on="0"/>
        <pt x="619" y="342" on="0"/>
        <pt x="516" y="462" on="0"/>
        <pt x="465" y="630" on="0"/>
        <pt x="465" y="733" on="1"/>
        <pt x="465" y="833" on="0"/>
        <pt x="521" y="999" on="0"/>
        <pt x="632" y="1119" on="0"/>
        <pt x="795" y="1186" on="0"/>
        <pt x="903" y="1186" on="1"/>
        <pt x="974" y="1186" on="0"/>
        <pt x="1079" y="1163" on="0"/>
        <pt x="1149" y="1124" on="0"/>
        <pt x="1184" y="1071" on="0"/>
        <pt x="1184" y="1040" on="1"/>
        <pt x="1184" y="1018" on="0"/>
        <pt x="1162" y="982" on="0"/>
        <pt x="1124" y="957" on="0"/>
        <pt x="1073" y="944" on="0"/>
        <pt x="1044" y="944" on="1"/>
        <pt x="1044" y="973" on="0"/>
        <pt x="1029" y="1028" on="0"/>
        <pt x="995" y="1073" on="0"/>
        <pt x="940" y="1100" on="0"/>
        <pt x="899" y="1100" on="1"/>
        <pt x="827" y="1100" on="0"/>
        <pt x="726" y="1052" on="0"/>
        <pt x="662" y="958" on="0"/>
        <pt x="633" y="822" on="0"/>
        <pt x="633" y="733" on="1"/>
        <pt x="633" y="556" on="0"/>
        <pt x="771" y="365" on="0"/>
      </contour>
      <contour>
        <pt x="113" y="731" on="1"/>
        <pt x="113" y="835" on="0"/>
        <pt x="167" y="1028" on="0"/>
        <pt x="264" y="1195" on="0"/>
        <pt x="401" y="1333" on="0"/>
        <pt x="568" y="1431" on="0"/>
        <pt x="760" y="1485" on="0"/>
        <pt x="864" y="1485" on="1"/>
        <pt x="968" y="1485" on="0"/>
        <pt x="1161" y="1431" on="0"/>
        <pt x="1328" y="1333" on="0"/>
        <pt x="1466" y="1195" on="0"/>
        <pt x="1564" y="1028" on="0"/>
        <pt x="1618" y="835" on="0"/>
        <pt x="1618" y="731" on="1"/>
        <pt x="1618" y="627" on="0"/>
        <pt x="1564" y="435" on="0"/>
        <pt x="1466" y="268" on="0"/>
        <pt x="1328" y="131" on="0"/>
        <pt x="1161" y="33" on="0"/>
        <pt x="968" y="-20" on="0"/>
        <pt x="864" y="-20" on="1"/>
        <pt x="760" y="-20" on="0"/>
        <pt x="568" y="33" on="0"/>
        <pt x="401" y="131" on="0"/>
        <pt x="264" y="268" on="0"/>
        <pt x="167" y="435" on="0"/>
        <pt x="113" y="627" on="0"/>
      </contour>
      <contour>
        <pt x="225" y="731" on="1"/>
        <pt x="225" y="643" on="0"/>
        <pt x="271" y="480" on="0"/>
        <pt x="354" y="338" on="0"/>
        <pt x="471" y="221" on="0"/>
        <pt x="613" y="138" on="0"/>
        <pt x="776" y="92" on="0"/>
        <pt x="864" y="92" on="1"/>
        <pt x="953" y="92" on="0"/>
        <pt x="1117" y="138" on="0"/>
        <pt x="1259" y="221" on="0"/>
        <pt x="1376" y="338" on="0"/>
        <pt x="1459" y="480" on="0"/>
        <pt x="1505" y="643" on="0"/>
        <pt x="1505" y="731" on="1"/>
        <pt x="1505" y="819" on="0"/>
        <pt x="1459" y="983" on="0"/>
        <pt x="1376" y="1126" on="0"/>
        <pt x="1259" y="1243" on="0"/>
        <pt x="1117" y="1326" on="0"/>
        <pt x="953" y="1372" on="0"/>
        <pt x="864" y="1372" on="1"/>
        <pt x="776" y="1372" on="0"/>
        <pt x="613" y="1326" on="0"/>
        <pt x="471" y="1243" on="0"/>
        <pt x="354" y="1126" on="0"/>
        <pt x="271" y="983" on="0"/>
        <pt x="225" y="820" on="0"/>
      </contour>
    </TTGlyph>
    <TTGlyph name="currency" xMin="131" yMin="293" xMax="1012" yMax="1176">
      <contour>
        <pt x="197" y="733" on="1"/>
        <pt x="197" y="795" on="0"/>
        <pt x="232" y="906" on="0"/>
        <pt x="266" y="952" on="1"/>
        <pt x="131" y="1087" on="1"/>
        <pt x="217" y="1174" on="1"/>
        <pt x="350" y="1038" on="1"/>
        <pt x="397" y="1072" on="0"/>
        <pt x="508" y="1110" on="0"/>
        <pt x="571" y="1110" on="1"/>
        <pt x="631" y="1110" on="0"/>
        <pt x="742" y="1072" on="0"/>
        <pt x="788" y="1038" on="1"/>
        <pt x="926" y="1176" on="1"/>
        <pt x="1012" y="1087" on="1"/>
        <pt x="877" y="952" on="1"/>
        <pt x="911" y="906" on="0"/>
        <pt x="948" y="795" on="0"/>
        <pt x="948" y="733" on="1"/>
        <pt x="948" y="671" on="0"/>
        <pt x="911" y="560" on="0"/>
        <pt x="877" y="514" on="1"/>
        <pt x="1012" y="379" on="1"/>
        <pt x="928" y="293" on="1"/>
        <pt x="791" y="428" on="1"/>
        <pt x="744" y="396" on="0"/>
        <pt x="633" y="358" on="0"/>
        <pt x="571" y="358" on="1"/>
        <pt x="509" y="358" on="0"/>
        <pt x="399" y="394" on="0"/>
        <pt x="352" y="428" on="1"/>
        <pt x="217" y="293" on="1"/>
        <pt x="131" y="379" on="1"/>
        <pt x="264" y="514" on="1"/>
        <pt x="232" y="560" on="0"/>
        <pt x="197" y="671" on="0"/>
      </contour>
      <contour>
        <pt x="311" y="733" on="1"/>
        <pt x="311" y="679" on="0"/>
        <pt x="352" y="584" on="0"/>
        <pt x="423" y="513" on="0"/>
        <pt x="517" y="471" on="0"/>
        <pt x="571" y="471" on="1"/>
        <pt x="627" y="471" on="0"/>
        <pt x="723" y="513" on="0"/>
        <pt x="793" y="584" on="0"/>
        <pt x="834" y="679" on="0"/>
        <pt x="834" y="733" on="1"/>
        <pt x="834" y="789" on="0"/>
        <pt x="793" y="885" on="0"/>
        <pt x="723" y="956" on="0"/>
        <pt x="627" y="997" on="0"/>
        <pt x="571" y="997" on="1"/>
        <pt x="517" y="997" on="0"/>
        <pt x="423" y="956" on="0"/>
        <pt x="352" y="885" on="0"/>
        <pt x="311" y="789" on="0"/>
      </contour>
    </TTGlyph>
    <TTGlyph name="d" xMin="113" yMin="-20" xMax="1221" yMax="1556">
      <contour>
        <pt x="1036" y="225" on="1"/>
        <pt x="1036" y="180" on="0"/>
        <pt x="1063" y="125" on="0"/>
        <pt x="1109" y="95" on="0"/>
        <pt x="1170" y="86" on="0"/>
        <pt x="1204" y="86" on="1"/>
        <pt x="1221" y="86" on="1"/>
        <pt x="1221" y="0" on="1"/>
        <pt x="874" y="0" on="1"/>
        <pt x="852" y="184" on="1"/>
        <pt x="844" y="184" on="1"/>
        <pt x="821" y="137" on="0"/>
        <pt x="762" y="62" on="0"/>
        <pt x="686" y="9" on="0"/>
        <pt x="590" y="-20" on="0"/>
        <pt x="530" y="-20" on="1"/>
        <pt x="429" y="-20" on="0"/>
        <pt x="273" y="47" on="0"/>
        <pt x="167" y="186" on="0"/>
        <pt x="113" y="400" on="0"/>
        <pt x="113" y="547" on="1"/>
        <pt x="113" y="695" on="0"/>
        <pt x="167" y="911" on="0"/>
        <pt x="273" y="1051" on="0"/>
        <pt x="429" y="1118" on="0"/>
        <pt x="530" y="1118" on="1"/>
        <pt x="589" y="1118" on="0"/>
        <pt x="685" y="1092" on="0"/>
        <pt x="762" y="1044" on="0"/>
        <pt x="822" y="978" on="0"/>
        <pt x="844" y="938" on="1"/>
        <pt x="856" y="938" on="1"/>
        <pt x="853" y="988" on="0"/>
        <pt x="850" y="1032" on="1"/>
        <pt x="848" y="1070" on="0"/>
        <pt x="844" y="1145" on="0"/>
        <pt x="844" y="1163" on="1"/>
        <pt x="844" y="1331" on="1"/>
        <pt x="844" y="1376" on="0"/>
        <pt x="817" y="1431" on="0"/>
        <pt x="771" y="1461" on="0"/>
        <pt x="710" y="1470" on="0"/>
        <pt x="676" y="1470" on="1"/>
        <pt x="659" y="1470" on="1"/>
        <pt x="659" y="1556" on="1"/>
        <pt x="1036" y="1556" on="1"/>
      </contour>
      <contour>
        <pt x="565" y="111" on="1"/>
        <pt x="645" y="111" on="0"/>
        <pt x="752" y="164" on="0"/>
        <pt x="817" y="272" on="0"/>
        <pt x="844" y="436" on="0"/>
        <pt x="844" y="547" on="1"/>
        <pt x="844" y="654" on="0"/>
        <pt x="817" y="818" on="0"/>
        <pt x="752" y="929" on="0"/>
        <pt x="644" y="987" on="0"/>
        <pt x="563" y="987" on="1"/>
        <pt x="496" y="987" on="0"/>
        <pt x="400" y="929" on="0"/>
        <pt x="339" y="817" on="0"/>
        <pt x="311" y="652" on="0"/>
        <pt x="311" y="545" on="1"/>
        <pt x="311" y="327" on="0"/>
        <pt x="429" y="111" on="0"/>
      </contour>
    </TTGlyph>
    <TTGlyph name="degree" xMin="98" yMin="842" xMax="719" yMax="1462">
      <contour>
        <pt x="98" y="1151" on="1"/>
        <pt x="98" y="1216" on="0"/>
        <pt x="147" y="1329" on="0"/>
        <pt x="231" y="1413" on="0"/>
        <pt x="344" y="1462" on="0"/>
        <pt x="408" y="1462" on="1"/>
        <pt x="473" y="1462" on="0"/>
        <pt x="586" y="1413" on="0"/>
        <pt x="670" y="1329" on="0"/>
        <pt x="719" y="1216" on="0"/>
        <pt x="719" y="1151" on="1"/>
        <pt x="719" y="1087" on="0"/>
        <pt x="670" y="974" on="0"/>
        <pt x="586" y="890" on="0"/>
        <pt x="473" y="842" on="0"/>
        <pt x="408" y="842" on="1"/>
        <pt x="344" y="842" on="0"/>
        <pt x="231" y="890" on="0"/>
        <pt x="147" y="974" on="0"/>
        <pt x="98" y="1087" on="0"/>
      </contour>
      <contour>
        <pt x="221" y="1151" on="1"/>
        <pt x="221" y="1113" on="0"/>
        <pt x="250" y="1044" on="0"/>
        <pt x="301" y="993" on="0"/>
        <pt x="369" y="963" on="0"/>
        <pt x="408" y="963" on="1"/>
        <pt x="448" y="963" on="0"/>
        <pt x="516" y="993" on="0"/>
        <pt x="567" y="1044" on="0"/>
        <pt x="596" y="1113" on="0"/>
        <pt x="596" y="1151" on="1"/>
        <pt x="596" y="1191" on="0"/>
        <pt x="567" y="1260" on="0"/>
        <pt x="516" y="1311" on="0"/>
        <pt x="448" y="1341" on="0"/>
        <pt x="408" y="1341" on="1"/>
        <pt x="369" y="1341" on="0"/>
        <pt x="301" y="1311" on="0"/>
        <pt x="250" y="1260" on="0"/>
        <pt x="221" y="1191" on="0"/>
      </contour>
    </TTGlyph>
    <TTGlyph name="dieresis" xMin="291" yMin="1294" xMax="889" yMax="1524">
      <contour>
        <pt x="291" y="1409" on="1"/>
        <pt x="291" y="1441" on="0"/>
        <pt x="307" y="1485" on="0"/>
        <pt x="335" y="1512" on="0"/>
        <pt x="373" y="1524" on="0"/>
        <pt x="395" y="1524" on="1"/>
        <pt x="417" y="1524" on="0"/>
        <pt x="455" y="1512" on="0"/>
        <pt x="484" y="1485" on="0"/>
        <pt x="500" y="1441" on="0"/>
        <pt x="500" y="1409" on="1"/>
        <pt x="500" y="1378" on="0"/>
        <pt x="484" y="1334" on="0"/>
        <pt x="455" y="1306" on="0"/>
        <pt x="417" y="1294" on="0"/>
        <pt x="395" y="1294" on="1"/>
        <pt x="350" y="1294" on="0"/>
        <pt x="291" y="1346" on="0"/>
      </contour>
      <contour>
        <pt x="680" y="1409" on="1"/>
        <pt x="680" y="1441" on="0"/>
        <pt x="696" y="1485" on="0"/>
        <pt x="724" y="1512" on="0"/>
        <pt x="762" y="1524" on="0"/>
        <pt x="784" y="1524" on="1"/>
        <pt x="806" y="1524" on="0"/>
        <pt x="844" y="1512" on="0"/>
        <pt x="873" y="1485" on="0"/>
        <pt x="889" y="1441" on="0"/>
        <pt x="889" y="1409" on="1"/>
        <pt x="889" y="1378" on="0"/>
        <pt x="873" y="1334" on="0"/>
        <pt x="844" y="1306" on="0"/>
        <pt x="806" y="1294" on="0"/>
        <pt x="784" y="1294" on="1"/>
        <pt x="739" y="1294" on="0"/>
        <pt x="680" y="1346" on="0"/>
      </contour>
    </TTGlyph>
    <TTGlyph name="divide" xMin="133" yMin="231" xMax="1012" yMax="1233">
      <contour>
        <pt x="1012" y="672" on="1"/>
        <pt x="133" y="672" on="1"/>
        <pt x="133" y="793" on="1"/>
        <pt x="1012" y="793" on="1"/>
      </contour>
      <contour>
        <pt x="469" y="1120" on="1"/>
        <pt x="469" y="1152" on="0"/>
        <pt x="485" y="1196" on="0"/>
        <pt x="513" y="1222" on="0"/>
        <pt x="551" y="1233" on="0"/>
        <pt x="573" y="1233" on="1"/>
        <pt x="595" y="1233" on="0"/>
        <pt x="633" y="1222" on="0"/>
        <pt x="662" y="1196" on="0"/>
        <pt x="678" y="1152" on="0"/>
        <pt x="678" y="1120" on="1"/>
        <pt x="678" y="1089" on="0"/>
        <pt x="662" y="1046" on="0"/>
        <pt x="633" y="1019" on="0"/>
        <pt x="595" y="1008" on="0"/>
        <pt x="573" y="1008" on="1"/>
        <pt x="551" y="1008" on="0"/>
        <pt x="513" y="1019" on="0"/>
        <pt x="485" y="1046" on="0"/>
        <pt x="469" y="1089" on="0"/>
      </contour>
      <contour>
        <pt x="469" y="344" on="1"/>
        <pt x="469" y="376" on="0"/>
        <pt x="485" y="420" on="0"/>
        <pt x="513" y="446" on="0"/>
        <pt x="551" y="457" on="0"/>
        <pt x="573" y="457" on="1"/>
        <pt x="595" y="457" on="0"/>
        <pt x="633" y="446" on="0"/>
        <pt x="662" y="420" on="0"/>
        <pt x="678" y="376" on="0"/>
        <pt x="678" y="344" on="1"/>
        <pt x="678" y="313" on="0"/>
        <pt x="662" y="269" on="0"/>
        <pt x="633" y="243" on="0"/>
        <pt x="595" y="231" on="0"/>
        <pt x="573" y="231" on="1"/>
        <pt x="528" y="231" on="0"/>
        <pt x="469" y="281" on="0"/>
      </contour>
    </TTGlyph>
    <TTGlyph name="dollar" xMin="135" yMin="-162" xMax="1001" yMax="1556">
      <contour>
        <pt x="621" y="1401" on="1"/>
        <pt x="713" y="1399" on="0"/>
        <pt x="842" y="1362" on="0"/>
        <pt x="924" y="1301" on="0"/>
        <pt x="961" y="1219" on="0"/>
        <pt x="961" y="1171" on="1"/>
        <pt x="961" y="1105" on="0"/>
        <pt x="873" y="1038" on="0"/>
        <pt x="799" y="1038" on="1"/>
        <pt x="799" y="1083" on="0"/>
        <pt x="784" y="1174" on="0"/>
        <pt x="745" y="1249" on="0"/>
        <pt x="675" y="1301" on="0"/>
        <pt x="621" y="1307" on="1"/>
        <pt x="621" y="829" on="1"/>
        <pt x="713" y="789" on="0"/>
        <pt x="855" y="709" on="0"/>
        <pt x="951" y="616" on="0"/>
        <pt x="1001" y="503" on="0"/>
        <pt x="1001" y="430" on="1"/>
        <pt x="1001" y="276" on="0"/>
        <pt x="803" y="105" on="0"/>
        <pt x="621" y="86" on="1"/>
        <pt x="621" y="-162" on="1"/>
        <pt x="518" y="-162" on="1"/>
        <pt x="518" y="82" on="1"/>
        <pt x="467" y="82" on="0"/>
        <pt x="363" y="91" on="0"/>
        <pt x="264" y="112" on="0"/>
        <pt x="173" y="144" on="0"/>
        <pt x="135" y="166" on="1"/>
        <pt x="135" y="481" on="1"/>
        <pt x="221" y="481" on="1"/>
        <pt x="221" y="424" on="0"/>
        <pt x="264" y="317" on="0"/>
        <pt x="343" y="232" on="0"/>
        <pt x="452" y="177" on="0"/>
        <pt x="518" y="172" on="1"/>
        <pt x="518" y="678" on="1"/>
        <pt x="422" y="721" on="0"/>
        <pt x="289" y="805" on="0"/>
        <pt x="207" y="898" on="0"/>
        <pt x="170" y="1006" on="0"/>
        <pt x="170" y="1073" on="1"/>
        <pt x="170" y="1142" on="0"/>
        <pt x="219" y="1254" on="0"/>
        <pt x="309" y="1337" on="0"/>
        <pt x="438" y="1388" on="0"/>
        <pt x="518" y="1397" on="1"/>
        <pt x="518" y="1556" on="1"/>
        <pt x="621" y="1556" on="1"/>
      </contour>
      <contour>
        <pt x="813" y="399" on="1"/>
        <pt x="813" y="440" on="0"/>
        <pt x="793" y="505" on="0"/>
        <pt x="747" y="561" on="0"/>
        <pt x="674" y="609" on="0"/>
        <pt x="621" y="633" on="1"/>
        <pt x="621" y="178" on="1"/>
        <pt x="713" y="194" on="0"/>
        <pt x="813" y="311" on="0"/>
      </contour>
      <contour>
        <pt x="354" y="1090" on="1"/>
        <pt x="354" y="1047" on="0"/>
        <pt x="375" y="982" on="0"/>
        <pt x="417" y="932" on="0"/>
        <pt x="478" y="892" on="0"/>
        <pt x="518" y="874" on="1"/>
        <pt x="518" y="1303" on="1"/>
        <pt x="478" y="1294" on="0"/>
        <pt x="416" y="1255" on="0"/>
        <pt x="375" y="1200" on="0"/>
        <pt x="354" y="1130" on="0"/>
      </contour>
    </TTGlyph>
    <TTGlyph name="dotlessi" xMin="47" yMin="0" xMax="629" yMax="1098">
      <contour>
        <pt x="74" y="86" on="1"/>
        <pt x="108" y="86" on="0"/>
        <pt x="169" y="95" on="0"/>
        <pt x="215" y="123" on="0"/>
        <pt x="242" y="178" on="0"/>
        <pt x="242" y="223" on="1"/>
        <pt x="242" y="872" on="1"/>
        <pt x="242" y="917" on="0"/>
        <pt x="215" y="972" on="0"/>
        <pt x="169" y="1002" on="0"/>
        <pt x="108" y="1012" on="0"/>
        <pt x="74" y="1012" on="1"/>
        <pt x="68" y="1012" on="1"/>
        <pt x="68" y="1098" on="1"/>
        <pt x="434" y="1098" on="1"/>
        <pt x="434" y="233" on="1"/>
        <pt x="434" y="185" on="0"/>
        <pt x="461" y="127" on="0"/>
        <pt x="506" y="96" on="0"/>
        <pt x="568" y="86" on="0"/>
        <pt x="602" y="86" on="1"/>
        <pt x="629" y="86" on="1"/>
        <pt x="629" y="0" on="1"/>
        <pt x="47" y="0" on="1"/>
        <pt x="47" y="86" on="1"/>
      </contour>
    </TTGlyph>
    <TTGlyph name="e" xMin="113" yMin="-20" xMax="993" yMax="1118">
      <contour>
        <pt x="563" y="1008" on="1"/>
        <pt x="449" y="1008" on="0"/>
        <pt x="326" y="823" on="0"/>
        <pt x="315" y="645" on="1"/>
        <pt x="786" y="645" on="1"/>
        <pt x="786" y="726" on="0"/>
        <pt x="762" y="860" on="0"/>
        <pt x="710" y="956" on="0"/>
        <pt x="625" y="1008" on="0"/>
      </contour>
      <contour>
        <pt x="588" y="-20" on="1"/>
        <pt x="477" y="-20" on="0"/>
        <pt x="300" y="55" on="0"/>
        <pt x="178" y="199" on="0"/>
        <pt x="113" y="408" on="0"/>
        <pt x="113" y="541" on="1"/>
        <pt x="113" y="828" on="0"/>
        <pt x="349" y="1118" on="0"/>
        <pt x="567" y="1118" on="1"/>
        <pt x="666" y="1118" on="0"/>
        <pt x="824" y="1056" on="0"/>
        <pt x="934" y="933" on="0"/>
        <pt x="993" y="750" on="0"/>
        <pt x="993" y="629" on="1"/>
        <pt x="993" y="535" on="1"/>
        <pt x="311" y="535" on="1"/>
        <pt x="313" y="423" on="0"/>
        <pt x="354" y="262" on="0"/>
        <pt x="431" y="158" on="0"/>
        <pt x="543" y="109" on="0"/>
        <pt x="616" y="109" on="1"/>
        <pt x="669" y="109" on="0"/>
        <pt x="760" y="133" on="0"/>
        <pt x="834" y="173" on="0"/>
        <pt x="891" y="224" on="0"/>
        <pt x="909" y="252" on="1"/>
        <pt x="923" y="246" on="0"/>
        <pt x="948" y="208" on="0"/>
        <pt x="948" y="182" on="1"/>
        <pt x="948" y="151" on="0"/>
        <pt x="904" y="80" on="0"/>
        <pt x="814" y="20" on="0"/>
        <pt x="679" y="-20" on="0"/>
      </contour>
    </TTGlyph>
    <TTGlyph name="eacute" xMin="113" yMin="-20" xMax="993" yMax="1569">
      <component glyphName="e" x="0" y="0" flags="0x1204"/>
      <component glyphName="acute" x="82" y="0" flags="0x1004"/>
    </TTGlyph>
    <TTGlyph name="ecircumflex" xMin="113" yMin="-20" xMax="993" yMax="1569">
      <component glyphName="e" x="0" y="0" flags="0x1204"/>
      <component glyphName="circumflex" x="-34" y="0" flags="0x1004"/>
    </TTGlyph>
    <TTGlyph name="edieresis" xMin="113" yMin="-20" xMax="993" yMax="1524">
      <component glyphName="e" x="0" y="0" flags="0x1204"/>
      <component glyphName="dieresis" x="-38" y="0" flags="0x1004"/>
    </TTGlyph>
    <TTGlyph name="egrave" xMin="113" yMin="-20" xMax="993" yMax="1569">
      <component glyphName="e" x="0" y="0" flags="0x1204"/>
      <component glyphName="grave" x="-108" y="0" flags="0x1004"/>
    </TTGlyph>
    <TTGlyph name="eight" xMin="94" yMin="-20" xMax="1051" yMax="1483">
      <contour>
        <pt x="94" y="367" on="1"/>
        <pt x="94" y="441" on="0"/>
        <pt x="141" y="552" on="0"/>
        <pt x="225" y="639" on="0"/>
        <pt x="339" y="709" on="0"/>
        <pt x="406" y="741" on="1"/>
        <pt x="348" y="774" on="0"/>
        <pt x="250" y="851" on="0"/>
        <pt x="180" y="943" on="0"/>
        <pt x="141" y="1052" on="0"/>
        <pt x="141" y="1116" on="1"/>
        <pt x="141" y="1187" on="0"/>
        <pt x="191" y="1319" on="0"/>
        <pt x="297" y="1421" on="0"/>
        <pt x="466" y="1483" on="0"/>
        <pt x="584" y="1483" on="1"/>
        <pt x="680" y="1483" on="0"/>
        <pt x="830" y="1430" on="0"/>
        <pt x="933" y="1336" on="0"/>
        <pt x="987" y="1207" on="0"/>
        <pt x="987" y="1130" on="1"/>
        <pt x="987" y="1063" on="0"/>
        <pt x="947" y="961" on="0"/>
        <pt x="875" y="880" on="0"/>
        <pt x="773" y="815" on="0"/>
        <pt x="711" y="784" on="1"/>
        <pt x="787" y="748" on="0"/>
        <pt x="912" y="666" on="0"/>
        <pt x="1002" y="570" on="0"/>
        <pt x="1051" y="458" on="0"/>
        <pt x="1051" y="391" on="1"/>
        <pt x="1051" y="294" on="0"/>
        <pt x="981" y="141" on="0"/>
        <pt x="853" y="35" on="0"/>
        <pt x="671" y="-20" on="0"/>
        <pt x="559" y="-20" on="1"/>
        <pt x="444" y="-20" on="0"/>
        <pt x="270" y="40" on="0"/>
        <pt x="153" y="145" on="0"/>
        <pt x="94" y="286" on="0"/>
      </contour>
      <contour>
        <pt x="569" y="74" on="1"/>
        <pt x="636" y="74" on="0"/>
        <pt x="745" y="115" on="0"/>
        <pt x="822" y="187" on="0"/>
        <pt x="864" y="287" on="0"/>
        <pt x="864" y="346" on="1"/>
        <pt x="864" y="398" on="0"/>
        <pt x="826" y="487" on="0"/>
        <pt x="740" y="570" on="0"/>
        <pt x="603" y="649" on="0"/>
        <pt x="504" y="692" on="1"/>
        <pt x="407" y="640" on="0"/>
        <pt x="293" y="474" on="0"/>
        <pt x="293" y="358" on="1"/>
        <pt x="293" y="294" on="0"/>
        <pt x="328" y="190" on="0"/>
        <pt x="397" y="115" on="0"/>
        <pt x="501" y="74" on="0"/>
      </contour>
      <contour>
        <pt x="805" y="1135" on="1"/>
        <pt x="805" y="1182" on="0"/>
        <pt x="780" y="1272" on="0"/>
        <pt x="725" y="1343" on="0"/>
        <pt x="636" y="1386" on="0"/>
        <pt x="571" y="1386" on="1"/>
        <pt x="514" y="1386" on="0"/>
        <pt x="425" y="1349" on="0"/>
        <pt x="365" y="1284" on="0"/>
        <pt x="334" y="1194" on="0"/>
        <pt x="334" y="1141" on="1"/>
        <pt x="334" y="1086" on="0"/>
        <pt x="369" y="998" on="0"/>
        <pt x="438" y="926" on="0"/>
        <pt x="542" y="863" on="0"/>
        <pt x="610" y="831" on="1"/>
        <pt x="668" y="860" on="0"/>
        <pt x="743" y="921" on="0"/>
        <pt x="787" y="994" on="0"/>
        <pt x="805" y="1081" on="0"/>
      </contour>
    </TTGlyph>
    <TTGlyph name="emdash" xMin="-10" yMin="489" xMax="2058" yMax="610">
      <contour>
        <pt x="2058" y="489" on="1"/>
        <pt x="-10" y="489" on="1"/>
        <pt x="-10" y="610" on="1"/>
        <pt x="2058" y="610" on="1"/>
      </contour>
    </TTGlyph>
    <TTGlyph name="endash" xMin="-10" yMin="489" xMax="1034" yMax="610">
      <contour>
        <pt x="1034" y="489" on="1"/>
        <pt x="-10" y="489" on="1"/>
        <pt x="-10" y="610" on="1"/>
        <pt x="1034" y="610" on="1"/>
      </contour>
    </TTGlyph>
    <TTGlyph name="equal" xMin="133" yMin="469" xMax="1012" yMax="993">
      <contour>
        <pt x="1012" y="590" on="1"/>
        <pt x="1012" y="469" on="1"/>
        <pt x="133" y="469" on="1"/>
        <pt x="133" y="590" on="1"/>
      </contour>
      <contour>
        <pt x="1012" y="993" on="1"/>
        <pt x="1012" y="872" on="1"/>
        <pt x="133" y="872" on="1"/>
        <pt x="133" y="993" on="1"/>
      </contour>
    </TTGlyph>
    <TTGlyph name="eth" xMin="113" yMin="-20" xMax="1069" yMax="1561">
      <contour>
        <pt x="307" y="1559" on="1"/>
        <pt x="401" y="1536" on="0"/>
        <pt x="581" y="1461" on="0"/>
        <pt x="662" y="1407" on="1"/>
        <pt x="926" y="1561" on="1"/>
        <pt x="926" y="1444" on="1"/>
        <pt x="745" y="1341" on="1"/>
        <pt x="817" y="1281" on="0"/>
        <pt x="937" y="1126" on="0"/>
        <pt x="1022" y="938" on="0"/>
        <pt x="1069" y="719" on="0"/>
        <pt x="1069" y="596" on="1"/>
        <pt x="1069" y="284" on="0"/>
        <pt x="824" y="-20" on="0"/>
        <pt x="588" y="-20" on="1"/>
        <pt x="477" y="-20" on="0"/>
        <pt x="301" y="45" on="0"/>
        <pt x="178" y="177" on="0"/>
        <pt x="113" y="376" on="0"/>
        <pt x="113" y="510" on="1"/>
        <pt x="113" y="776" on="0"/>
        <pt x="356" y="1036" on="0"/>
        <pt x="594" y="1036" on="1"/>
        <pt x="662" y="1036" on="0"/>
        <pt x="778" y="1008" on="0"/>
        <pt x="829" y="983" on="1"/>
        <pt x="808" y="1051" on="0"/>
        <pt x="701" y="1202" on="0"/>
        <pt x="623" y="1270" on="1"/>
        <pt x="367" y="1124" on="1"/>
        <pt x="367" y="1239" on="1"/>
        <pt x="539" y="1337" on="1"/>
        <pt x="488" y="1371" on="0"/>
        <pt x="372" y="1428" on="0"/>
        <pt x="307" y="1448" on="1"/>
      </contour>
      <contour>
        <pt x="311" y="510" on="1"/>
        <pt x="311" y="405" on="0"/>
        <pt x="341" y="247" on="0"/>
        <pt x="408" y="140" on="0"/>
        <pt x="515" y="86" on="0"/>
        <pt x="592" y="86" on="1"/>
        <pt x="669" y="86" on="0"/>
        <pt x="775" y="140" on="0"/>
        <pt x="841" y="247" on="0"/>
        <pt x="870" y="405" on="0"/>
        <pt x="870" y="510" on="1"/>
        <pt x="870" y="614" on="0"/>
        <pt x="840" y="771" on="0"/>
        <pt x="774" y="876" on="0"/>
        <pt x="667" y="928" on="0"/>
        <pt x="590" y="928" on="1"/>
        <pt x="513" y="928" on="0"/>
        <pt x="407" y="876" on="0"/>
        <pt x="341" y="771" on="0"/>
        <pt x="311" y="614" on="0"/>
      </contour>
    </TTGlyph>
    <TTGlyph name="exclam" xMin="211" yMin="-14" xMax="469" yMax="1462">
      <contour>
        <pt x="221" y="1462" on="1"/>
        <pt x="459" y="1462" on="1"/>
        <pt x="387" y="412" on="1"/>
        <pt x="293" y="412" on="1"/>
      </contour>
      <contour>
        <pt x="211" y="125" on="1"/>
        <pt x="211" y="165" on="0"/>
        <pt x="231" y="218" on="0"/>
        <pt x="266" y="250" on="0"/>
        <pt x="313" y="264" on="0"/>
        <pt x="340" y="264" on="1"/>
        <pt x="366" y="264" on="0"/>
        <pt x="413" y="250" on="0"/>
        <pt x="448" y="218" on="0"/>
        <pt x="469" y="165" on="0"/>
        <pt x="469" y="125" on="1"/>
        <pt x="469" y="86" on="0"/>
        <pt x="448" y="32" on="0"/>
        <pt x="413" y="0" on="0"/>
        <pt x="366" y="-14" on="0"/>
        <pt x="340" y="-14" on="1"/>
        <pt x="313" y="-14" on="0"/>
        <pt x="266" y="0" on="0"/>
        <pt x="231" y="32" on="0"/>
        <pt x="211" y="86" on="0"/>
      </contour>
    </TTGlyph>
    <TTGlyph name="exclamdown" xMin="211" yMin="-367" xMax="469" yMax="1110">
      <contour>
        <pt x="459" y="-367" on="1"/>
        <pt x="221" y="-367" on="1"/>
        <pt x="293" y="684" on="1"/>
        <pt x="387" y="684" on="1"/>
      </contour>
      <contour>
        <pt x="469" y="971" on="1"/>
        <pt x="469" y="931" on="0"/>
        <pt x="449" y="877" on="0"/>
        <pt x="414" y="845" on="0"/>
        <pt x="367" y="831" on="0"/>
        <pt x="340" y="831" on="1"/>
        <pt x="314" y="831" on="0"/>
        <pt x="267" y="845" on="0"/>
        <pt x="232" y="877" on="0"/>
        <pt x="211" y="931" on="0"/>
        <pt x="211" y="971" on="1"/>
        <pt x="211" y="1010" on="0"/>
        <pt x="232" y="1063" on="0"/>
        <pt x="267" y="1096" on="0"/>
        <pt x="314" y="1110" on="0"/>
        <pt x="340" y="1110" on="1"/>
        <pt x="367" y="1110" on="0"/>
        <pt x="414" y="1096" on="0"/>
        <pt x="449" y="1063" on="0"/>
        <pt x="469" y="1010" on="0"/>
      </contour>
    </TTGlyph>
    <TTGlyph name="f" xMin="55" yMin="0" xMax="899" yMax="1577">
      <contour>
        <pt x="688" y="86" on="1"/>
        <pt x="688" y="0" on="1"/>
        <pt x="55" y="0" on="1"/>
        <pt x="55" y="86" on="1"/>
        <pt x="82" y="86" on="1"/>
        <pt x="117" y="86" on="0"/>
        <pt x="178" y="96" on="0"/>
        <pt x="223" y="127" on="0"/>
        <pt x="250" y="185" on="0"/>
        <pt x="250" y="233" on="1"/>
        <pt x="250" y="1001" on="1"/>
        <pt x="63" y="1001" on="1"/>
        <pt x="63" y="1098" on="1"/>
        <pt x="250" y="1098" on="1"/>
        <pt x="250" y="1200" on="1"/>
        <pt x="250" y="1292" on="0"/>
        <pt x="300" y="1432" on="0"/>
        <pt x="394" y="1528" on="0"/>
        <pt x="528" y="1577" on="0"/>
        <pt x="612" y="1577" on="1"/>
        <pt x="692" y="1577" on="0"/>
        <pt x="802" y="1556" on="0"/>
        <pt x="869" y="1518" on="0"/>
        <pt x="899" y="1466" on="0"/>
        <pt x="899" y="1434" on="1"/>
        <pt x="899" y="1406" on="0"/>
        <pt x="874" y="1363" on="0"/>
        <pt x="829" y="1334" on="0"/>
        <pt x="768" y="1319" on="0"/>
        <pt x="731" y="1319" on="1"/>
        <pt x="731" y="1350" on="0"/>
        <pt x="718" y="1409" on="0"/>
        <pt x="687" y="1455" on="0"/>
        <pt x="635" y="1483" on="0"/>
        <pt x="596" y="1483" on="1"/>
        <pt x="552" y="1483" on="0"/>
        <pt x="493" y="1449" on="0"/>
        <pt x="457" y="1382" on="0"/>
        <pt x="442" y="1284" on="0"/>
        <pt x="442" y="1219" on="1"/>
        <pt x="442" y="1098" on="1"/>
        <pt x="731" y="1098" on="1"/>
        <pt x="731" y="1001" on="1"/>
        <pt x="442" y="1001" on="1"/>
        <pt x="442" y="233" on="1"/>
        <pt x="442" y="185" on="0"/>
        <pt x="469" y="127" on="0"/>
        <pt x="514" y="96" on="0"/>
        <pt x="576" y="86" on="0"/>
        <pt x="610" y="86" on="1"/>
      </contour>
    </TTGlyph>
    <TTGlyph name="five" xMin="113" yMin="-20" xMax="995" yMax="1460">
      <contour>
        <pt x="489" y="100" on="1"/>
        <pt x="552" y="100" on="0"/>
        <pt x="659" y="135" on="0"/>
        <pt x="738" y="216" on="0"/>
        <pt x="782" y="349" on="0"/>
        <pt x="782" y="446" on="1"/>
        <pt x="782" y="527" on="0"/>
        <pt x="738" y="647" on="0"/>
        <pt x="656" y="727" on="0"/>
        <pt x="542" y="766" on="0"/>
        <pt x="471" y="766" on="1"/>
        <pt x="418" y="766" on="0"/>
        <pt x="341" y="758" on="0"/>
        <pt x="282" y="745" on="0"/>
        <pt x="238" y="729" on="0"/>
        <pt x="219" y="721" on="1"/>
        <pt x="170" y="735" on="1"/>
        <pt x="236" y="1460" on="1"/>
        <pt x="920" y="1460" on="1"/>
        <pt x="930" y="1151" on="1"/>
        <pt x="844" y="1151" on="1"/>
        <pt x="836" y="1212" on="1"/>
        <pt x="833" y="1234" on="0"/>
        <pt x="822" y="1265" on="0"/>
        <pt x="798" y="1286" on="0"/>
        <pt x="757" y="1296" on="0"/>
        <pt x="725" y="1296" on="1"/>
        <pt x="328" y="1296" on="1"/>
        <pt x="289" y="846" on="1"/>
        <pt x="320" y="857" on="0"/>
        <pt x="437" y="879" on="0"/>
        <pt x="528" y="879" on="1"/>
        <pt x="627" y="879" on="0"/>
        <pt x="798" y="825" on="0"/>
        <pt x="924" y="717" on="0"/>
        <pt x="995" y="554" on="0"/>
        <pt x="995" y="446" on="1"/>
        <pt x="995" y="342" on="0"/>
        <pt x="928" y="170" on="0"/>
        <pt x="801" y="47" on="0"/>
        <pt x="617" y="-20" on="0"/>
        <pt x="500" y="-20" on="1"/>
        <pt x="386" y="-20" on="0"/>
        <pt x="237" y="19" on="0"/>
        <pt x="149" y="79" on="0"/>
        <pt x="113" y="152" on="0"/>
        <pt x="113" y="186" on="1"/>
        <pt x="113" y="243" on="0"/>
        <pt x="176" y="307" on="0"/>
        <pt x="242" y="307" on="1"/>
        <pt x="242" y="263" on="0"/>
        <pt x="273" y="187" on="0"/>
        <pt x="334" y="132" on="0"/>
        <pt x="427" y="100" on="0"/>
      </contour>
    </TTGlyph>
    <TTGlyph name="four" xMin="35" yMin="0" xMax="1116" yMax="1462">
      <contour>
        <pt x="862" y="401" on="1"/>
        <pt x="862" y="233" on="1"/>
        <pt x="862" y="185" on="0"/>
        <pt x="889" y="127" on="0"/>
        <pt x="934" y="96" on="0"/>
        <pt x="996" y="86" on="0"/>
        <pt x="1030" y="86" on="1"/>
        <pt x="1057" y="86" on="1"/>
        <pt x="1057" y="0" on="1"/>
        <pt x="440" y="0" on="1"/>
        <pt x="440" y="86" on="1"/>
        <pt x="498" y="86" on="1"/>
        <pt x="533" y="86" on="0"/>
        <pt x="594" y="96" on="0"/>
        <pt x="639" y="127" on="0"/>
        <pt x="666" y="185" on="0"/>
        <pt x="666" y="233" on="1"/>
        <pt x="666" y="401" on="1"/>
        <pt x="35" y="401" on="1"/>
        <pt x="35" y="485" on="1"/>
        <pt x="668" y="1462" on="1"/>
        <pt x="862" y="1462" on="1"/>
        <pt x="862" y="516" on="1"/>
        <pt x="1116" y="516" on="1"/>
        <pt x="1116" y="401" on="1"/>
      </contour>
      <contour>
        <pt x="666" y="895" on="1"/>
        <pt x="666" y="940" on="0"/>
        <pt x="668" y="1048" on="0"/>
        <pt x="671" y="1160" on="0"/>
        <pt x="676" y="1271" on="0"/>
        <pt x="680" y="1319" on="1"/>
        <pt x="673" y="1305" on="0"/>
        <pt x="647" y="1258" on="0"/>
        <pt x="614" y="1200" on="0"/>
        <pt x="577" y="1136" on="0"/>
        <pt x="540" y="1075" on="0"/>
        <pt x="508" y="1022" on="0"/>
        <pt x="496" y="1004" on="1"/>
        <pt x="182" y="516" on="1"/>
        <pt x="666" y="516" on="1"/>
      </contour>
    </TTGlyph>
    <TTGlyph name="foursuperior" xMin="33" yMin="588" xMax="776" yMax="1473">
      <contour>
        <pt x="580" y="848" on="1"/>
        <pt x="580" y="735" on="1"/>
        <pt x="580" y="709" on="0"/>
        <pt x="594" y="678" on="0"/>
        <pt x="618" y="662" on="0"/>
        <pt x="649" y="657" on="0"/>
        <pt x="666" y="657" on="1"/>
        <pt x="707" y="657" on="1"/>
        <pt x="707" y="588" on="1"/>
        <pt x="256" y="588" on="1"/>
        <pt x="256" y="657" on="1"/>
        <pt x="313" y="657" on="1"/>
        <pt x="330" y="657" on="0"/>
        <pt x="360" y="662" on="0"/>
        <pt x="383" y="678" on="0"/>
        <pt x="397" y="709" on="0"/>
        <pt x="397" y="735" on="1"/>
        <pt x="397" y="848" on="1"/>
        <pt x="33" y="848" on="1"/>
        <pt x="33" y="909" on="1"/>
        <pt x="416" y="1473" on="1"/>
        <pt x="580" y="1473" on="1"/>
        <pt x="580" y="936" on="1"/>
        <pt x="776" y="936" on="1"/>
        <pt x="776" y="848" on="1"/>
      </contour>
      <contour>
        <pt x="397" y="1167" on="1"/>
        <pt x="397" y="1199" on="0"/>
        <pt x="403" y="1281" on="0"/>
        <pt x="408" y="1319" on="1"/>
        <pt x="400" y="1302" on="0"/>
        <pt x="382" y="1268" on="0"/>
        <pt x="377" y="1260" on="1"/>
        <pt x="154" y="936" on="1"/>
        <pt x="397" y="936" on="1"/>
      </contour>
    </TTGlyph>
    <TTGlyph name="fraction" xMin="-369" yMin="0" xMax="496" yMax="1462">
      <contour>
        <pt x="-233" y="0" on="1"/>
        <pt x="-369" y="0" on="1"/>
        <pt x="362" y="1462" on="1"/>
        <pt x="496" y="1462" on="1"/>
      </contour>
    </TTGlyph>
    <TTGlyph name="g" xMin="47" yMin="-492" xMax="1077" yMax="1161">
      <contour>
        <pt x="1077" y="1055" on="1"/>
        <pt x="1077" y="1033" on="0"/>
        <pt x="1064" y="994" on="0"/>
        <pt x="1038" y="965" on="0"/>
        <pt x="997" y="948" on="0"/>
        <pt x="969" y="948" on="1"/>
        <pt x="969" y="960" on="0"/>
        <pt x="963" y="984" on="0"/>
        <pt x="948" y="1005" on="0"/>
        <pt x="922" y="1018" on="0"/>
        <pt x="901" y="1018" on="1"/>
        <pt x="875" y="1018" on="0"/>
        <pt x="833" y="1006" on="0"/>
        <pt x="813" y="993" on="1"/>
        <pt x="848" y="950" on="0"/>
        <pt x="893" y="833" on="0"/>
        <pt x="893" y="745" on="1"/>
        <pt x="893" y="669" on="0"/>
        <pt x="847" y="540" on="0"/>
        <pt x="756" y="446" on="0"/>
        <pt x="617" y="393" on="0"/>
        <pt x="524" y="393" on="1"/>
        <pt x="512" y="393" on="0"/>
        <pt x="482" y="394" on="0"/>
        <pt x="452" y="395" on="0"/>
        <pt x="426" y="398" on="0"/>
        <pt x="418" y="399" on="1"/>
        <pt x="398" y="389" on="0"/>
        <pt x="362" y="365" on="0"/>
        <pt x="335" y="335" on="0"/>
        <pt x="319" y="297" on="0"/>
        <pt x="319" y="274" on="1"/>
        <pt x="319" y="249" on="0"/>
        <pt x="338" y="219" on="0"/>
        <pt x="372" y="202" on="0"/>
        <pt x="419" y="197" on="0"/>
        <pt x="446" y="197" on="1"/>
        <pt x="678" y="197" on="1"/>
        <pt x="770" y="197" on="0"/>
        <pt x="898" y="151" on="0"/>
        <pt x="979" y="70" on="0"/>
        <pt x="1016" y="-43" on="0"/>
        <pt x="1016" y="-109" on="1"/>
        <pt x="1016" y="-197" on="0"/>
        <pt x="951" y="-339" on="0"/>
        <pt x="817" y="-438" on="0"/>
        <pt x="612" y="-492" on="0"/>
        <pt x="473" y="-492" on="1"/>
        <pt x="259" y="-492" on="0"/>
        <pt x="47" y="-334" on="0"/>
        <pt x="47" y="-193" on="1"/>
        <pt x="47" y="-133" on="0"/>
        <pt x="89" y="-43" on="0"/>
        <pt x="160" y="21" on="0"/>
        <pt x="252" y="61" on="0"/>
        <pt x="303" y="70" on="1"/>
        <pt x="282" y="79" on="0"/>
        <pt x="242" y="109" on="0"/>
        <pt x="210" y="151" on="0"/>
        <pt x="190" y="205" on="0"/>
        <pt x="190" y="238" on="1"/>
        <pt x="190" y="299" on="0"/>
        <pt x="254" y="388" on="0"/>
        <pt x="324" y="430" on="1"/>
        <pt x="280" y="448" on="0"/>
        <pt x="211" y="511" on="0"/>
        <pt x="164" y="592" on="0"/>
        <pt x="139" y="688" on="0"/>
        <pt x="139" y="739" on="1"/>
        <pt x="139" y="828" on="0"/>
        <pt x="187" y="968" on="0"/>
        <pt x="283" y="1066" on="0"/>
        <pt x="427" y="1118" on="0"/>
        <pt x="524" y="1118" on="1"/>
        <pt x="561" y="1118" on="0"/>
        <pt x="633" y="1107" on="0"/>
        <pt x="694" y="1088" on="0"/>
        <pt x="743" y="1064" on="0"/>
        <pt x="758" y="1051" on="1"/>
        <pt x="773" y="1067" on="0"/>
        <pt x="813" y="1106" on="0"/>
        <pt x="863" y="1139" on="0"/>
        <pt x="922" y="1161" on="0"/>
        <pt x="956" y="1161" on="1"/>
        <pt x="987" y="1161" on="0"/>
        <pt x="1032" y="1144" on="0"/>
        <pt x="1062" y="1115" on="0"/>
        <pt x="1077" y="1076" on="0"/>
      </contour>
      <contour>
        <pt x="213" y="-180" on="1"/>
        <pt x="213" y="-225" on="0"/>
        <pt x="237" y="-303" on="0"/>
        <pt x="297" y="-359" on="0"/>
        <pt x="399" y="-391" on="0"/>
        <pt x="477" y="-391" on="1"/>
        <pt x="587" y="-391" on="0"/>
        <pt x="730" y="-354" on="0"/>
        <pt x="814" y="-288" on="0"/>
        <pt x="848" y="-197" on="0"/>
        <pt x="848" y="-143" on="1"/>
        <pt x="848" y="-96" on="0"/>
        <pt x="821" y="-35" on="0"/>
        <pt x="768" y="0" on="0"/>
        <pt x="690" y="14" on="0"/>
        <pt x="639" y="14" on="1"/>
        <pt x="438" y="14" on="1"/>
        <pt x="395" y="14" on="0"/>
        <pt x="314" y="-1" on="0"/>
        <pt x="251" y="-43" on="0"/>
        <pt x="213" y="-119" on="0"/>
      </contour>
      <contour>
        <pt x="332" y="745" on="1"/>
        <pt x="332" y="614" on="0"/>
        <pt x="419" y="492" on="0"/>
        <pt x="518" y="492" on="1"/>
        <pt x="568" y="492" on="0"/>
        <pt x="637" y="522" on="0"/>
        <pt x="681" y="584" on="0"/>
        <pt x="700" y="681" on="0"/>
        <pt x="700" y="748" on="1"/>
        <pt x="700" y="886" on="0"/>
        <pt x="616" y="1018" on="0"/>
        <pt x="516" y="1018" on="1"/>
        <pt x="417" y="1018" on="0"/>
        <pt x="332" y="883" on="0"/>
      </contour>
    </TTGlyph>
    <TTGlyph name="germandbls" xMin="47" yMin="-20" xMax="1235" yMax="1563">
      <contour>
        <pt x="887" y="78" on="1"/>
        <pt x="962" y="78" on="0"/>
        <pt x="1059" y="170" on="0"/>
        <pt x="1059" y="264" on="1"/>
        <pt x="1059" y="298" on="0"/>
        <pt x="1044" y="356" on="0"/>
        <pt x="1000" y="410" on="0"/>
        <pt x="922" y="464" on="0"/>
        <pt x="860" y="494" on="1"/>
        <pt x="796" y="526" on="0"/>
        <pt x="698" y="588" on="0"/>
        <pt x="633" y="664" on="0"/>
        <pt x="600" y="760" on="0"/>
        <pt x="600" y="825" on="1"/>
        <pt x="600" y="887" on="0"/>
        <pt x="641" y="989" on="0"/>
        <pt x="724" y="1062" on="0"/>
        <pt x="851" y="1102" on="0"/>
        <pt x="938" y="1102" on="1"/>
        <pt x="938" y="1199" on="0"/>
        <pt x="910" y="1338" on="0"/>
        <pt x="848" y="1428" on="0"/>
        <pt x="751" y="1470" on="0"/>
        <pt x="682" y="1470" on="1"/>
        <pt x="620" y="1470" on="0"/>
        <pt x="527" y="1430" on="0"/>
        <pt x="465" y="1357" on="0"/>
        <pt x="434" y="1253" on="0"/>
        <pt x="434" y="1188" on="1"/>
        <pt x="434" y="0" on="1"/>
        <pt x="47" y="0" on="1"/>
        <pt x="47" y="86" on="1"/>
        <pt x="74" y="86" on="1"/>
        <pt x="109" y="86" on="0"/>
        <pt x="170" y="96" on="0"/>
        <pt x="215" y="127" on="0"/>
        <pt x="242" y="185" on="0"/>
        <pt x="242" y="233" on="1"/>
        <pt x="242" y="1001" on="1"/>
        <pt x="76" y="1001" on="1"/>
        <pt x="76" y="1098" on="1"/>
        <pt x="242" y="1098" on="1"/>
        <pt x="242" y="1159" on="1"/>
        <pt x="242" y="1272" on="0"/>
        <pt x="310" y="1426" on="0"/>
        <pt x="429" y="1521" on="0"/>
        <pt x="590" y="1563" on="0"/>
        <pt x="684" y="1563" on="1"/>
        <pt x="812" y="1563" on="0"/>
        <pt x="982" y="1490" on="0"/>
        <pt x="1085" y="1349" on="0"/>
        <pt x="1129" y="1141" on="0"/>
        <pt x="1130" y="1006" on="1"/>
        <pt x="981" y="1006" on="1"/>
        <pt x="872" y="1006" on="0"/>
        <pt x="770" y="923" on="0"/>
        <pt x="770" y="840" on="1"/>
        <pt x="770" y="809" on="0"/>
        <pt x="790" y="758" on="0"/>
        <pt x="840" y="711" on="0"/>
        <pt x="922" y="664" on="0"/>
        <pt x="983" y="635" on="1"/>
        <pt x="1060" y="600" on="0"/>
        <pt x="1158" y="521" on="0"/>
        <pt x="1214" y="435" on="0"/>
        <pt x="1235" y="345" on="0"/>
        <pt x="1235" y="299" on="1"/>
        <pt x="1235" y="221" on="0"/>
        <pt x="1187" y="101" on="0"/>
        <pt x="1098" y="21" on="0"/>
        <pt x="970" y="-20" on="0"/>
        <pt x="889" y="-20" on="1"/>
        <pt x="817" y="-20" on="0"/>
        <pt x="699" y="7" on="0"/>
        <pt x="615" y="62" on="0"/>
        <pt x="569" y="143" on="0"/>
        <pt x="569" y="197" on="1"/>
        <pt x="569" y="238" on="0"/>
        <pt x="593" y="293" on="0"/>
        <pt x="629" y="325" on="0"/>
        <pt x="670" y="338" on="0"/>
        <pt x="686" y="338" on="1"/>
        <pt x="686" y="284" on="0"/>
        <pt x="707" y="190" on="0"/>
        <pt x="754" y="119" on="0"/>
        <pt x="831" y="78" on="0"/>
      </contour>
    </TTGlyph>
    <TTGlyph name="grave" xMin="393" yMin="1241" xMax="791" yMax="1569">
      <contour>
        <pt x="791" y="1241" on="1"/>
        <pt x="713" y="1241" on="1"/>
        <pt x="672" y="1269" on="0"/>
        <pt x="576" y="1352" on="0"/>
        <pt x="486" y="1440" on="0"/>
        <pt x="412" y="1521" on="0"/>
        <pt x="393" y="1548" on="1"/>
        <pt x="393" y="1569" on="1"/>
        <pt x="612" y="1569" on="1"/>
        <pt x="628" y="1535" on="0"/>
        <pt x="671" y="1454" on="0"/>
        <pt x="719" y="1373" on="0"/>
        <pt x="769" y="1297" on="0"/>
        <pt x="791" y="1268" on="1"/>
      </contour>
    </TTGlyph>
    <TTGlyph name="greater" xMin="133" yMin="225" xMax="1012" yMax="1241">
      <contour>
        <pt x="133" y="225" on="1"/>
        <pt x="133" y="362" on="1"/>
        <pt x="821" y="731" on="1"/>
        <pt x="133" y="1104" on="1"/>
        <pt x="133" y="1241" on="1"/>
        <pt x="1012" y="768" on="1"/>
        <pt x="1012" y="696" on="1"/>
      </contour>
    </TTGlyph>
    <TTGlyph name="guillemotleft" xMin="133" yMin="164" xMax="920" yMax="942">
      <contour>
        <pt x="133" y="586" on="1"/>
        <pt x="446" y="942" on="1"/>
        <pt x="549" y="942" on="1"/>
        <pt x="342" y="553" on="1"/>
        <pt x="549" y="164" on="1"/>
        <pt x="446" y="164" on="1"/>
        <pt x="133" y="520" on="1"/>
      </contour>
      <contour>
        <pt x="504" y="586" on="1"/>
        <pt x="817" y="942" on="1"/>
        <pt x="920" y="942" on="1"/>
        <pt x="713" y="553" on="1"/>
        <pt x="920" y="164" on="1"/>
        <pt x="817" y="164" on="1"/>
        <pt x="504" y="520" on="1"/>
      </contour>
    </TTGlyph>
    <TTGlyph name="guillemotright" xMin="133" yMin="164" xMax="920" yMax="942">
      <contour>
        <pt x="920" y="520" on="1"/>
        <pt x="606" y="164" on="1"/>
        <pt x="504" y="164" on="1"/>
        <pt x="711" y="553" on="1"/>
        <pt x="504" y="942" on="1"/>
        <pt x="606" y="942" on="1"/>
        <pt x="920" y="586" on="1"/>
      </contour>
      <contour>
        <pt x="549" y="520" on="1"/>
        <pt x="236" y="164" on="1"/>
        <pt x="133" y="164" on="1"/>
        <pt x="340" y="553" on="1"/>
        <pt x="133" y="942" on="1"/>
        <pt x="236" y="942" on="1"/>
        <pt x="549" y="586" on="1"/>
      </contour>
    </TTGlyph>
    <TTGlyph name="guilsinglleft" xMin="133" yMin="164" xMax="549" yMax="942">
      <contour>
        <pt x="133" y="586" on="1"/>
        <pt x="446" y="942" on="1"/>
        <pt x="549" y="942" on="1"/>
        <pt x="342" y="553" on="1"/>
        <pt x="549" y="164" on="1"/>
        <pt x="446" y="164" on="1"/>
        <pt x="133" y="520" on="1"/>
      </contour>
    </TTGlyph>
    <TTGlyph name="guilsinglright" xMin="135" yMin="164" xMax="551" yMax="942">
      <contour>
        <pt x="551" y="520" on="1"/>
        <pt x="238" y="164" on="1"/>
        <pt x="135" y="164" on="1"/>
        <pt x="342" y="553" on="1"/>
        <pt x="135" y="942" on="1"/>
        <pt x="238" y="942" on="1"/>
        <pt x="551" y="586" on="1"/>
      </contour>
    </TTGlyph>
    <TTGlyph name="h" xMin="37" yMin="0" xMax="1243" yMax="1556">
      <contour>
        <pt x="588" y="86" on="1"/>
        <pt x="588" y="0" on="1"/>
        <pt x="37" y="0" on="1"/>
        <pt x="37" y="86" on="1"/>
        <pt x="53" y="86" on="1"/>
        <pt x="88" y="86" on="0"/>
        <pt x="149" y="96" on="0"/>
        <pt x="194" y="127" on="0"/>
        <pt x="221" y="185" on="0"/>
        <pt x="221" y="233" on="1"/>
        <pt x="221" y="1331" on="1"/>
        <pt x="221" y="1376" on="0"/>
        <pt x="194" y="1431" on="0"/>
        <pt x="148" y="1461" on="0"/>
        <pt x="87" y="1470" on="0"/>
        <pt x="53" y="1470" on="1"/>
        <pt x="37" y="1470" on="1"/>
        <pt x="37" y="1556" on="1"/>
        <pt x="414" y="1556" on="1"/>
        <pt x="414" y="1106" on="1"/>
        <pt x="414" y="1078" on="0"/>
        <pt x="412" y="1017" on="0"/>
        <pt x="410" y="991" on="1"/>
        <pt x="408" y="961" on="0"/>
        <pt x="406" y="932" on="1"/>
        <pt x="416" y="932" on="1"/>
        <pt x="508" y="1118" on="0"/>
        <pt x="717" y="1118" on="1"/>
        <pt x="804" y="1118" on="0"/>
        <pt x="939" y="1071" on="0"/>
        <pt x="1031" y="974" on="0"/>
        <pt x="1079" y="822" on="0"/>
        <pt x="1079" y="717" on="1"/>
        <pt x="1079" y="233" on="1"/>
        <pt x="1079" y="185" on="0"/>
        <pt x="1103" y="127" on="0"/>
        <pt x="1145" y="96" on="0"/>
        <pt x="1203" y="86" on="0"/>
        <pt x="1237" y="86" on="1"/>
        <pt x="1243" y="86" on="1"/>
        <pt x="1243" y="0" on="1"/>
        <pt x="887" y="0" on="1"/>
        <pt x="887" y="707" on="1"/>
        <pt x="887" y="774" on="0"/>
        <pt x="863" y="878" on="0"/>
        <pt x="810" y="950" on="0"/>
        <pt x="724" y="987" on="0"/>
        <pt x="662" y="987" on="1"/>
        <pt x="598" y="987" on="0"/>
        <pt x="505" y="940" on="0"/>
        <pt x="444" y="853" on="0"/>
        <pt x="414" y="730" on="0"/>
        <pt x="414" y="655" on="1"/>
        <pt x="414" y="223" on="1"/>
        <pt x="414" y="178" on="0"/>
        <pt x="441" y="123" on="0"/>
        <pt x="487" y="95" on="0"/>
        <pt x="548" y="86" on="0"/>
        <pt x="582" y="86" on="1"/>
      </contour>
    </TTGlyph>
    <TTGlyph name="hyphen" xMin="51" yMin="481" xMax="584" yMax="635">
      <contour>
        <pt x="51" y="481" on="1"/>
        <pt x="51" y="635" on="1"/>
        <pt x="584" y="635" on="1"/>
        <pt x="584" y="481" on="1"/>
      </contour>
    </TTGlyph>
    <TTGlyph name="i" xMin="47" yMin="0" xMax="629" yMax="1556">
      <contour>
        <pt x="74" y="86" on="1"/>
        <pt x="108" y="86" on="0"/>
        <pt x="169" y="95" on="0"/>
        <pt x="215" y="123" on="0"/>
        <pt x="242" y="178" on="0"/>
        <pt x="242" y="223" on="1"/>
        <pt x="242" y="872" on="1"/>
        <pt x="242" y="917" on="0"/>
        <pt x="215" y="972" on="0"/>
        <pt x="169" y="1002" on="0"/>
        <pt x="108" y="1012" on="0"/>
        <pt x="74" y="1012" on="1"/>
        <pt x="68" y="1012" on="1"/>
        <pt x="68" y="1098" on="1"/>
        <pt x="434" y="1098" on="1"/>
        <pt x="434" y="233" on="1"/>
        <pt x="434" y="185" on="0"/>
        <pt x="461" y="127" on="0"/>
        <pt x="506" y="96" on="0"/>
        <pt x="568" y="86" on="0"/>
        <pt x="602" y="86" on="1"/>
        <pt x="629" y="86" on="1"/>
        <pt x="629" y="0" on="1"/>
        <pt x="47" y="0" on="1"/>
        <pt x="47" y="86" on="1"/>
      </contour>
      <contour>
        <pt x="213" y="1430" on="1"/>
        <pt x="213" y="1466" on="0"/>
        <pt x="231" y="1514" on="0"/>
        <pt x="263" y="1544" on="0"/>
        <pt x="305" y="1556" on="0"/>
        <pt x="330" y="1556" on="1"/>
        <pt x="354" y="1556" on="0"/>
        <pt x="396" y="1544" on="0"/>
        <pt x="427" y="1514" on="0"/>
        <pt x="446" y="1466" on="0"/>
        <pt x="446" y="1430" on="1"/>
        <pt x="446" y="1394" on="0"/>
        <pt x="427" y="1346" on="0"/>
        <pt x="396" y="1316" on="0"/>
        <pt x="354" y="1303" on="0"/>
        <pt x="330" y="1303" on="1"/>
        <pt x="305" y="1303" on="0"/>
        <pt x="263" y="1316" on="0"/>
        <pt x="231" y="1346" on="0"/>
        <pt x="213" y="1394" on="0"/>
      </contour>
    </TTGlyph>
    <TTGlyph name="iacute" xMin="47" yMin="0" xMax="637" yMax="1569">
      <component glyphName="dotlessi" x="0" y="0" flags="0x1204"/>
      <component glyphName="acute" x="-151" y="0" flags="0x1004"/>
    </TTGlyph>
    <TTGlyph name="icircumflex" xMin="22" yMin="0" xMax="629" yMax="1569">
      <component glyphName="dotlessi" x="0" y="0" flags="0x1204"/>
      <component glyphName="circumflex" x="-267" y="0" flags="0x1004"/>
    </TTGlyph>
    <TTGlyph name="idieresis" xMin="18" yMin="0" xMax="629" yMax="1524">
      <component glyphName="dotlessi" x="0" y="0" flags="0x1204"/>
      <component glyphName="dieresis" x="-273" y="0" flags="0x1004"/>
    </TTGlyph>
    <TTGlyph name="igrave" xMin="38" yMin="0" xMax="629" yMax="1569">
      <component glyphName="dotlessi" x="0" y="0" flags="0x1204"/>
      <component glyphName="grave" x="-355" y="0" flags="0x1004"/>
    </TTGlyph>
    <TTGlyph name="j" xMin="-25" yMin="-492" xMax="426" yMax="1556">
      <contour>
        <pt x="414" y="1098" on="1"/>
        <pt x="414" y="-16" on="1"/>
        <pt x="414" y="-154" on="0"/>
        <pt x="354" y="-337" on="0"/>
        <pt x="246" y="-446" on="0"/>
        <pt x="97" y="-492" on="0"/>
        <pt x="8" y="-492" on="1"/>
        <pt x="-25" y="-492" on="1"/>
        <pt x="-25" y="-395" on="1"/>
        <pt x="-10" y="-395" on="1"/>
        <pt x="45" y="-395" on="0"/>
        <pt x="131" y="-358" on="0"/>
        <pt x="190" y="-271" on="0"/>
        <pt x="221" y="-126" on="0"/>
        <pt x="221" y="-18" on="1"/>
        <pt x="221" y="872" on="1"/>
        <pt x="221" y="917" on="0"/>
        <pt x="194" y="972" on="0"/>
        <pt x="148" y="1002" on="0"/>
        <pt x="87" y="1012" on="0"/>
        <pt x="53" y="1012" on="1"/>
        <pt x="47" y="1012" on="1"/>
        <pt x="47" y="1098" on="1"/>
      </contour>
      <contour>
        <pt x="193" y="1430" on="1"/>
        <pt x="193" y="1466" on="0"/>
        <pt x="211" y="1514" on="0"/>
        <pt x="242" y="1544" on="0"/>
        <pt x="285" y="1556" on="0"/>
        <pt x="309" y="1556" on="1"/>
        <pt x="333" y="1556" on="0"/>
        <pt x="376" y="1544" on="0"/>
        <pt x="407" y="1514" on="0"/>
        <pt x="426" y="1466" on="0"/>
        <pt x="426" y="1430" on="1"/>
        <pt x="426" y="1394" on="0"/>
        <pt x="407" y="1346" on="0"/>
        <pt x="376" y="1316" on="0"/>
        <pt x="333" y="1303" on="0"/>
        <pt x="309" y="1303" on="1"/>
        <pt x="285" y="1303" on="0"/>
        <pt x="242" y="1316" on="0"/>
        <pt x="211" y="1346" on="0"/>
        <pt x="193" y="1394" on="0"/>
      </contour>
    </TTGlyph>
    <TTGlyph name="k" xMin="37" yMin="0" xMax="1200" yMax="1556">
      <contour>
        <pt x="694" y="659" on="1"/>
        <pt x="967" y="254" on="1"/>
        <pt x="1020" y="172" on="0"/>
        <pt x="1125" y="86" on="0"/>
        <pt x="1194" y="86" on="1"/>
        <pt x="1200" y="86" on="1"/>
        <pt x="1200" y="0" on="1"/>
        <pt x="1171" y="0" on="1"/>
        <pt x="1082" y="0" on="0"/>
        <pt x="967" y="11" on="0"/>
        <pt x="883" y="52" on="0"/>
        <pt x="813" y="131" on="0"/>
        <pt x="770" y="199" on="1"/>
        <pt x="565" y="520" on="1"/>
        <pt x="414" y="408" on="1"/>
        <pt x="414" y="223" on="1"/>
        <pt x="414" y="178" on="0"/>
        <pt x="441" y="123" on="0"/>
        <pt x="487" y="95" on="0"/>
        <pt x="548" y="86" on="0"/>
        <pt x="582" y="86" on="1"/>
        <pt x="588" y="86" on="1"/>
        <pt x="588" y="0" on="1"/>
        <pt x="37" y="0" on="1"/>
        <pt x="37" y="86" on="1"/>
        <pt x="53" y="86" on="1"/>
        <pt x="88" y="86" on="0"/>
        <pt x="149" y="96" on="0"/>
        <pt x="194" y="127" on="0"/>
        <pt x="221" y="185" on="0"/>
        <pt x="221" y="233" on="1"/>
        <pt x="221" y="1331" on="1"/>
        <pt x="221" y="1376" on="0"/>
        <pt x="194" y="1431" on="0"/>
        <pt x="148" y="1461" on="0"/>
        <pt x="87" y="1470" on="0"/>
        <pt x="53" y="1470" on="1"/>
        <pt x="37" y="1470" on="1"/>
        <pt x="37" y="1556" on="1"/>
        <pt x="414" y="1556" on="1"/>
        <pt x="414" y="766" on="1"/>
        <pt x="414" y="738" on="0"/>
        <pt x="412" y="651" on="0"/>
        <pt x="410" y="609" on="1"/>
        <pt x="408" y="561" on="0"/>
        <pt x="406" y="508" on="1"/>
        <pt x="662" y="788" on="1"/>
        <pt x="695" y="825" on="0"/>
        <pt x="738" y="881" on="0"/>
        <pt x="764" y="923" on="0"/>
        <pt x="774" y="956" on="0"/>
        <pt x="774" y="971" on="1"/>
        <pt x="774" y="997" on="0"/>
        <pt x="725" y="1012" on="0"/>
        <pt x="674" y="1012" on="1"/>
        <pt x="674" y="1098" on="1"/>
        <pt x="1126" y="1098" on="1"/>
        <pt x="1126" y="1012" on="1"/>
        <pt x="1055" y="1012" on="0"/>
        <pt x="918" y="912" on="0"/>
        <pt x="838" y="821" on="1"/>
      </contour>
    </TTGlyph>
    <TTGlyph name="l" xMin="27" yMin="0" xMax="608" yMax="1556">
      <contour>
        <pt x="53" y="86" on="1"/>
        <pt x="88" y="86" on="0"/>
        <pt x="149" y="96" on="0"/>
        <pt x="194" y="127" on="0"/>
        <pt x="221" y="185" on="0"/>
        <pt x="221" y="233" on="1"/>
        <pt x="221" y="1331" on="1"/>
        <pt x="221" y="1376" on="0"/>
        <pt x="194" y="1431" on="0"/>
        <pt x="148" y="1461" on="0"/>
        <pt x="87" y="1470" on="0"/>
        <pt x="53" y="1470" on="1"/>
        <pt x="27" y="1470" on="1"/>
        <pt x="27" y="1556" on="1"/>
        <pt x="414" y="1556" on="1"/>
        <pt x="414" y="233" on="1"/>
        <pt x="414" y="185" on="0"/>
        <pt x="440" y="127" on="0"/>
        <pt x="486" y="96" on="0"/>
        <pt x="547" y="86" on="0"/>
        <pt x="582" y="86" on="1"/>
        <pt x="608" y="86" on="1"/>
        <pt x="608" y="0" on="1"/>
        <pt x="27" y="0" on="1"/>
        <pt x="27" y="86" on="1"/>
      </contour>
    </TTGlyph>
    <TTGlyph name="less" xMin="133" yMin="225" xMax="1012" yMax="1241">
      <contour>
        <pt x="133" y="696" on="1"/>
        <pt x="133" y="768" on="1"/>
        <pt x="1012" y="1241" on="1"/>
        <pt x="1012" y="1104" on="1"/>
        <pt x="324" y="731" on="1"/>
        <pt x="1012" y="362" on="1"/>
        <pt x="1012" y="225" on="1"/>
      </contour>
    </TTGlyph>
    <TTGlyph name="logicalnot" xMin="133" yMin="252" xMax="1012" yMax="793">
      <contour>
        <pt x="1012" y="793" on="1"/>
        <pt x="1012" y="252" on="1"/>
        <pt x="889" y="252" on="1"/>
        <pt x="889" y="672" on="1"/>
        <pt x="133" y="672" on="1"/>
        <pt x="133" y="793" on="1"/>
      </contour>
    </TTGlyph>
    <TTGlyph name="m" xMin="57" yMin="0" xMax="1878" yMax="1118">
      <contour>
        <pt x="608" y="86" on="1"/>
        <pt x="608" y="0" on="1"/>
        <pt x="57" y="0" on="1"/>
        <pt x="57" y="86" on="1"/>
        <pt x="84" y="86" on="1"/>
        <pt x="119" y="86" on="0"/>
        <pt x="177" y="96" on="0"/>
        <pt x="219" y="127" on="0"/>
        <pt x="242" y="185" on="0"/>
        <pt x="242" y="233" on="1"/>
        <pt x="242" y="872" on="1"/>
        <pt x="242" y="917" on="0"/>
        <pt x="218" y="972" on="0"/>
        <pt x="176" y="1002" on="0"/>
        <pt x="118" y="1012" on="0"/>
        <pt x="84" y="1012" on="1"/>
        <pt x="78" y="1012" on="1"/>
        <pt x="78" y="1098" on="1"/>
        <pt x="399" y="1098" on="1"/>
        <pt x="426" y="932" on="1"/>
        <pt x="436" y="932" on="1"/>
        <pt x="467" y="989" on="0"/>
        <pt x="535" y="1062" on="0"/>
        <pt x="612" y="1103" on="0"/>
        <pt x="697" y="1118" on="0"/>
        <pt x="745" y="1118" on="1"/>
        <pt x="795" y="1118" on="0"/>
        <pt x="885" y="1098" on="0"/>
        <pt x="962" y="1054" on="0"/>
        <pt x="1023" y="983" on="0"/>
        <pt x="1042" y="932" on="1"/>
        <pt x="1059" y="932" on="1"/>
        <pt x="1090" y="989" on="0"/>
        <pt x="1162" y="1062" on="0"/>
        <pt x="1243" y="1103" on="0"/>
        <pt x="1332" y="1118" on="0"/>
        <pt x="1380" y="1118" on="1"/>
        <pt x="1458" y="1118" on="0"/>
        <pt x="1582" y="1071" on="0"/>
        <pt x="1668" y="974" on="0"/>
        <pt x="1714" y="822" on="0"/>
        <pt x="1714" y="717" on="1"/>
        <pt x="1714" y="233" on="1"/>
        <pt x="1714" y="185" on="0"/>
        <pt x="1738" y="127" on="0"/>
        <pt x="1780" y="96" on="0"/>
        <pt x="1838" y="86" on="0"/>
        <pt x="1872" y="86" on="1"/>
        <pt x="1878" y="86" on="1"/>
        <pt x="1878" y="0" on="1"/>
        <pt x="1522" y="0" on="1"/>
        <pt x="1522" y="707" on="1"/>
        <pt x="1522" y="774" on="0"/>
        <pt x="1499" y="878" on="0"/>
        <pt x="1448" y="950" on="0"/>
        <pt x="1366" y="987" on="0"/>
        <pt x="1307" y="987" on="1"/>
        <pt x="1243" y="987" on="0"/>
        <pt x="1156" y="938" on="0"/>
        <pt x="1102" y="854" on="0"/>
        <pt x="1079" y="744" on="0"/>
        <pt x="1079" y="682" on="1"/>
        <pt x="1079" y="233" on="1"/>
        <pt x="1079" y="185" on="0"/>
        <pt x="1103" y="127" on="0"/>
        <pt x="1145" y="96" on="0"/>
        <pt x="1203" y="86" on="0"/>
        <pt x="1237" y="86" on="1"/>
        <pt x="1243" y="86" on="1"/>
        <pt x="1243" y="0" on="1"/>
        <pt x="887" y="0" on="1"/>
        <pt x="887" y="707" on="1"/>
        <pt x="887" y="774" on="0"/>
        <pt x="864" y="878" on="0"/>
        <pt x="813" y="950" on="0"/>
        <pt x="731" y="987" on="0"/>
        <pt x="672" y="987" on="1"/>
        <pt x="605" y="987" on="0"/>
        <pt x="514" y="933" on="0"/>
        <pt x="458" y="841" on="0"/>
        <pt x="434" y="721" on="0"/>
        <pt x="434" y="655" on="1"/>
        <pt x="434" y="223" on="1"/>
        <pt x="434" y="178" on="0"/>
        <pt x="461" y="123" on="0"/>
        <pt x="507" y="95" on="0"/>
        <pt x="568" y="86" on="0"/>
        <pt x="602" y="86" on="1"/>
      </contour>
    </TTGlyph>
    <TTGlyph name="mu" xMin="176" yMin="-492" xMax="1174" yMax="1098">
      <contour>
        <pt x="569" y="-20" on="1"/>
        <pt x="483" y="-20" on="0"/>
        <pt x="360" y="43" on="0"/>
        <pt x="319" y="100" on="1"/>
        <pt x="321" y="15" on="0"/>
        <pt x="331" y="-129" on="0"/>
        <pt x="364" y="-237" on="0"/>
        <pt x="428" y="-304" on="0"/>
        <pt x="485" y="-313" on="1"/>
        <pt x="485" y="-352" on="0"/>
        <pt x="468" y="-417" on="0"/>
        <pt x="433" y="-465" on="0"/>
        <pt x="379" y="-492" on="0"/>
        <pt x="342" y="-492" on="1"/>
        <pt x="310" y="-492" on="0"/>
        <pt x="250" y="-468" on="0"/>
        <pt x="204" y="-411" on="0"/>
        <pt x="176" y="-317" on="0"/>
        <pt x="176" y="-248" on="1"/>
        <pt x="176" y="-187" on="0"/>
        <pt x="183" y="-46" on="0"/>
        <pt x="191" y="125" on="0"/>
        <pt x="200" y="333" on="0"/>
        <pt x="201" y="461" on="1"/>
        <pt x="201" y="1098" on="1"/>
        <pt x="393" y="1098" on="1"/>
        <pt x="393" y="410" on="1"/>
        <pt x="393" y="343" on="0"/>
        <pt x="413" y="233" on="0"/>
        <pt x="460" y="154" on="0"/>
        <pt x="539" y="111" on="0"/>
        <pt x="598" y="111" on="1"/>
        <pt x="655" y="111" on="0"/>
        <pt x="747" y="159" on="0"/>
        <pt x="811" y="246" on="0"/>
        <pt x="846" y="368" on="0"/>
        <pt x="846" y="442" on="1"/>
        <pt x="846" y="1098" on="1"/>
        <pt x="1038" y="1098" on="1"/>
        <pt x="1038" y="264" on="1"/>
        <pt x="1038" y="219" on="0"/>
        <pt x="1062" y="152" on="0"/>
        <pt x="1099" y="108" on="0"/>
        <pt x="1145" y="86" on="0"/>
        <pt x="1167" y="86" on="1"/>
        <pt x="1174" y="86" on="1"/>
        <pt x="1174" y="0" on="1"/>
        <pt x="1063" y="0" on="1"/>
        <pt x="979" y="0" on="0"/>
        <pt x="883" y="83" on="0"/>
        <pt x="864" y="164" on="1"/>
        <pt x="856" y="164" on="1"/>
        <pt x="832" y="123" on="0"/>
        <pt x="777" y="55" on="0"/>
        <pt x="708" y="7" on="0"/>
        <pt x="623" y="-20" on="0"/>
      </contour>
    </TTGlyph>
    <TTGlyph name="multiply" xMin="145" yMin="307" xMax="997" yMax="1161">
      <contour>
        <pt x="571" y="647" on="1"/>
        <pt x="231" y="307" on="1"/>
        <pt x="145" y="395" on="1"/>
        <pt x="485" y="735" on="1"/>
        <pt x="145" y="1073" on="1"/>
        <pt x="231" y="1159" on="1"/>
        <pt x="571" y="819" on="1"/>
        <pt x="911" y="1161" on="1"/>
        <pt x="997" y="1073" on="1"/>
        <pt x="657" y="733" on="1"/>
        <pt x="997" y="393" on="1"/>
        <pt x="911" y="307" on="1"/>
      </contour>
    </TTGlyph>
    <TTGlyph name="n" xMin="57" yMin="0" xMax="1264" yMax="1118">
      <contour>
        <pt x="608" y="86" on="1"/>
        <pt x="608" y="0" on="1"/>
        <pt x="57" y="0" on="1"/>
        <pt x="57" y="86" on="1"/>
        <pt x="74" y="86" on="1"/>
        <pt x="109" y="86" on="0"/>
        <pt x="170" y="96" on="0"/>
        <pt x="215" y="127" on="0"/>
        <pt x="242" y="185" on="0"/>
        <pt x="242" y="233" on="1"/>
        <pt x="242" y="872" on="1"/>
        <pt x="242" y="917" on="0"/>
        <pt x="215" y="972" on="0"/>
        <pt x="169" y="1002" on="0"/>
        <pt x="108" y="1012" on="0"/>
        <pt x="74" y="1012" on="1"/>
        <pt x="68" y="1012" on="1"/>
        <pt x="68" y="1098" on="1"/>
        <pt x="399" y="1098" on="1"/>
        <pt x="426" y="932" on="1"/>
        <pt x="436" y="932" on="1"/>
        <pt x="468" y="989" on="0"/>
        <pt x="539" y="1062" on="0"/>
        <pt x="618" y="1103" on="0"/>
        <pt x="707" y="1118" on="0"/>
        <pt x="756" y="1118" on="1"/>
        <pt x="837" y="1118" on="0"/>
        <pt x="964" y="1071" on="0"/>
        <pt x="1053" y="974" on="0"/>
        <pt x="1100" y="822" on="0"/>
        <pt x="1100" y="717" on="1"/>
        <pt x="1100" y="233" on="1"/>
        <pt x="1100" y="185" on="0"/>
        <pt x="1123" y="127" on="0"/>
        <pt x="1165" y="96" on="0"/>
        <pt x="1223" y="86" on="0"/>
        <pt x="1257" y="86" on="1"/>
        <pt x="1264" y="86" on="1"/>
        <pt x="1264" y="0" on="1"/>
        <pt x="907" y="0" on="1"/>
        <pt x="907" y="707" on="1"/>
        <pt x="907" y="774" on="0"/>
        <pt x="883" y="878" on="0"/>
        <pt x="830" y="950" on="0"/>
        <pt x="744" y="987" on="0"/>
        <pt x="682" y="987" on="1"/>
        <pt x="612" y="987" on="0"/>
        <pt x="517" y="933" on="0"/>
        <pt x="459" y="841" on="0"/>
        <pt x="434" y="721" on="0"/>
        <pt x="434" y="655" on="1"/>
        <pt x="434" y="223" on="1"/>
        <pt x="434" y="178" on="0"/>
        <pt x="461" y="123" on="0"/>
        <pt x="507" y="95" on="0"/>
        <pt x="568" y="86" on="0"/>
        <pt x="602" y="86" on="1"/>
      </contour>
    </TTGlyph>
    <TTGlyph name="nine" xMin="104" yMin="-23" xMax="1020" yMax="1483">
      <contour>
        <pt x="467" y="90" on="1"/>
        <pt x="637" y="90" on="0"/>
        <pt x="799" y="394" on="0"/>
        <pt x="809" y="702" on="1"/>
        <pt x="787" y="675" on="0"/>
        <pt x="728" y="625" on="0"/>
        <pt x="653" y="586" on="0"/>
        <pt x="562" y="563" on="0"/>
        <pt x="508" y="563" on="1"/>
        <pt x="419" y="563" on="0"/>
        <pt x="270" y="615" on="0"/>
        <pt x="163" y="719" on="0"/>
        <pt x="104" y="875" on="0"/>
        <pt x="104" y="979" on="1"/>
        <pt x="104" y="1090" on="0"/>
        <pt x="164" y="1275" on="0"/>
        <pt x="277" y="1408" on="0"/>
        <pt x="440" y="1483" on="0"/>
        <pt x="543" y="1483" on="1"/>
        <pt x="647" y="1483" on="0"/>
        <pt x="821" y="1403" on="0"/>
        <pt x="949" y="1235" on="0"/>
        <pt x="1020" y="975" on="0"/>
        <pt x="1020" y="795" on="1"/>
        <pt x="1020" y="688" on="0"/>
        <pt x="993" y="483" on="0"/>
        <pt x="936" y="301" on="0"/>
        <pt x="847" y="149" on="0"/>
        <pt x="724" y="38" on="0"/>
        <pt x="564" y="-23" on="0"/>
        <pt x="465" y="-23" on="1"/>
        <pt x="378" y="-23" on="0"/>
        <pt x="263" y="8" on="0"/>
        <pt x="196" y="58" on="0"/>
        <pt x="168" y="122" on="0"/>
        <pt x="168" y="154" on="1"/>
        <pt x="168" y="192" on="0"/>
        <pt x="206" y="244" on="0"/>
        <pt x="229" y="252" on="1"/>
        <pt x="243" y="220" on="0"/>
        <pt x="284" y="161" on="0"/>
        <pt x="343" y="116" on="0"/>
        <pt x="419" y="90" on="0"/>
      </contour>
      <contour>
        <pt x="553" y="684" on="1"/>
        <pt x="603" y="685" on="0"/>
        <pt x="686" y="712" on="0"/>
        <pt x="750" y="757" on="0"/>
        <pt x="797" y="817" on="0"/>
        <pt x="811" y="850" on="1"/>
        <pt x="811" y="854" on="1"/>
        <pt x="809" y="989" on="0"/>
        <pt x="769" y="1184" on="0"/>
        <pt x="699" y="1310" on="0"/>
        <pt x="602" y="1370" on="0"/>
        <pt x="543" y="1370" on="1"/>
        <pt x="434" y="1370" on="0"/>
        <pt x="315" y="1180" on="0"/>
        <pt x="315" y="999" on="1"/>
        <pt x="315" y="915" on="0"/>
        <pt x="345" y="795" on="0"/>
        <pt x="405" y="719" on="0"/>
        <pt x="494" y="684" on="0"/>
      </contour>
    </TTGlyph>
    <TTGlyph name="ntilde" xMin="57" yMin="0" xMax="1264" yMax="1503">
      <component glyphName="n" x="0" y="0" flags="0x1204"/>
      <component glyphName="tilde" x="80" y="0" flags="0x1004"/>
    </TTGlyph>
    <TTGlyph name="numbersign" xMin="82" yMin="0" xMax="1063" yMax="1462">
      <contour>
        <pt x="397" y="537" on="1"/>
        <pt x="682" y="537" on="1"/>
        <pt x="758" y="938" on="1"/>
        <pt x="473" y="938" on="1"/>
      </contour>
      <contour>
        <pt x="1038" y="537" on="1"/>
        <pt x="1038" y="416" on="1"/>
        <pt x="780" y="416" on="1"/>
        <pt x="702" y="0" on="1"/>
        <pt x="580" y="0" on="1"/>
        <pt x="657" y="416" on="1"/>
        <pt x="373" y="416" on="1"/>
        <pt x="295" y="0" on="1"/>
        <pt x="172" y="0" on="1"/>
        <pt x="250" y="416" on="1"/>
        <pt x="82" y="416" on="1"/>
        <pt x="82" y="537" on="1"/>
        <pt x="272" y="537" on="1"/>
        <pt x="350" y="938" on="1"/>
        <pt x="106" y="938" on="1"/>
        <pt x="106" y="1059" on="1"/>
        <pt x="373" y="1059" on="1"/>
        <pt x="446" y="1462" on="1"/>
        <pt x="571" y="1462" on="1"/>
        <pt x="496" y="1059" on="1"/>
        <pt x="780" y="1059" on="1"/>
        <pt x="856" y="1462" on="1"/>
        <pt x="979" y="1462" on="1"/>
        <pt x="903" y="1059" on="1"/>
        <pt x="1063" y="1059" on="1"/>
        <pt x="1063" y="938" on="1"/>
        <pt x="881" y="938" on="1"/>
        <pt x="805" y="537" on="1"/>
      </contour>
    </TTGlyph>
    <TTGlyph name="o" xMin="113" yMin="-20" xMax="1069" yMax="1118">
      <contour>
        <pt x="1069" y="551" on="1"/>
        <pt x="1069" y="262" on="0"/>
        <pt x="824" y="-20" on="0"/>
        <pt x="588" y="-20" on="1"/>
        <pt x="477" y="-20" on="0"/>
        <pt x="301" y="50" on="0"/>
        <pt x="178" y="192" on="0"/>
        <pt x="113" y="407" on="0"/>
        <pt x="113" y="551" on="1"/>
        <pt x="113" y="838" on="0"/>
        <pt x="356" y="1118" on="0"/>
        <pt x="594" y="1118" on="1"/>
        <pt x="705" y="1118" on="0"/>
        <pt x="881" y="1049" on="0"/>
        <pt x="1004" y="908" on="0"/>
        <pt x="1069" y="695" on="0"/>
      </contour>
      <contour>
        <pt x="311" y="551" on="1"/>
        <pt x="311" y="437" on="0"/>
        <pt x="341" y="263" on="0"/>
        <pt x="408" y="146" on="0"/>
        <pt x="515" y="86" on="0"/>
        <pt x="592" y="86" on="1"/>
        <pt x="669" y="86" on="0"/>
        <pt x="775" y="146" on="0"/>
        <pt x="841" y="263" on="0"/>
        <pt x="870" y="437" on="0"/>
        <pt x="870" y="551" on="1"/>
        <pt x="870" y="665" on="0"/>
        <pt x="840" y="837" on="0"/>
        <pt x="774" y="952" on="0"/>
        <pt x="667" y="1010" on="0"/>
        <pt x="590" y="1010" on="1"/>
        <pt x="513" y="1010" on="0"/>
        <pt x="407" y="952" on="0"/>
        <pt x="341" y="837" on="0"/>
        <pt x="311" y="665" on="0"/>
      </contour>
    </TTGlyph>
    <TTGlyph name="oacute" xMin="113" yMin="-20" xMax="1069" yMax="1569">
      <component glyphName="o" x="0" y="0" flags="0x1204"/>
      <component glyphName="acute" x="121" y="0" flags="0x1004"/>
    </TTGlyph>
    <TTGlyph name="ocircumflex" xMin="113" yMin="-20" xMax="1069" yMax="1569">
      <component glyphName="o" x="0" y="0" flags="0x1204"/>
      <component glyphName="circumflex" x="-5" y="0" flags="0x1004"/>
    </TTGlyph>
    <TTGlyph name="odieresis" xMin="113" yMin="-20" xMax="1069" yMax="1524">
      <component glyphName="o" x="0" y="0" flags="0x1204"/>
      <component glyphName="dieresis" x="-7" y="0" flags="0x1004"/>
    </TTGlyph>
    <TTGlyph name="ograve" xMin="113" yMin="-20" xMax="1069" yMax="1569">
      <component glyphName="o" x="0" y="0" flags="0x1204"/>
      <component glyphName="grave" x="-95" y="0" flags="0x1004"/>
    </TTGlyph>
    <TTGlyph name="one" xMin="135" yMin="0" xMax="977" yMax="1470">
      <contour>
        <pt x="197" y="0" on="1"/>
        <pt x="197" y="86" on="1"/>
        <pt x="334" y="86" on="1"/>
        <pt x="369" y="86" on="0"/>
        <pt x="430" y="96" on="0"/>
        <pt x="475" y="127" on="0"/>
        <pt x="502" y="185" on="0"/>
        <pt x="502" y="233" on="1"/>
        <pt x="502" y="1309" on="1"/>
        <pt x="463" y="1261" on="0"/>
        <pt x="393" y="1183" on="0"/>
        <pt x="329" y="1127" on="0"/>
        <pt x="268" y="1096" on="0"/>
        <pt x="238" y="1096" on="1"/>
        <pt x="193" y="1096" on="0"/>
        <pt x="135" y="1157" on="0"/>
        <pt x="135" y="1206" on="1"/>
        <pt x="166" y="1214" on="0"/>
        <pt x="229" y="1237" on="0"/>
        <pt x="300" y="1274" on="0"/>
        <pt x="383" y="1327" on="0"/>
        <pt x="434" y="1364" on="1"/>
        <pt x="578" y="1470" on="1"/>
        <pt x="709" y="1470" on="1"/>
        <pt x="709" y="233" on="1"/>
        <pt x="709" y="185" on="0"/>
        <pt x="735" y="127" on="0"/>
        <pt x="781" y="96" on="0"/>
        <pt x="842" y="86" on="0"/>
        <pt x="877" y="86" on="1"/>
        <pt x="977" y="86" on="1"/>
        <pt x="977" y="0" on="1"/>
      </contour>
    </TTGlyph>
    <TTGlyph name="onehalf" xMin="48" yMin="0" xMax="1645" yMax="1473">
      <component glyphName="onesuperior" x="-85" y="0" flags="0x1004"/>
      <component glyphName="fraction" x="758" y="0" flags="0x1004"/>
      <component glyphName="twosuperior" x="930" y="-585" flags="0x1004"/>
    </TTGlyph>
    <TTGlyph name="onequarter" xMin="48" yMin="0" xMax="1673" yMax="1473">
      <component glyphName="onesuperior" x="-85" y="0" flags="0x1004"/>
      <component glyphName="fraction" x="799" y="0" flags="0x1004"/>
      <component glyphName="foursuperior" x="897" y="-587" flags="0x1004"/>
    </TTGlyph>
    <TTGlyph name="onesuperior" xMin="133" yMin="588" xMax="688" yMax="1473">
      <contour>
        <pt x="145" y="588" on="1"/>
        <pt x="145" y="657" on="1"/>
        <pt x="240" y="657" on="1"/>
        <pt x="258" y="657" on="0"/>
        <pt x="288" y="662" on="0"/>
        <pt x="311" y="678" on="0"/>
        <pt x="324" y="709" on="0"/>
        <pt x="324" y="735" on="1"/>
        <pt x="324" y="1325" on="1"/>
        <pt x="133" y="1325" on="1"/>
        <pt x="133" y="1395" on="1"/>
        <pt x="236" y="1395" on="1"/>
        <pt x="259" y="1395" on="0"/>
        <pt x="311" y="1401" on="0"/>
        <pt x="359" y="1419" on="0"/>
        <pt x="397" y="1449" on="0"/>
        <pt x="406" y="1473" on="1"/>
        <pt x="508" y="1473" on="1"/>
        <pt x="508" y="735" on="1"/>
        <pt x="508" y="709" on="0"/>
        <pt x="522" y="678" on="0"/>
        <pt x="545" y="662" on="0"/>
        <pt x="576" y="657" on="0"/>
        <pt x="594" y="657" on="1"/>
        <pt x="688" y="657" on="1"/>
        <pt x="688" y="588" on="1"/>
      </contour>
    </TTGlyph>
    <TTGlyph name="ordfeminine" xMin="72" yMin="778" xMax="748" yMax="1473">
      <contour>
        <pt x="250" y="985" on="1"/>
        <pt x="250" y="921" on="0"/>
        <pt x="304" y="872" on="0"/>
        <pt x="344" y="872" on="1"/>
        <pt x="378" y="872" on="0"/>
        <pt x="432" y="896" on="0"/>
        <pt x="469" y="940" on="0"/>
        <pt x="489" y="1000" on="0"/>
        <pt x="489" y="1036" on="1"/>
        <pt x="489" y="1133" on="1"/>
        <pt x="426" y="1130" on="1"/>
        <pt x="376" y="1129" on="0"/>
        <pt x="309" y="1108" on="0"/>
        <pt x="268" y="1071" on="0"/>
        <pt x="250" y="1019" on="0"/>
      </contour>
      <contour>
        <pt x="387" y="1397" on="1"/>
        <pt x="356" y="1397" on="0"/>
        <pt x="318" y="1375" on="0"/>
        <pt x="297" y="1337" on="0"/>
        <pt x="289" y="1286" on="0"/>
        <pt x="289" y="1257" on="1"/>
        <pt x="211" y="1257" on="0"/>
        <pt x="127" y="1298" on="0"/>
        <pt x="127" y="1346" on="1"/>
        <pt x="127" y="1381" on="0"/>
        <pt x="169" y="1429" on="0"/>
        <pt x="241" y="1459" on="0"/>
        <pt x="337" y="1473" on="0"/>
        <pt x="391" y="1473" on="1"/>
        <pt x="459" y="1473" on="0"/>
        <pt x="559" y="1449" on="0"/>
        <pt x="626" y="1396" on="0"/>
        <pt x="659" y="1312" on="0"/>
        <pt x="659" y="1251" on="1"/>
        <pt x="659" y="940" on="1"/>
        <pt x="659" y="894" on="0"/>
        <pt x="698" y="860" on="0"/>
        <pt x="748" y="860" on="1"/>
        <pt x="748" y="791" on="1"/>
        <pt x="549" y="791" on="1"/>
        <pt x="512" y="885" on="1"/>
        <pt x="502" y="885" on="1"/>
        <pt x="484" y="865" on="0"/>
        <pt x="441" y="826" on="0"/>
        <pt x="388" y="796" on="0"/>
        <pt x="324" y="778" on="0"/>
        <pt x="285" y="778" on="1"/>
        <pt x="186" y="778" on="0"/>
        <pt x="72" y="884" on="0"/>
        <pt x="72" y="987" on="1"/>
        <pt x="72" y="1089" on="0"/>
        <pt x="234" y="1186" on="0"/>
        <pt x="401" y="1194" on="1"/>
        <pt x="489" y="1198" on="1"/>
        <pt x="489" y="1257" on="1"/>
        <pt x="489" y="1288" on="0"/>
        <pt x="482" y="1339" on="0"/>
        <pt x="461" y="1376" on="0"/>
        <pt x="421" y="1397" on="0"/>
      </contour>
    </TTGlyph>
    <TTGlyph name="ordmasculine" xMin="72" yMin="778" xMax="741" yMax="1473">
      <contour>
        <pt x="250" y="1126" on="1"/>
        <pt x="250" y="993" on="0"/>
        <pt x="320" y="860" on="0"/>
        <pt x="408" y="860" on="1"/>
        <pt x="494" y="860" on="0"/>
        <pt x="565" y="993" on="0"/>
        <pt x="565" y="1126" on="1"/>
        <pt x="565" y="1257" on="0"/>
        <pt x="492" y="1386" on="0"/>
        <pt x="406" y="1386" on="1"/>
        <pt x="320" y="1386" on="0"/>
        <pt x="250" y="1257" on="0"/>
      </contour>
      <contour>
        <pt x="741" y="1126" on="1"/>
        <pt x="741" y="950" on="0"/>
        <pt x="571" y="778" on="0"/>
        <pt x="406" y="778" on="1"/>
        <pt x="248" y="778" on="0"/>
        <pt x="72" y="951" on="0"/>
        <pt x="72" y="1126" on="1"/>
        <pt x="72" y="1302" on="0"/>
        <pt x="242" y="1473" on="0"/>
        <pt x="410" y="1473" on="1"/>
        <pt x="487" y="1473" on="0"/>
        <pt x="609" y="1430" on="0"/>
        <pt x="695" y="1344" on="0"/>
        <pt x="741" y="1214" on="0"/>
      </contour>
    </TTGlyph>
    <TTGlyph name="oslash" xMin="113" yMin="-82" xMax="1069" yMax="1180">
      <contour>
        <pt x="930" y="991" on="1"/>
        <pt x="998" y="922" on="0"/>
        <pt x="1069" y="703" on="0"/>
        <pt x="1069" y="551" on="1"/>
        <pt x="1069" y="262" on="0"/>
        <pt x="824" y="-20" on="0"/>
        <pt x="588" y="-20" on="1"/>
        <pt x="517" y="-20" on="0"/>
        <pt x="393" y="8" on="0"/>
        <pt x="342" y="37" on="1"/>
        <pt x="268" y="-82" on="1"/>
        <pt x="147" y="-82" on="1"/>
        <pt x="258" y="98" on="1"/>
        <pt x="187" y="170" on="0"/>
        <pt x="113" y="393" on="0"/>
        <pt x="113" y="551" on="1"/>
        <pt x="113" y="838" on="0"/>
        <pt x="356" y="1118" on="0"/>
        <pt x="594" y="1118" on="1"/>
        <pt x="668" y="1118" on="0"/>
        <pt x="795" y="1086" on="0"/>
        <pt x="848" y="1055" on="1"/>
        <pt x="926" y="1180" on="1"/>
        <pt x="1044" y="1180" on="1"/>
      </contour>
      <contour>
        <pt x="311" y="551" on="1"/>
        <pt x="311" y="457" on="0"/>
        <pt x="331" y="307" on="0"/>
        <pt x="352" y="250" on="1"/>
        <pt x="776" y="936" on="1"/>
        <pt x="708" y="1010" on="0"/>
        <pt x="590" y="1010" on="1"/>
        <pt x="513" y="1010" on="0"/>
        <pt x="407" y="952" on="0"/>
        <pt x="341" y="837" on="0"/>
        <pt x="311" y="665" on="0"/>
      </contour>
      <contour>
        <pt x="870" y="551" on="1"/>
        <pt x="870" y="728" on="0"/>
        <pt x="834" y="836" on="1"/>
        <pt x="412" y="152" on="1"/>
        <pt x="444" y="120" on="0"/>
        <pt x="533" y="86" on="0"/>
        <pt x="592" y="86" on="1"/>
        <pt x="669" y="86" on="0"/>
        <pt x="775" y="146" on="0"/>
        <pt x="841" y="263" on="0"/>
        <pt x="870" y="437" on="0"/>
      </contour>
    </TTGlyph>
    <TTGlyph name="otilde" xMin="113" yMin="-20" xMax="1069" yMax="1503">
      <component glyphName="o" x="0" y="0" flags="0x1204"/>
      <component glyphName="tilde" x="-5" y="0" flags="0x1004"/>
    </TTGlyph>
    <TTGlyph name="overscore" xMin="-10" yMin="1556" xMax="950" yMax="1677">
      <contour>
        <pt x="950" y="1556" on="1"/>
        <pt x="-10" y="1556" on="1"/>
        <pt x="-10" y="1677" on="1"/>
        <pt x="950" y="1677" on="1"/>
      </contour>
    </TTGlyph>
    <TTGlyph name="p" xMin="27" yMin="-492" xMax="1145" yMax="1118">
      <contour>
        <pt x="692" y="987" on="1"/>
        <pt x="612" y="987" on="0"/>
        <pt x="505" y="934" on="0"/>
        <pt x="441" y="826" on="0"/>
        <pt x="414" y="662" on="0"/>
        <pt x="414" y="551" on="1"/>
        <pt x="414" y="444" on="0"/>
        <pt x="441" y="280" on="0"/>
        <pt x="506" y="168" on="0"/>
        <pt x="613" y="111" on="0"/>
        <pt x="694" y="111" on="1"/>
        <pt x="762" y="111" on="0"/>
        <pt x="857" y="168" on="0"/>
        <pt x="918" y="280" on="0"/>
        <pt x="946" y="445" on="0"/>
        <pt x="946" y="553" on="1"/>
        <pt x="946" y="662" on="0"/>
        <pt x="918" y="825" on="0"/>
        <pt x="857" y="933" on="0"/>
        <pt x="760" y="987" on="0"/>
      </contour>
      <contour>
        <pt x="1145" y="551" on="1"/>
        <pt x="1145" y="403" on="0"/>
        <pt x="1090" y="187" on="0"/>
        <pt x="984" y="47" on="0"/>
        <pt x="828" y="-20" on="0"/>
        <pt x="727" y="-20" on="1"/>
        <pt x="668" y="-20" on="0"/>
        <pt x="572" y="6" on="0"/>
        <pt x="495" y="54" on="0"/>
        <pt x="436" y="120" on="0"/>
        <pt x="414" y="160" on="1"/>
        <pt x="406" y="160" on="1"/>
        <pt x="408" y="107" on="0"/>
        <pt x="410" y="61" on="1"/>
        <pt x="411" y="42" on="0"/>
        <pt x="412" y="1" on="0"/>
        <pt x="413" y="-35" on="0"/>
        <pt x="414" y="-64" on="0"/>
        <pt x="414" y="-72" on="1"/>
        <pt x="414" y="-268" on="1"/>
        <pt x="414" y="-313" on="0"/>
        <pt x="441" y="-368" on="0"/>
        <pt x="487" y="-397" on="0"/>
        <pt x="548" y="-406" on="0"/>
        <pt x="582" y="-406" on="1"/>
        <pt x="588" y="-406" on="1"/>
        <pt x="588" y="-492" on="1"/>
        <pt x="37" y="-492" on="1"/>
        <pt x="37" y="-406" on="1"/>
        <pt x="53" y="-406" on="1"/>
        <pt x="88" y="-406" on="0"/>
        <pt x="149" y="-396" on="0"/>
        <pt x="194" y="-365" on="0"/>
        <pt x="221" y="-306" on="0"/>
        <pt x="221" y="-258" on="1"/>
        <pt x="221" y="872" on="1"/>
        <pt x="221" y="917" on="0"/>
        <pt x="194" y="972" on="0"/>
        <pt x="148" y="1002" on="0"/>
        <pt x="87" y="1012" on="0"/>
        <pt x="53" y="1012" on="1"/>
        <pt x="27" y="1012" on="1"/>
        <pt x="27" y="1098" on="1"/>
        <pt x="385" y="1098" on="1"/>
        <pt x="406" y="913" on="1"/>
        <pt x="414" y="913" on="1"/>
        <pt x="437" y="960" on="0"/>
        <pt x="495" y="1036" on="0"/>
        <pt x="571" y="1089" on="0"/>
        <pt x="667" y="1118" on="0"/>
        <pt x="727" y="1118" on="1"/>
        <pt x="828" y="1118" on="0"/>
        <pt x="984" y="1051" on="0"/>
        <pt x="1090" y="912" on="0"/>
        <pt x="1145" y="698" on="0"/>
      </contour>
    </TTGlyph>
    <TTGlyph name="paragraph" xMin="82" yMin="-227" xMax="1180" yMax="1556">
      <contour>
        <pt x="860" y="1452" on="1"/>
        <pt x="666" y="1452" on="1"/>
        <pt x="666" y="-227" on="1"/>
        <pt x="346" y="-227" on="1"/>
        <pt x="346" y="-141" on="1"/>
        <pt x="373" y="-141" on="1"/>
        <pt x="408" y="-141" on="0"/>
        <pt x="469" y="-131" on="0"/>
        <pt x="514" y="-100" on="0"/>
        <pt x="541" y="-42" on="0"/>
        <pt x="541" y="6" on="1"/>
        <pt x="541" y="791" on="1"/>
        <pt x="395" y="791" on="1"/>
        <pt x="305" y="791" on="0"/>
        <pt x="185" y="856" on="0"/>
        <pt x="113" y="967" on="0"/>
        <pt x="82" y="1112" on="0"/>
        <pt x="82" y="1192" on="1"/>
        <pt x="82" y="1274" on="0"/>
        <pt x="116" y="1408" on="0"/>
        <pt x="192" y="1504" on="0"/>
        <pt x="312" y="1556" on="0"/>
        <pt x="399" y="1556" on="1"/>
        <pt x="1180" y="1556" on="1"/>
        <pt x="1180" y="1470" on="1"/>
        <pt x="1153" y="1470" on="1"/>
        <pt x="1119" y="1470" on="0"/>
        <pt x="1057" y="1460" on="0"/>
        <pt x="1012" y="1429" on="0"/>
        <pt x="985" y="1371" on="0"/>
        <pt x="985" y="1323" on="1"/>
        <pt x="985" y="6" on="1"/>
        <pt x="985" y="-42" on="0"/>
        <pt x="1012" y="-100" on="0"/>
        <pt x="1057" y="-131" on="0"/>
        <pt x="1119" y="-141" on="0"/>
        <pt x="1153" y="-141" on="1"/>
        <pt x="1180" y="-141" on="1"/>
        <pt x="1180" y="-227" on="1"/>
        <pt x="860" y="-227" on="1"/>
      </contour>
    </TTGlyph>
    <TTGlyph name="parenleft" xMin="117" yMin="-262" xMax="643" yMax="1556">
      <contour>
        <pt x="330" y="649" on="1"/>
        <pt x="330" y="527" on="0"/>
        <pt x="349" y="289" on="0"/>
        <pt x="413" y="76" on="0"/>
        <pt x="538" y="-104" on="0"/>
        <pt x="643" y="-168" on="1"/>
        <pt x="643" y="-262" on="1"/>
        <pt x="502" y="-206" on="0"/>
        <pt x="302" y="-46" on="0"/>
        <pt x="175" y="175" on="0"/>
        <pt x="117" y="464" on="0"/>
        <pt x="117" y="649" on="1"/>
        <pt x="117" y="834" on="0"/>
        <pt x="175" y="1121" on="0"/>
        <pt x="302" y="1341" on="0"/>
        <pt x="502" y="1500" on="0"/>
        <pt x="643" y="1556" on="1"/>
        <pt x="643" y="1464" on="1"/>
        <pt x="538" y="1400" on="0"/>
        <pt x="413" y="1221" on="0"/>
        <pt x="349" y="1009" on="0"/>
        <pt x="330" y="771" on="0"/>
      </contour>
    </TTGlyph>
    <TTGlyph name="parenright" xMin="66" yMin="-262" xMax="592" yMax="1556">
      <contour>
        <pt x="379" y="649" on="1"/>
        <pt x="379" y="771" on="0"/>
        <pt x="360" y="1009" on="0"/>
        <pt x="295" y="1221" on="0"/>
        <pt x="171" y="1400" on="0"/>
        <pt x="66" y="1464" on="1"/>
        <pt x="66" y="1556" on="1"/>
        <pt x="207" y="1500" on="0"/>
        <pt x="407" y="1341" on="0"/>
        <pt x="533" y="1121" on="0"/>
        <pt x="592" y="834" on="0"/>
        <pt x="592" y="649" on="1"/>
        <pt x="592" y="464" on="0"/>
        <pt x="533" y="175" on="0"/>
        <pt x="407" y="-46" on="0"/>
        <pt x="207" y="-206" on="0"/>
        <pt x="66" y="-262" on="1"/>
        <pt x="66" y="-168" on="1"/>
        <pt x="171" y="-104" on="0"/>
        <pt x="295" y="76" on="0"/>
        <pt x="360" y="289" on="0"/>
        <pt x="379" y="527" on="0"/>
      </contour>
    </TTGlyph>
    <TTGlyph name="percent" xMin="92" yMin="-20" xMax="1743" yMax="1483">
      <contour>
        <pt x="764" y="1030" on="1"/>
        <pt x="764" y="927" on="0"/>
        <pt x="722" y="759" on="0"/>
        <pt x="638" y="639" on="0"/>
        <pt x="512" y="573" on="0"/>
        <pt x="428" y="573" on="1"/>
        <pt x="340" y="573" on="0"/>
        <pt x="213" y="639" on="0"/>
        <pt x="131" y="759" on="0"/>
        <pt x="92" y="927" on="0"/>
        <pt x="92" y="1030" on="1"/>
        <pt x="92" y="1133" on="0"/>
        <pt x="131" y="1300" on="0"/>
        <pt x="213" y="1419" on="0"/>
        <pt x="341" y="1483" on="0"/>
        <pt x="430" y="1483" on="1"/>
        <pt x="514" y="1483" on="0"/>
        <pt x="639" y="1419" on="0"/>
        <pt x="722" y="1300" on="0"/>
        <pt x="764" y="1133" on="0"/>
      </contour>
      <contour>
        <pt x="276" y="1030" on="1"/>
        <pt x="276" y="942" on="0"/>
        <pt x="292" y="803" on="0"/>
        <pt x="328" y="707" on="0"/>
        <pt x="386" y="657" on="0"/>
        <pt x="428" y="657" on="1"/>
        <pt x="470" y="657" on="0"/>
        <pt x="528" y="707" on="0"/>
        <pt x="563" y="803" on="0"/>
        <pt x="578" y="942" on="0"/>
        <pt x="578" y="1030" on="1"/>
        <pt x="578" y="1117" on="0"/>
        <pt x="563" y="1253" on="0"/>
        <pt x="528" y="1348" on="0"/>
        <pt x="472" y="1397" on="0"/>
        <pt x="430" y="1397" on="1"/>
        <pt x="388" y="1397" on="0"/>
        <pt x="329" y="1348" on="0"/>
        <pt x="292" y="1253" on="0"/>
        <pt x="276" y="1117" on="0"/>
      </contour>
      <contour>
        <pt x="1743" y="436" on="1"/>
        <pt x="1743" y="333" on="0"/>
        <pt x="1701" y="165" on="0"/>
        <pt x="1617" y="45" on="0"/>
        <pt x="1491" y="-20" on="0"/>
        <pt x="1407" y="-20" on="1"/>
        <pt x="1319" y="-20" on="0"/>
        <pt x="1191" y="45" on="0"/>
        <pt x="1110" y="165" on="0"/>
        <pt x="1071" y="333" on="0"/>
        <pt x="1071" y="436" on="1"/>
        <pt x="1071" y="539" on="0"/>
        <pt x="1110" y="706" on="0"/>
        <pt x="1192" y="825" on="0"/>
        <pt x="1320" y="889" on="0"/>
        <pt x="1409" y="889" on="1"/>
        <pt x="1493" y="889" on="0"/>
        <pt x="1618" y="825" on="0"/>
        <pt x="1701" y="706" on="0"/>
        <pt x="1743" y="539" on="0"/>
      </contour>
      <contour>
        <pt x="1255" y="436" on="1"/>
        <pt x="1255" y="348" on="0"/>
        <pt x="1271" y="209" on="0"/>
        <pt x="1307" y="113" on="0"/>
        <pt x="1365" y="63" on="0"/>
        <pt x="1407" y="63" on="1"/>
        <pt x="1449" y="63" on="0"/>
        <pt x="1507" y="113" on="0"/>
        <pt x="1541" y="209" on="0"/>
        <pt x="1556" y="348" on="0"/>
        <pt x="1556" y="436" on="1"/>
        <pt x="1556" y="523" on="0"/>
        <pt x="1541" y="659" on="0"/>
        <pt x="1507" y="754" on="0"/>
        <pt x="1451" y="803" on="0"/>
        <pt x="1409" y="803" on="1"/>
        <pt x="1367" y="803" on="0"/>
        <pt x="1308" y="754" on="0"/>
        <pt x="1271" y="659" on="0"/>
        <pt x="1255" y="523" on="0"/>
      </contour>
      <contour>
        <pt x="616" y="0" on="1"/>
        <pt x="481" y="0" on="1"/>
        <pt x="1212" y="1462" on="1"/>
        <pt x="1346" y="1462" on="1"/>
      </contour>
    </TTGlyph>
    <TTGlyph name="period" xMin="164" yMin="-14" xMax="422" yMax="264">
      <contour>
        <pt x="164" y="125" on="1"/>
        <pt x="164" y="165" on="0"/>
        <pt x="184" y="218" on="0"/>
        <pt x="219" y="250" on="0"/>
        <pt x="266" y="264" on="0"/>
        <pt x="293" y="264" on="1"/>
        <pt x="319" y="264" on="0"/>
        <pt x="366" y="250" on="0"/>
        <pt x="401" y="218" on="0"/>
        <pt x="422" y="165" on="0"/>
        <pt x="422" y="125" on="1"/>
        <pt x="422" y="86" on="0"/>
        <pt x="401" y="32" on="0"/>
        <pt x="366" y="0" on="0"/>
        <pt x="319" y="-14" on="0"/>
        <pt x="293" y="-14" on="1"/>
        <pt x="266" y="-14" on="0"/>
        <pt x="219" y="0" on="0"/>
        <pt x="184" y="32" on="0"/>
        <pt x="164" y="86" on="0"/>
      </contour>
    </TTGlyph>
    <TTGlyph name="periodcentered" xMin="166" yMin="590" xMax="424" yMax="868">
      <contour>
        <pt x="166" y="729" on="1"/>
        <pt x="166" y="769" on="0"/>
        <pt x="186" y="823" on="0"/>
        <pt x="221" y="855" on="0"/>
        <pt x="268" y="868" on="0"/>
        <pt x="295" y="868" on="1"/>
        <pt x="321" y="868" on="0"/>
        <pt x="368" y="855" on="0"/>
        <pt x="403" y="823" on="0"/>
        <pt x="424" y="769" on="0"/>
        <pt x="424" y="729" on="1"/>
        <pt x="424" y="690" on="0"/>
        <pt x="403" y="637" on="0"/>
        <pt x="368" y="604" on="0"/>
        <pt x="321" y="590" on="0"/>
        <pt x="295" y="590" on="1"/>
        <pt x="268" y="590" on="0"/>
        <pt x="221" y="604" on="0"/>
        <pt x="186" y="637" on="0"/>
        <pt x="166" y="690" on="0"/>
      </contour>
    </TTGlyph>
    <TTGlyph name="plus" xMin="133" yMin="293" xMax="1012" yMax="1171">
      <contour>
        <pt x="633" y="672" on="1"/>
        <pt x="633" y="293" on="1"/>
        <pt x="510" y="293" on="1"/>
        <pt x="510" y="672" on="1"/>
        <pt x="133" y="672" on="1"/>
        <pt x="133" y="793" on="1"/>
        <pt x="510" y="793" on="1"/>
        <pt x="510" y="1171" on="1"/>
        <pt x="633" y="1171" on="1"/>
        <pt x="633" y="793" on="1"/>
        <pt x="1012" y="793" on="1"/>
        <pt x="1012" y="672" on="1"/>
      </contour>
    </TTGlyph>
    <TTGlyph name="plusminus" xMin="133" yMin="0" xMax="1012" yMax="1171">
      <contour>
        <pt x="633" y="672" on="1"/>
        <pt x="633" y="293" on="1"/>
        <pt x="510" y="293" on="1"/>
        <pt x="510" y="672" on="1"/>
        <pt x="133" y="672" on="1"/>
        <pt x="133" y="793" on="1"/>
        <pt x="510" y="793" on="1"/>
        <pt x="510" y="1171" on="1"/>
        <pt x="633" y="1171" on="1"/>
        <pt x="633" y="793" on="1"/>
        <pt x="1012" y="793" on="1"/>
        <pt x="1012" y="672" on="1"/>
      </contour>
      <contour>
        <pt x="1012" y="0" on="1"/>
        <pt x="133" y="0" on="1"/>
        <pt x="133" y="121" on="1"/>
        <pt x="1012" y="121" on="1"/>
      </contour>
    </TTGlyph>
</ttFont>
